<?xml version="1.0" encoding="UTF-8"?>
<svg width="405px" height="157px" viewBox="0 0 405 157" version="1.1" xmlns="http://www.w3.org/2000/svg" xmlns:xlink="http://www.w3.org/1999/xlink">
    <!-- Generator: Sketch 59.1 (86144) - https://sketch.com -->
    <title>en-SP</title>
    <desc>Created with Sketch.</desc>
    <g id="en-SP" stroke="none" stroke-width="1" fill="none" fill-rule="evenodd">
        <path d="M131.159457,32 L134.523457,32 L134.523457,13.469 L140.816457,13.469 L140.816457,10.656 L124.895457,10.656 L124.895457,13.469 L131.159457,13.469 L131.159457,32 Z M144.129374,32 L147.435374,32 L147.435374,20.69 C148.856374,19.269 149.871374,18.515 151.350374,18.515 C153.235374,18.515 154.047374,19.617 154.047374,22.372 L154.047374,32 L157.382374,32 L157.382374,21.966 C157.382374,17.906 155.874374,15.644 152.481374,15.644 C150.306374,15.644 148.711374,16.833 147.319374,18.167 L147.435374,15.006 L147.435374,8.887 L144.129374,8.887 L144.129374,32 Z M168.699291,32.377 C170.787291,32.377 172.614291,31.681 174.093291,30.695 L172.933291,28.578 C171.773291,29.332 170.555291,29.767 169.134291,29.767 C166.379291,29.767 164.465291,27.94 164.204291,24.895 L174.557291,24.895 C174.644291,24.518 174.702291,23.851 174.702291,23.213 C174.702291,18.689 172.440291,15.644 168.206291,15.644 C164.465291,15.644 160.927291,18.863 160.927291,24.054 C160.927291,29.303 164.378291,32.377 168.699291,32.377 Z M164.175291,22.604 C164.494291,19.791 166.263291,18.254 168.264291,18.254 C170.584291,18.254 171.831291,19.849 171.831291,22.604 L164.175291,22.604 Z M188.114125,32.377 C188.926125,32.377 189.506125,32.261 189.912125,32.116 L189.477125,29.593 C189.187125,29.651 189.071125,29.651 188.926125,29.651 C188.520125,29.651 188.114125,29.332 188.114125,28.433 L188.114125,8.887 L184.808125,8.887 L184.808125,28.259 C184.808125,30.84 185.707125,32.377 188.114125,32.377 Z M197.140042,32.377 C199.054042,32.377 200.765042,31.42 202.215042,30.173 L202.302042,30.173 L202.592042,32 L205.318042,32 L205.318042,22.401 C205.318042,18.167 203.491042,15.644 199.518042,15.644 C196.966042,15.644 194.733042,16.688 193.080042,17.732 L194.327042,19.994 C195.690042,19.124 197.256042,18.37 198.938042,18.37 C201.287042,18.37 201.954042,19.994 201.983042,21.85 C195.342042,22.575 192.442042,24.344 192.442042,27.766 C192.442042,30.579 194.385042,32.377 197.140042,32.377 Z M198.155042,29.738 C196.734042,29.738 195.661042,29.1 195.661042,27.534 C195.661042,25.736 197.256042,24.547 201.983042,23.967 L201.983042,27.882 C200.678042,29.071 199.547042,29.738 198.155042,29.738 Z M209.964959,32 L213.270959,32 L213.270959,22.053 C214.285959,19.53 215.851959,18.631 217.156959,18.631 C217.794959,18.631 218.200959,18.718 218.751959,18.892 L219.360959,15.992 C218.867959,15.76 218.345959,15.644 217.562959,15.644 C215.851959,15.644 214.169959,16.862 213.038959,18.921 L212.951959,18.921 L212.690959,16.05 L209.964959,16.05 L209.964959,32 Z M226.878876,39.163 C231.982876,39.163 235.230876,36.669 235.230876,33.595 C235.230876,30.869 233.258876,29.709 229.488876,29.709 L226.559876,29.709 C224.529876,29.709 223.891876,29.1 223.891876,28.143 C223.891876,27.389 224.239876,26.925 224.761876,26.461 C225.457876,26.78 226.269876,26.954 226.994876,26.954 C230.329876,26.954 232.968876,24.953 232.968876,21.473 C232.968876,20.255 232.533876,19.182 231.924876,18.544 L234.969876,18.544 L234.969876,16.05 L229.314876,16.05 C228.705876,15.818 227.893876,15.644 226.994876,15.644 C223.688876,15.644 220.817876,17.761 220.817876,21.386 C220.817876,23.271 221.832876,24.779 222.905876,25.62 L222.905876,25.736 C222.035876,26.374 221.136876,27.447 221.136876,28.694 C221.136876,29.999 221.774876,30.84 222.586876,31.333 L222.586876,31.478 C221.107876,32.377 220.266876,33.624 220.266876,34.958 C220.266876,37.742 223.050876,39.163 226.878876,39.163 Z M226.994876,24.808 C225.341876,24.808 223.978876,23.503 223.978876,21.386 C223.978876,19.211 225.312876,17.993 226.994876,17.993 C228.676876,17.993 230.010876,19.24 230.010876,21.386 C230.010876,23.503 228.647876,24.808 226.994876,24.808 Z M227.371875,36.959 C224.732876,36.959 223.108876,36.031 223.108876,34.465 C223.108876,33.653 223.514875,32.841 224.471876,32.145 C225.138876,32.29 225.863876,32.377 226.617875,32.377 L229.024876,32.377 C230.967875,32.377 232.011876,32.783 232.011876,34.117 C232.011876,35.596 230.155876,36.959 227.371875,36.959 Z M244.256793,32.377 C246.344793,32.377 248.171793,31.681 249.650793,30.695 L248.490793,28.578 C247.330793,29.332 246.112793,29.767 244.691793,29.767 C241.936793,29.767 240.022793,27.94 239.761793,24.895 L250.114793,24.895 C250.201793,24.518 250.259793,23.851 250.259793,23.213 C250.259793,18.689 247.997793,15.644 243.763793,15.644 C240.022793,15.644 236.484793,18.863 236.484793,24.054 C236.484793,29.303 239.935793,32.377 244.256793,32.377 Z M239.732793,22.604 C240.051793,19.791 241.820793,18.254 243.821793,18.254 C246.141793,18.254 247.388793,19.849 247.388793,22.604 L239.732793,22.604 Z M258.24171,32.377 C262.18571,32.377 264.302709,30.202 264.302709,27.534 C264.302709,24.6903429 262.111375,23.6513143 259.989279,22.8369436 L259.60471,22.691 C257.86471,22.053 256.211709,21.531 256.211709,20.168 C256.211709,19.066 257.023709,18.196 258.76371,18.196 C260.09771,18.196 261.22871,18.776 262.33071,19.588 L263.89671,17.529 C262.591709,16.514 260.85171,15.644 258.70571,15.644 C255.19671,15.644 253.05071,17.645 253.05071,20.313 C253.05071,22.8465455 255.200384,23.998157 257.215899,24.8015709 L258.564556,25.3259129 C259.947976,25.8841427 261.14171,26.5265185 261.14171,27.708 C261.14171,28.926 260.24271,29.854 258.32871,29.854 C256.61771,29.854 255.22571,29.158 253.80471,28.027 L252.23871,30.173 C253.77571,31.449 256.03771,32.377 258.24171,32.377 Z M272.487627,32.377 C273.647627,32.377 274.720627,32.087 275.619627,31.797 L275.010627,29.332 C274.546627,29.535 273.850627,29.709 273.299627,29.709 C271.646627,29.709 270.979626,28.723 270.979626,26.809 L270.979626,18.718 L275.126627,18.718 L275.126627,16.05 L270.979626,16.05 L270.979626,11.642 L268.166627,11.642 L267.789627,16.05 L265.324627,16.224 L265.324627,18.718 L267.644627,18.718 L267.644627,26.78 C267.644627,30.144 268.891627,32.377 272.487627,32.377 Z M44.476996,67.477 C49.145996,67.477 51.987996,64.693 51.987996,61.271 C51.987996,58.139 50.160996,56.573 47.637996,55.5 L44.708996,54.253 L43.969961,53.9514169 C42.5150572,53.3350612 41.257996,52.6 41.257996,51.034 C41.257996,49.323 42.678996,48.279 44.853996,48.279 C46.738996,48.279 48.217996,49.004 49.551996,50.193 L51.320996,48.047 C49.696996,46.394 47.347996,45.35 44.853996,45.35 C40.793996,45.35 37.835996,47.873 37.835996,51.237 C37.835996,54.2459697 39.9902513,55.8642176 41.9982453,56.7528118 L45.143996,58.11 L45.9544741,58.4715277 C47.5006899,59.1812245 48.565996,59.8665714 48.565996,61.532 C48.565996,63.33 47.115996,64.548 44.534996,64.548 C42.475996,64.548 40.387996,63.562 38.850996,62.025 L36.878996,64.345 C38.821996,66.317 41.547996,67.477 44.476996,67.477 Z M62.144913,67.477 C63.971913,67.477 65.856913,66.81 67.306913,65.505 L65.943913,63.301 C64.986913,64.113 63.797913,64.751 62.463913,64.751 C59.795913,64.751 57.968913,62.518 57.968913,59.154 C57.968913,55.761 59.882913,53.499 62.550913,53.499 C63.652913,53.499 64.551913,53.963 65.421913,54.746 L67.074913,52.571 C65.914913,51.556 64.435913,50.744 62.405913,50.744 C58.200913,50.744 54.517913,53.818 54.517913,59.154 C54.517913,64.432 57.823913,67.477 62.144913,67.477 Z M74.01283,67.477 C75.92683,67.477 77.63783,66.52 79.08783,65.273 L79.17483,65.273 L79.46483,67.1 L82.19083,67.1 L82.19083,57.501 C82.19083,53.267 80.36383,50.744 76.39083,50.744 C73.83883,50.744 71.60583,51.788 69.95283,52.832 L71.19983,55.094 C72.56283,54.224 74.12883,53.47 75.81083,53.47 C78.15983,53.47 78.82683,55.094 78.85583,56.95 C72.21483,57.675 69.31483,59.444 69.31483,62.866 C69.31483,65.679 71.25783,67.477 74.01283,67.477 Z M75.02783,64.838 C73.60683,64.838 72.53383,64.2 72.53383,62.634 C72.53383,60.836 74.12883,59.647 78.85583,59.067 L78.85583,62.982 C77.55083,64.171 76.41983,64.838 75.02783,64.838 Z M90.143747,67.477 C90.955747,67.477 91.535747,67.361 91.941747,67.216 L91.506747,64.693 C91.216747,64.751 91.100747,64.751 90.955747,64.751 C90.549747,64.751 90.143747,64.432 90.143747,63.533 L90.143747,43.987 L86.837747,43.987 L86.837747,63.359 C86.837747,65.94 87.736747,67.477 90.143747,67.477 Z M99.169664,67.477 C101.083664,67.477 102.794664,66.52 104.244664,65.273 L104.331664,65.273 L104.621664,67.1 L107.347664,67.1 L107.347664,57.501 C107.347664,53.267 105.520664,50.744 101.547664,50.744 C98.995664,50.744 96.762664,51.788 95.109664,52.832 L96.356664,55.094 C97.719664,54.224 99.285664,53.47 100.967664,53.47 C103.316664,53.47 103.983664,55.094 104.012664,56.95 C97.371664,57.675 94.471664,59.444 94.471664,62.866 C94.471664,65.679 96.414664,67.477 99.169664,67.477 Z M100.184664,64.838 C98.763664,64.838 97.690664,64.2 97.690664,62.634 C97.690664,60.836 99.285664,59.647 104.012664,59.067 L104.012664,62.982 C102.707664,64.171 101.576664,64.838 100.184664,64.838 Z M124.935498,67.477 C126.762498,67.477 128.647498,66.81 130.097498,65.505 L128.734498,63.301 C127.777498,64.113 126.588498,64.751 125.254498,64.751 C122.586498,64.751 120.759498,62.518 120.759498,59.154 C120.759498,55.761 122.673498,53.499 125.341498,53.499 C126.443498,53.499 127.342498,53.963 128.212498,54.746 L129.865498,52.571 C128.705498,51.556 127.226498,50.744 125.196498,50.744 C120.991498,50.744 117.308498,53.818 117.308498,59.154 C117.308498,64.432 120.614498,67.477 124.935498,67.477 Z M138.978415,67.477 C142.922415,67.477 146.489415,64.432 146.489415,59.154 C146.489415,53.818 142.922415,50.744 138.978415,50.744 C135.034415,50.744 131.467415,53.818 131.467415,59.154 C131.467415,64.432 135.034415,67.477 138.978415,67.477 Z M138.978415,64.751 C136.484415,64.751 134.918415,62.518 134.918415,59.154 C134.918415,55.761 136.484415,53.499 138.978415,53.499 C141.501415,53.499 143.067415,55.761 143.067415,59.154 C143.067415,62.518 141.501415,64.751 138.978415,64.751 Z M150.324332,67.1 L153.630332,67.1 L153.630332,55.79 C155.051332,54.369 156.066332,53.615 157.545332,53.615 C159.430332,53.615 160.242332,54.717 160.242332,57.472 L160.242332,67.1 L163.577332,67.1 L163.577332,57.066 C163.577332,53.006 162.069332,50.744 158.676332,50.744 C156.501332,50.744 154.877332,51.933 153.398332,53.354 L153.311332,53.354 L153.050332,51.15 L150.324332,51.15 L150.324332,67.1 Z M176.750249,44.161 C176.025249,43.842 175.010249,43.61 173.937249,43.61 C170.370249,43.61 168.891249,45.872 168.891249,49.149 L168.891249,51.15 L166.716249,51.324 L166.716249,53.818 L168.891249,53.818 L168.891249,67.1 L172.226249,67.1 L172.226249,53.818 L175.445249,53.818 L175.445249,51.15 L172.226249,51.15 L172.226249,49.12 C172.226249,47.177 172.922249,46.249 174.343249,46.249 C174.894249,46.249 175.503249,46.394 176.083249,46.655 L176.750249,44.161 Z M184.587166,67.477 C186.675166,67.477 188.502166,66.781 189.981166,65.795 L188.821166,63.678 C187.661166,64.432 186.443166,64.867 185.022166,64.867 C182.267166,64.867 180.353166,63.04 180.092166,59.995 L190.445166,59.995 C190.532166,59.618 190.590166,58.951 190.590166,58.313 C190.590166,53.789 188.328166,50.744 184.094166,50.744 C180.353166,50.744 176.815166,53.963 176.815166,59.154 C176.815166,64.403 180.266166,67.477 184.587166,67.477 Z M180.063166,57.704 C180.382166,54.891 182.151166,53.354 184.152166,53.354 C186.472166,53.354 187.719166,54.949 187.719166,57.704 L180.063166,57.704 Z M194.251083,67.1 L197.557083,67.1 L197.557083,57.153 C198.572083,54.63 200.138083,53.731 201.443083,53.731 C202.081083,53.731 202.487083,53.818 203.038083,53.992 L203.647083,51.092 C203.154083,50.86 202.632083,50.744 201.849083,50.744 C200.138083,50.744 198.456083,51.962 197.325083,54.021 L197.238083,54.021 L196.977083,51.15 L194.251083,51.15 L194.251083,67.1 Z M212.354,67.477 C214.442,67.477 216.269,66.781 217.748,65.795 L216.588,63.678 C215.428,64.432 214.21,64.867 212.789,64.867 C210.034,64.867 208.12,63.04 207.859,59.995 L218.212,59.995 C218.299,59.618 218.357,58.951 218.357,58.313 C218.357,53.789 216.095,50.744 211.861,50.744 C208.12,50.744 204.582,53.963 204.582,59.154 C204.582,64.403 208.033,67.477 212.354,67.477 Z M207.83,57.704 C208.149,54.891 209.918,53.354 211.919,53.354 C214.239,53.354 215.486,54.949 215.486,57.704 L207.83,57.704 Z M222.017917,67.1 L225.323917,67.1 L225.323917,55.79 C226.744917,54.369 227.759917,53.615 229.238917,53.615 C231.123917,53.615 231.935917,54.717 231.935917,57.472 L231.935917,67.1 L235.270917,67.1 L235.270917,57.066 C235.270917,53.006 233.762917,50.744 230.369917,50.744 C228.194917,50.744 226.570917,51.933 225.091917,53.354 L225.004917,53.354 L224.743917,51.15 L222.017917,51.15 L222.017917,67.1 Z M246.529834,67.477 C248.356834,67.477 250.241834,66.81 251.691834,65.505 L250.328834,63.301 C249.371834,64.113 248.182834,64.751 246.848834,64.751 C244.180834,64.751 242.353834,62.518 242.353834,59.154 C242.353834,55.761 244.267834,53.499 246.935834,53.499 C248.037834,53.499 248.936834,53.963 249.806834,54.746 L251.459834,52.571 C250.299834,51.556 248.820834,50.744 246.790834,50.744 C242.585834,50.744 238.902834,53.818 238.902834,59.154 C238.902834,64.432 242.208834,67.477 246.529834,67.477 Z M260.833751,67.477 C262.921751,67.477 264.748751,66.781 266.227751,65.795 L265.067751,63.678 C263.907751,64.432 262.689751,64.867 261.268751,64.867 C258.513751,64.867 256.599751,63.04 256.338751,59.995 L266.691751,59.995 C266.778751,59.618 266.836751,58.951 266.836751,58.313 C266.836751,53.789 264.574751,50.744 260.340751,50.744 C256.599751,50.744 253.061751,53.963 253.061751,59.154 C253.061751,64.403 256.512751,67.477 260.833751,67.477 Z M256.309751,57.704 C256.628751,54.891 258.397751,53.354 260.398751,53.354 C262.718751,53.354 263.965751,54.949 263.965751,57.704 L256.309751,57.704 Z M276.942585,67.1 L280.248585,67.1 L280.248585,51.15 L276.942585,51.15 L276.942585,67.1 Z M278.595585,48.163 C279.813585,48.163 280.741585,47.351 280.741585,46.191 C280.741585,45.002 279.813585,44.219 278.595585,44.219 C277.377585,44.219 276.478585,45.002 276.478585,46.191 C276.478585,47.351 277.377585,48.163 278.595585,48.163 Z M285.185502,67.1 L288.491502,67.1 L288.491502,55.79 C289.912502,54.369 290.927502,53.615 292.406502,53.615 C294.291502,53.615 295.103502,54.717 295.103502,57.472 L295.103502,67.1 L298.438502,67.1 L298.438502,57.066 C298.438502,53.006 296.930502,50.744 293.537502,50.744 C291.362502,50.744 289.738502,51.933 288.259502,53.354 L288.172502,53.354 L287.911502,51.15 L285.185502,51.15 L285.185502,67.1 Z M313.155336,58.371 L314.025336,55.5 C314.721336,53.18 315.388336,50.831 315.997336,48.395 L316.113336,48.395 L316.90724,51.267624 C317.304656,52.69512 317.708336,54.108 318.143336,55.5 L318.984336,58.371 L313.155336,58.371 Z M321.594336,67.1 L325.161336,67.1 L318.085336,45.756 L314.199336,45.756 L307.123336,67.1 L310.545336,67.1 L312.372336,61.01 L319.796336,61.01 L321.594336,67.1 Z M332.592253,67.477 C336.536253,67.477 338.653253,65.302 338.653253,62.634 C338.653253,59.7041714 336.327098,58.69 334.147158,57.8634848 L333.164056,57.5012904 C331.745762,56.9724793 330.562253,56.4213077 330.562253,55.268 C330.562253,54.166 331.374253,53.296 333.114253,53.296 C334.448253,53.296 335.579253,53.876 336.681253,54.688 L338.247253,52.629 C336.942253,51.614 335.202253,50.744 333.056253,50.744 C329.547253,50.744 327.401253,52.745 327.401253,55.413 C327.401253,58.0282727 329.691854,59.1710165 331.760996,59.9782683 L332.9151,60.4259129 C334.298519,60.9841427 335.492253,61.6265185 335.492253,62.808 C335.492253,64.026 334.593253,64.954 332.679253,64.954 C330.968253,64.954 329.576253,64.258 328.155253,63.127 L326.589253,65.273 C328.126253,66.549 330.388253,67.477 332.592253,67.477 Z M342.11117,67.1 L345.41717,67.1 L345.41717,51.15 L342.11117,51.15 L342.11117,67.1 Z M343.76417,48.163 C344.98217,48.163 345.91017,47.351 345.91017,46.191 C345.91017,45.002 344.98217,44.219 343.76417,44.219 C342.54617,44.219 341.64717,45.002 341.64717,46.191 C341.64717,47.351 342.54617,48.163 343.76417,48.163 Z M354.124087,67.477 C356.038087,67.477 357.749087,66.52 359.199087,65.273 L359.286087,65.273 L359.576087,67.1 L362.302087,67.1 L362.302087,57.501 C362.302087,53.267 360.475087,50.744 356.502087,50.744 C353.950087,50.744 351.717087,51.788 350.064087,52.832 L351.311087,55.094 C352.674087,54.224 354.240087,53.47 355.922087,53.47 C358.271087,53.47 358.938087,55.094 358.967087,56.95 C352.326087,57.675 349.426087,59.444 349.426087,62.866 C349.426087,65.679 351.369087,67.477 354.124087,67.477 Z M355.139087,64.838 C353.718087,64.838 352.645087,64.2 352.645087,62.634 C352.645087,60.836 354.240087,59.647 358.967087,59.067 L358.967087,62.982 C357.662087,64.171 356.531087,64.838 355.139087,64.838 Z" id="ThelargestScalaconferenceinAsia" fill="#FFFFFF" fill-rule="nonzero"></path>
        <path d="M64.8591355,120 L73.6791355,120 L73.6791355,118.005 L70.6551355,118.005 L70.6551355,104.544 L68.8281355,104.544 C67.9461355,105.09 66.9171355,105.447 65.4681355,105.72 L65.4681355,107.253 L68.2401355,107.253 L68.2401355,118.005 L64.8591355,118.005 L64.8591355,120 Z M80.9055585,120 L83.3835585,120 L83.4230045,119.133377 C83.6981712,113.617399 84.379778,110.328732 87.8355585,106.014 L87.8355585,104.544 L77.8815585,104.544 L77.8815585,106.581 L85.1475585,106.581 C82.1655585,110.739 81.1785585,114.351 80.9055585,120 Z M96.3639815,120.273 C97.2039815,120.273 97.9809815,120.063 98.6319815,119.853 L98.1909815,118.068 C97.8549815,118.215 97.3509815,118.341 96.9519815,118.341 C95.7549815,118.341 95.2719815,117.627 95.2719815,116.241 L95.2719815,110.382 L98.2749815,110.382 L98.2749815,108.45 L95.2719815,108.45 L95.2719815,105.258 L93.2349815,105.258 L92.9619815,108.45 L91.1769815,108.576 L91.1769815,110.382 L92.8569815,110.382 L92.8569815,116.22 C92.8569815,118.656 93.7599815,120.273 96.3639815,120.273 Z M102.624404,120 L105.018404,120 L105.018404,111.81 C106.047404,110.781 106.782404,110.235 107.853404,110.235 C109.218404,110.235 109.806404,111.033 109.806404,113.028 L109.806404,120 L112.221404,120 L112.221404,112.734 C112.221404,109.794 111.129404,108.156 108.672404,108.156 C107.097404,108.156 105.942404,109.017 104.934404,109.983 L105.018404,107.694 L105.018404,103.263 L102.624404,103.263 L102.624404,120 Z M126.77925,120.273 C128.16525,120.273 129.40425,119.58 130.45425,118.677 L130.51725,118.677 L130.72725,120 L132.70125,120 L132.70125,113.049 C132.70125,109.983 131.37825,108.156 128.50125,108.156 C126.65325,108.156 125.03625,108.912 123.83925,109.668 L124.74225,111.306 C125.72925,110.676 126.86325,110.13 128.08125,110.13 C129.78225,110.13 130.26525,111.306 130.28625,112.65 C125.47725,113.175 123.37725,114.456 123.37725,116.934 C123.37725,118.971 124.78425,120.273 126.77925,120.273 Z M127.51425,118.362 C126.48525,118.362 125.70825,117.9 125.70825,116.766 C125.70825,115.464 126.86325,114.603 130.28625,114.183 L130.28625,117.018 C129.34125,117.879 128.52225,118.362 127.51425,118.362 Z M137.953673,120 L140.347673,120 L140.347673,111.81 C141.376673,110.781 142.111673,110.235 143.182673,110.235 C144.547673,110.235 145.135673,111.033 145.135673,113.028 L145.135673,120 L147.550673,120 L147.550673,112.734 C147.550673,109.794 146.458673,108.156 144.001673,108.156 C142.426673,108.156 141.250673,109.017 140.179673,110.046 L140.116673,110.046 L139.927673,108.45 L137.953673,108.45 L137.953673,120 Z M156.877096,120.273 C158.179096,120.273 159.376096,119.58 160.237096,118.698 L160.300096,118.698 L160.510096,120 L162.484096,120 L162.484096,103.263 L160.069096,103.263 L160.069096,107.547 L160.174096,109.458 C159.229096,108.66 158.389096,108.156 157.066096,108.156 C154.483096,108.156 152.110096,110.487 152.110096,114.246 C152.110096,118.068 153.979096,120.273 156.877096,120.273 Z M157.444096,118.278 C155.638096,118.278 154.609096,116.829 154.609096,114.204 C154.609096,111.705 155.911096,110.172 157.528096,110.172 C158.389096,110.172 159.208096,110.445 160.069096,111.222 L160.069096,116.871 C159.229096,117.837 158.410096,118.278 157.444096,118.278 Z M174.479942,120 L183.299942,120 L183.299942,118.005 L180.275942,118.005 L180.275942,104.544 L178.448942,104.544 C177.566942,105.09 176.537942,105.447 175.088942,105.72 L175.088942,107.253 L177.860942,107.253 L177.860942,118.005 L174.479942,118.005 L174.479942,120 Z M192.479365,120.273 C195.461365,120.273 197.477365,118.509 197.477365,116.22 C197.477365,114.12 196.259365,112.923 194.873365,112.125 L194.873365,112.02 C195.839365,111.306 196.910365,109.962 196.910365,108.387 C196.910365,105.972 195.230365,104.292 192.542365,104.292 C190.001365,104.292 188.132365,105.867 188.132365,108.282 C188.132365,109.92 189.056365,111.075 190.211365,111.894 L190.211365,111.999 C188.783365,112.755 187.439365,114.12 187.439365,116.157 C187.439365,118.551 189.581365,120.273 192.479365,120.273 Z M193.487365,111.411 L193.095009,111.253696 C191.54791,110.614118 190.295365,109.832769 190.295365,108.282 C190.295365,106.896 191.240365,106.035 192.500365,106.035 C194.012365,106.035 194.873365,107.106 194.873365,108.534 C194.873365,109.563 194.411365,110.55 193.487365,111.411 Z M192.521365,118.53 C190.862365,118.53 189.581365,117.459 189.581365,115.926 C189.581365,114.582 190.316365,113.427 191.387365,112.692 L192.024839,112.955952 C193.821093,113.713309 195.188365,114.462517 195.188365,116.157 C195.188365,117.606 194.096365,118.53 192.521365,118.53 Z M205.984788,120.273 C206.824788,120.273 207.601788,120.063 208.252788,119.853 L207.811788,118.068 C207.475788,118.215 206.971788,118.341 206.572788,118.341 C205.375788,118.341 204.892788,117.627 204.892788,116.241 L204.892788,110.382 L207.895788,110.382 L207.895788,108.45 L204.892788,108.45 L204.892788,105.258 L202.855788,105.258 L202.582788,108.45 L200.797788,108.576 L200.797788,110.382 L202.477788,110.382 L202.477788,116.22 C202.477788,118.656 203.380788,120.273 205.984788,120.273 Z M212.245211,120 L214.639211,120 L214.639211,111.81 C215.668211,110.781 216.403211,110.235 217.474211,110.235 C218.839211,110.235 219.427211,111.033 219.427211,113.028 L219.427211,120 L221.842211,120 L221.842211,112.734 C221.842211,109.794 220.750211,108.156 218.293211,108.156 C216.718211,108.156 215.563211,109.017 214.555211,109.983 L214.639211,107.694 L214.639211,103.263 L212.245211,103.263 L212.245211,120 Z M239.760057,120.273 C243.729057,120.273 246.501057,117.186 246.501057,112.209 C246.501057,107.232 243.729057,104.25 239.760057,104.25 C235.791057,104.25 233.040057,107.232 233.040057,112.209 C233.040057,117.186 235.791057,120.273 239.760057,120.273 Z M239.760057,118.152 C237.198057,118.152 235.539057,115.842 235.539057,112.209 C235.539057,108.576 237.198057,106.371 239.760057,106.371 C242.322057,106.371 244.002057,108.576 244.002057,112.209 C244.002057,115.842 242.322057,118.152 239.760057,118.152 Z M256.03748,120.273 C257.36048,120.273 258.72548,119.79 259.77548,118.845 L258.78848,117.249 C258.09548,117.837 257.23448,118.299 256.26848,118.299 C254.33648,118.299 253.01348,116.682 253.01348,114.246 C253.01348,111.789 254.39948,110.151 256.33148,110.151 C257.12948,110.151 257.78048,110.487 258.41048,111.054 L259.60748,109.479 C258.76748,108.744 257.69648,108.156 256.22648,108.156 C253.18148,108.156 250.51448,110.382 250.51448,114.246 C250.51448,118.068 252.90848,120.273 256.03748,120.273 Z M267.673903,120.273 C268.513903,120.273 269.290903,120.063 269.941903,119.853 L269.500903,118.068 C269.164903,118.215 268.660903,118.341 268.261903,118.341 C267.064903,118.341 266.581903,117.627 266.581903,116.241 L266.581903,110.382 L269.584903,110.382 L269.584903,108.45 L266.581903,108.45 L266.581903,105.258 L264.544903,105.258 L264.271903,108.45 L262.486903,108.576 L262.486903,110.382 L264.166903,110.382 L264.166903,116.22 C264.166903,118.656 265.069903,120.273 267.673903,120.273 Z M275.236326,120.273 C276.139326,120.273 276.853326,119.58 276.853326,118.593 C276.853326,117.606 276.139326,116.871 275.236326,116.871 C274.333326,116.871 273.619326,117.606 273.619326,118.593 C273.619326,119.58 274.333326,120.273 275.236326,120.273 Z M287.673172,120 L297.648172,120 L297.648172,117.942 L293.784172,117.942 C293.028172,117.942 292.062172,118.005 291.264172,118.089 L291.849531,117.520568 C294.819093,114.586204 296.913172,111.692273 296.913172,108.891 C296.913172,106.098 295.086172,104.25 292.251172,104.25 C290.235172,104.25 288.870172,105.132 287.547172,106.56 L288.912172,107.904 C289.731172,106.959 290.739172,106.182 291.957172,106.182 C293.679172,106.182 294.582172,107.337 294.582172,109.017 C294.582172,111.558 292.230172,114.561 287.673172,118.593 L287.673172,120 Z M306.533595,120.273 C309.557595,120.273 311.531595,117.585 311.531595,112.209 C311.531595,106.875 309.557595,104.25 306.533595,104.25 C303.488595,104.25 301.535595,106.854 301.535595,112.209 C301.535595,117.585 303.488595,120.273 306.533595,120.273 Z M306.533595,118.362 C304.958595,118.362 303.845595,116.682 303.845595,112.209 C303.845595,107.778 304.958595,106.161 306.533595,106.161 C308.108595,106.161 309.221595,107.778 309.221595,112.209 C309.221595,116.682 308.108595,118.362 306.533595,118.362 Z M315.272018,120 L325.247018,120 L325.247018,117.942 L321.383018,117.942 C320.627018,117.942 319.661018,118.005 318.863018,118.089 L319.448377,117.520568 C322.417939,114.586204 324.512018,111.692273 324.512018,108.891 C324.512018,106.098 322.685018,104.25 319.850018,104.25 C317.834018,104.25 316.469018,105.132 315.146018,106.56 L316.511018,107.904 C317.330018,106.959 318.338018,106.182 319.556018,106.182 C321.278018,106.182 322.181018,107.337 322.181018,109.017 C322.181018,111.558 319.829018,114.561 315.272018,118.593 L315.272018,120 Z M334.132441,120.273 C337.156441,120.273 339.130441,117.585 339.130441,112.209 C339.130441,106.875 337.156441,104.25 334.132441,104.25 C331.087441,104.25 329.134441,106.854 329.134441,112.209 C329.134441,117.585 331.087441,120.273 334.132441,120.273 Z M334.132441,118.362 C332.557441,118.362 331.444441,116.682 331.444441,112.209 C331.444441,107.778 332.557441,106.161 334.132441,106.161 C335.707441,106.161 336.820441,107.778 336.820441,112.209 C336.820441,116.682 335.707441,118.362 334.132441,118.362 Z" id="17thand18thOct.2020" fill="#FFFFFF" fill-rule="nonzero"></path>
    </g>
</svg>