<?xml version="1.0" encoding="UTF-8"?>
<svg width="791px" height="108px" viewBox="0 0 791 108" version="1.1" xmlns="http://www.w3.org/2000/svg" xmlns:xlink="http://www.w3.org/1999/xlink">
    <!-- Generator: Sketch 59.1 (86144) - https://sketch.com -->
    <title>en-PC</title>
    <desc>Created with Sketch.</desc>
    <g id="en-PC" stroke="none" stroke-width="1" fill="none" fill-rule="evenodd">
        <path d="M13.386,54 L17.794,54 L17.794,29.718 L26.04,29.718 L26.04,26.032 L5.178,26.032 L5.178,29.718 L13.386,29.718 L13.386,54 Z M34.554956,54 L38.886956,54 L38.886956,39.18 C40.748956,37.318 42.078956,36.33 44.016956,36.33 C46.486956,36.33 47.550956,37.774 47.550956,41.384 L47.550956,54 L51.920956,54 L51.920956,40.852 C51.920956,35.532 49.944956,32.568 45.498956,32.568 C42.648956,32.568 40.558956,34.126 38.734956,35.874 L38.886956,31.732 L38.886956,23.714 L34.554956,23.714 L34.554956,54 Z M70.923912,54.494 C73.659912,54.494 76.053912,53.582 77.991912,52.29 L76.471912,49.516 C74.951912,50.504 73.355912,51.074 71.493912,51.074 C67.883912,51.074 65.375912,48.68 65.033912,44.69 L78.599912,44.69 C78.713912,44.196 78.789912,43.322 78.789912,42.486 C78.789912,36.558 75.825912,32.568 70.277912,32.568 C65.375912,32.568 60.739912,36.786 60.739912,43.588 C60.739912,50.466 65.261912,54.494 70.923912,54.494 Z M64.995912,41.688 C65.413912,38.002 67.731912,35.988 70.353912,35.988 C73.393912,35.988 75.027912,38.078 75.027912,41.688 L64.995912,41.688 Z M104.711824,54.494 C105.775824,54.494 106.535824,54.342 107.067824,54.152 L106.497824,50.846 C106.117824,50.922 105.965824,50.922 105.775824,50.922 C105.243824,50.922 104.711824,50.504 104.711824,49.326 L104.711824,23.714 L100.379824,23.714 L100.379824,49.098 C100.379824,52.48 101.557824,54.494 104.711824,54.494 Z M120.71278,54.494 C123.22078,54.494 125.46278,53.24 127.36278,51.606 L127.47678,51.606 L127.85678,54 L131.42878,54 L131.42878,41.422 C131.42878,35.874 129.03478,32.568 123.82878,32.568 C120.48478,32.568 117.55878,33.936 115.39278,35.304 L117.02678,38.268 C118.81278,37.128 120.86478,36.14 123.06878,36.14 C126.14678,36.14 127.02078,38.268 127.05878,40.7 C118.35678,41.65 114.55678,43.968 114.55678,48.452 C114.55678,52.138 117.10278,54.494 120.71278,54.494 Z M122.04278,51.036 C120.18078,51.036 118.77478,50.2 118.77478,48.148 C118.77478,45.792 120.86478,44.234 127.05878,43.474 L127.05878,48.604 C125.34878,50.162 123.86678,51.036 122.04278,51.036 Z M141.691736,54 L146.023736,54 L146.023736,40.966 C147.353736,37.66 149.405736,36.482 151.115736,36.482 C151.951736,36.482 152.483736,36.596 153.205736,36.824 L154.003736,33.024 C153.357736,32.72 152.673736,32.568 151.647736,32.568 C149.405736,32.568 147.201736,34.164 145.719736,36.862 L145.605736,36.862 L145.263736,33.1 L141.691736,33.1 L141.691736,54 Z M168.028692,63.386 C174.716692,63.386 178.972692,60.118 178.972692,56.09 C178.972692,52.518 176.388692,50.998 171.448692,50.998 L167.610692,50.998 C164.950692,50.998 164.114692,50.2 164.114692,48.946 C164.114692,47.958 164.570692,47.35 165.254692,46.742 C166.166692,47.16 167.230692,47.388 168.180692,47.388 C172.550692,47.388 176.008692,44.766 176.008692,40.206 C176.008692,38.61 175.438692,37.204 174.640692,36.368 L178.630692,36.368 L178.630692,33.1 L171.220692,33.1 C170.422692,32.796 169.358692,32.568 168.180692,32.568 C163.848692,32.568 160.086692,35.342 160.086692,40.092 C160.086692,42.562 161.416692,44.538 162.822692,45.64 L162.822692,45.792 C161.682692,46.628 160.504692,48.034 160.504692,49.668 C160.504692,51.378 161.340692,52.48 162.404692,53.126 L162.404692,53.316 C160.466692,54.494 159.364692,56.128 159.364692,57.876 C159.364692,61.524 163.012692,63.386 168.028692,63.386 Z M168.180692,44.576 C166.014692,44.576 164.228692,42.866 164.228692,40.092 C164.228692,37.242 165.976692,35.646 168.180692,35.646 C170.384692,35.646 172.132692,37.28 172.132692,40.092 C172.132692,42.866 170.346692,44.576 168.180692,44.576 Z M168.674692,60.498 C165.216692,60.498 163.088692,59.282 163.088692,57.23 C163.088692,56.166 163.620692,55.102 164.874692,54.19 C165.748692,54.38 166.698692,54.494 167.686692,54.494 L170.840692,54.494 C173.386692,54.494 174.754692,55.026 174.754692,56.774 C174.754692,58.712 172.322692,60.498 168.674692,60.498 Z M194.973648,54.494 C197.709648,54.494 200.103648,53.582 202.041648,52.29 L200.521648,49.516 C199.001648,50.504 197.405648,51.074 195.543648,51.074 C191.933648,51.074 189.425648,48.68 189.083648,44.69 L202.649648,44.69 C202.763648,44.196 202.839648,43.322 202.839648,42.486 C202.839648,36.558 199.875648,32.568 194.327648,32.568 C189.425648,32.568 184.789648,36.786 184.789648,43.588 C184.789648,50.466 189.311648,54.494 194.973648,54.494 Z M189.045648,41.688 C189.463648,38.002 191.781648,35.988 194.403648,35.988 C197.443648,35.988 199.077648,38.078 199.077648,41.688 L189.045648,41.688 Z M217.472604,54.494 C222.640604,54.494 225.414604,51.644 225.414604,48.148 C225.414604,44.4654545 222.610043,43.0925475 219.860224,42.0308418 L219.258604,41.802 C216.978604,40.966 214.812604,40.282 214.812604,38.496 C214.812604,37.052 215.876604,35.912 218.156604,35.912 C219.904604,35.912 221.386604,36.672 222.830604,37.736 L224.882604,35.038 C223.172604,33.708 220.892604,32.568 218.080604,32.568 C213.482604,32.568 210.670604,35.19 210.670604,38.686 C210.670604,42.0433 213.551384,43.54867 216.21782,44.6030608 L217.517756,45.104792 C219.485378,45.8734568 221.272604,46.7211613 221.272604,48.376 C221.272604,49.972 220.094604,51.188 217.586604,51.188 C215.344604,51.188 213.520604,50.276 211.658604,48.794 L209.606604,51.606 C211.620604,53.278 214.584604,54.494 217.472604,54.494 Z M240.31356,54.494 C241.83356,54.494 243.23956,54.114 244.41756,53.734 L243.61956,50.504 C243.01156,50.77 242.09956,50.998 241.37756,50.998 C239.21156,50.998 238.33756,49.706 238.33756,47.198 L238.33756,36.596 L243.77156,36.596 L243.77156,33.1 L238.33756,33.1 L238.33756,27.324 L234.65156,27.324 L234.15756,33.1 L230.92756,33.328 L230.92756,36.596 L233.96756,36.596 L233.96756,47.16 C233.96756,51.568 235.60156,54.494 240.31356,54.494 Z M273.379472,54.494 C279.497472,54.494 283.221472,50.846 283.221472,46.362 C283.221472,42.3606 280.945676,40.3098825 277.767689,38.9066832 L273.683472,37.166 L272.834558,36.8211055 C270.878003,36.0028438 269.161472,35.04275 269.161472,32.948 C269.161472,30.706 271.023472,29.338 273.873472,29.338 C276.343472,29.338 278.281472,30.288 280.029472,31.846 L282.347472,29.034 C280.219472,26.868 277.141472,25.5 273.873472,25.5 C268.553472,25.5 264.677472,28.806 264.677472,33.214 C264.677472,37.28 267.679472,39.408 270.377472,40.548 L274.253472,42.22 C276.837472,43.36 278.737472,44.158 278.737472,46.704 C278.737472,49.06 276.837472,50.656 273.455472,50.656 C270.757472,50.656 268.021472,49.364 266.007472,47.35 L263.423472,50.39 C265.969472,52.974 269.541472,54.494 273.379472,54.494 Z M300.704428,54.494 C303.098428,54.494 305.568428,53.62 307.468428,51.91 L305.682428,49.022 C304.428428,50.086 302.870428,50.922 301.122428,50.922 C297.626428,50.922 295.232428,47.996 295.232428,43.588 C295.232428,39.142 297.740428,36.178 301.236428,36.178 C302.680428,36.178 303.858428,36.786 304.998428,37.812 L307.164428,34.962 C305.644428,33.632 303.706428,32.568 301.046428,32.568 C295.536428,32.568 290.710428,36.596 290.710428,43.588 C290.710428,50.504 295.042428,54.494 300.704428,54.494 Z M320.429384,54.494 C322.937384,54.494 325.179384,53.24 327.079384,51.606 L327.193384,51.606 L327.573384,54 L331.145384,54 L331.145384,41.422 C331.145384,35.874 328.751384,32.568 323.545384,32.568 C320.201384,32.568 317.275384,33.936 315.109384,35.304 L316.743384,38.268 C318.529384,37.128 320.581384,36.14 322.785384,36.14 C325.863384,36.14 326.737384,38.268 326.775384,40.7 C318.073384,41.65 314.273384,43.968 314.273384,48.452 C314.273384,52.138 316.819384,54.494 320.429384,54.494 Z M321.759384,51.036 C319.897384,51.036 318.491384,50.2 318.491384,48.148 C318.491384,45.792 320.581384,44.234 326.775384,43.474 L326.775384,48.604 C325.065384,50.162 323.583384,51.036 321.759384,51.036 Z M345.74034,54.494 C346.80434,54.494 347.56434,54.342 348.09634,54.152 L347.52634,50.846 C347.14634,50.922 346.99434,50.922 346.80434,50.922 C346.27234,50.922 345.74034,50.504 345.74034,49.326 L345.74034,23.714 L341.40834,23.714 L341.40834,49.098 C341.40834,52.48 342.58634,54.494 345.74034,54.494 Z M361.741296,54.494 C364.249296,54.494 366.491296,53.24 368.391296,51.606 L368.505296,51.606 L368.885296,54 L372.457296,54 L372.457296,41.422 C372.457296,35.874 370.063296,32.568 364.857296,32.568 C361.513296,32.568 358.587296,33.936 356.421296,35.304 L358.055296,38.268 C359.841296,37.128 361.893296,36.14 364.097296,36.14 C367.175296,36.14 368.049296,38.268 368.087296,40.7 C359.385296,41.65 355.585296,43.968 355.585296,48.452 C355.585296,52.138 358.131296,54.494 361.741296,54.494 Z M363.071296,51.036 C361.209296,51.036 359.803296,50.2 359.803296,48.148 C359.803296,45.792 361.893296,44.234 368.087296,43.474 L368.087296,48.604 C366.377296,50.162 364.895296,51.036 363.071296,51.036 Z M403.851208,54.494 C406.245208,54.494 408.715208,53.62 410.615208,51.91 L408.829208,49.022 C407.575208,50.086 406.017208,50.922 404.269208,50.922 C400.773208,50.922 398.379208,47.996 398.379208,43.588 C398.379208,39.142 400.887208,36.178 404.383208,36.178 C405.827208,36.178 407.005208,36.786 408.145208,37.812 L410.311208,34.962 C408.791208,33.632 406.853208,32.568 404.193208,32.568 C398.683208,32.568 393.857208,36.596 393.857208,43.588 C393.857208,50.504 398.189208,54.494 403.851208,54.494 Z M426.426164,54.494 C431.594164,54.494 436.268164,50.504 436.268164,43.588 C436.268164,36.596 431.594164,32.568 426.426164,32.568 C421.258164,32.568 416.584164,36.596 416.584164,43.588 C416.584164,50.504 421.258164,54.494 426.426164,54.494 Z M426.426164,50.922 C423.158164,50.922 421.106164,47.996 421.106164,43.588 C421.106164,39.142 423.158164,36.178 426.426164,36.178 C429.732164,36.178 431.784164,39.142 431.784164,43.588 C431.784164,47.996 429.732164,50.922 426.426164,50.922 Z M445.46712,54 L449.79912,54 L449.79912,39.18 C451.66112,37.318 452.99112,36.33 454.92912,36.33 C457.39912,36.33 458.46312,37.774 458.46312,41.384 L458.46312,54 L462.83312,54 L462.83312,40.852 C462.83312,35.532 460.85712,32.568 456.41112,32.568 C453.56112,32.568 451.43312,34.126 449.49512,35.988 L449.38112,35.988 L449.03912,33.1 L445.46712,33.1 L445.46712,54 Z M484.268076,23.942 C483.318076,23.524 481.988076,23.22 480.582076,23.22 C475.908076,23.22 473.970076,26.184 473.970076,30.478 L473.970076,33.1 L471.120076,33.328 L471.120076,36.596 L473.970076,36.596 L473.970076,54 L478.340076,54 L478.340076,36.596 L482.558076,36.596 L482.558076,33.1 L478.340076,33.1 L478.340076,30.44 C478.340076,27.894 479.252076,26.678 481.114076,26.678 C481.836076,26.678 482.634076,26.868 483.394076,27.21 L484.268076,23.942 Z M498.711032,54.494 C501.447032,54.494 503.841032,53.582 505.779032,52.29 L504.259032,49.516 C502.739032,50.504 501.143032,51.074 499.281032,51.074 C495.671032,51.074 493.163032,48.68 492.821032,44.69 L506.387032,44.69 C506.501032,44.196 506.577032,43.322 506.577032,42.486 C506.577032,36.558 503.613032,32.568 498.065032,32.568 C493.163032,32.568 488.527032,36.786 488.527032,43.588 C488.527032,50.466 493.049032,54.494 498.711032,54.494 Z M492.783032,41.688 C493.201032,38.002 495.519032,35.988 498.141032,35.988 C501.181032,35.988 502.815032,38.078 502.815032,41.688 L492.783032,41.688 Z M515.547988,54 L519.879988,54 L519.879988,40.966 C521.209988,37.66 523.261988,36.482 524.971988,36.482 C525.807988,36.482 526.339988,36.596 527.061988,36.824 L527.859988,33.024 C527.213988,32.72 526.529988,32.568 525.503988,32.568 C523.261988,32.568 521.057988,34.164 519.575988,36.862 L519.461988,36.862 L519.119988,33.1 L515.547988,33.1 L515.547988,54 Z M543.442944,54.494 C546.178944,54.494 548.572944,53.582 550.510944,52.29 L548.990944,49.516 C547.470944,50.504 545.874944,51.074 544.012944,51.074 C540.402944,51.074 537.894944,48.68 537.552944,44.69 L551.118944,44.69 C551.232944,44.196 551.308944,43.322 551.308944,42.486 C551.308944,36.558 548.344944,32.568 542.796944,32.568 C537.894944,32.568 533.258944,36.786 533.258944,43.588 C533.258944,50.466 537.780944,54.494 543.442944,54.494 Z M537.514944,41.688 C537.932944,38.002 540.250944,35.988 542.872944,35.988 C545.912944,35.988 547.546944,38.078 547.546944,41.688 L537.514944,41.688 Z M560.2799,54 L564.6119,54 L564.6119,39.18 C566.4739,37.318 567.8039,36.33 569.7419,36.33 C572.2119,36.33 573.2759,37.774 573.2759,41.384 L573.2759,54 L577.6459,54 L577.6459,40.852 C577.6459,35.532 575.6699,32.568 571.2239,32.568 C568.3739,32.568 566.2459,34.126 564.3079,35.988 L564.1939,35.988 L563.8519,33.1 L560.2799,33.1 L560.2799,54 Z M596.572856,54.494 C598.966856,54.494 601.436856,53.62 603.336856,51.91 L601.550856,49.022 C600.296856,50.086 598.738856,50.922 596.990856,50.922 C593.494856,50.922 591.100856,47.996 591.100856,43.588 C591.100856,39.142 593.608856,36.178 597.104856,36.178 C598.548856,36.178 599.726856,36.786 600.866856,37.812 L603.032856,34.962 C601.512856,33.632 599.574856,32.568 596.914856,32.568 C591.404856,32.568 586.578856,36.596 586.578856,43.588 C586.578856,50.504 590.910856,54.494 596.572856,54.494 Z M619.489812,54.494 C622.225812,54.494 624.619812,53.582 626.557812,52.29 L625.037812,49.516 C623.517812,50.504 621.921812,51.074 620.059812,51.074 C616.449812,51.074 613.941812,48.68 613.599812,44.69 L627.165812,44.69 C627.279812,44.196 627.355812,43.322 627.355812,42.486 C627.355812,36.558 624.391812,32.568 618.843812,32.568 C613.941812,32.568 609.305812,36.786 609.305812,43.588 C609.305812,50.466 613.827812,54.494 619.489812,54.494 Z M613.561812,41.688 C613.979812,38.002 616.297812,35.988 618.919812,35.988 C621.959812,35.988 623.593812,38.078 623.593812,41.688 L613.561812,41.688 Z M648.945724,54 L653.277724,54 L653.277724,33.1 L648.945724,33.1 L648.945724,54 Z M651.111724,29.186 C652.707724,29.186 653.923724,28.122 653.923724,26.602 C653.923724,25.044 652.707724,24.018 651.111724,24.018 C649.515724,24.018 648.337724,25.044 648.337724,26.602 C648.337724,28.122 649.515724,29.186 651.111724,29.186 Z M663.92068,54 L668.25268,54 L668.25268,39.18 C670.11468,37.318 671.44468,36.33 673.38268,36.33 C675.85268,36.33 676.91668,37.774 676.91668,41.384 L676.91668,54 L681.28668,54 L681.28668,40.852 C681.28668,35.532 679.31068,32.568 674.86468,32.568 C672.01468,32.568 669.88668,34.126 667.94868,35.988 L667.83468,35.988 L667.49268,33.1 L663.92068,33.1 L663.92068,54 Z M708.918592,42.562 L710.058592,38.8 C710.970592,35.76 711.844592,32.682 712.642592,29.49 L712.794592,29.49 L713.661555,32.6299259 C714.238592,34.7128889 714.821259,36.7733333 715.454592,38.8 L716.556592,42.562 L708.918592,42.562 Z M719.976592,54 L724.650592,54 L715.378592,26.032 L710.286592,26.032 L701.014592,54 L705.498592,54 L707.892592,46.02 L717.620592,46.02 L719.976592,54 Z M738.561548,54.494 C743.729548,54.494 746.503548,51.644 746.503548,48.148 C746.503548,44.4654545 743.698987,43.0925475 740.949168,42.0308418 L740.347548,41.802 C738.067548,40.966 735.901548,40.282 735.901548,38.496 C735.901548,37.052 736.965548,35.912 739.245548,35.912 C740.993548,35.912 742.475548,36.672 743.919548,37.736 L745.971548,35.038 C744.261548,33.708 741.981548,32.568 739.169548,32.568 C734.571548,32.568 731.759548,35.19 731.759548,38.686 C731.759548,42.0433 734.640328,43.54867 737.306764,44.6030608 L738.6067,45.104792 C740.574322,45.8734568 742.361548,46.7211613 742.361548,48.376 C742.361548,49.972 741.183548,51.188 738.675548,51.188 C736.433548,51.188 734.609548,50.276 732.747548,48.794 L730.695548,51.606 C732.709548,53.278 735.673548,54.494 738.561548,54.494 Z M755.208504,54 L759.540504,54 L759.540504,33.1 L755.208504,33.1 L755.208504,54 Z M757.374504,29.186 C758.970504,29.186 760.186504,28.122 760.186504,26.602 C760.186504,25.044 758.970504,24.018 757.374504,24.018 C755.778504,24.018 754.600504,25.044 754.600504,26.602 C754.600504,28.122 755.778504,29.186 757.374504,29.186 Z M775.12346,54.494 C777.63146,54.494 779.87346,53.24 781.77346,51.606 L781.88746,51.606 L782.26746,54 L785.83946,54 L785.83946,41.422 C785.83946,35.874 783.44546,32.568 778.23946,32.568 C774.89546,32.568 771.96946,33.936 769.80346,35.304 L771.43746,38.268 C773.22346,37.128 775.27546,36.14 777.47946,36.14 C780.55746,36.14 781.43146,38.268 781.46946,40.7 C772.76746,41.65 768.96746,43.968 768.96746,48.452 C768.96746,52.138 771.51346,54.494 775.12346,54.494 Z M776.45346,51.036 C774.59146,51.036 773.18546,50.2 773.18546,48.148 C773.18546,45.792 775.27546,44.234 781.46946,43.474 L781.46946,48.604 C779.75946,50.162 778.27746,51.036 776.45346,51.036 Z" id="ThelargestScalaconferenceinAsia" fill="#FFFFFF" fill-rule="nonzero"></path>
        <path d="M254.72,96 L263.12,96 L263.12,94.1 L260.24,94.1 L260.24,81.28 L258.5,81.28 C257.66,81.8 256.68,82.14 255.3,82.4 L255.3,83.86 L257.94,83.86 L257.94,94.1 L254.72,94.1 L254.72,96 Z M270.85945,96 L273.21945,96 L273.259093,95.1332423 C273.522514,89.9048521 274.176886,86.7784615 277.45945,82.68 L277.45945,81.28 L267.97945,81.28 L267.97945,83.22 L274.89945,83.22 C272.05945,87.18 271.11945,90.62 270.85945,96 Z M286.4389,96.26 C287.2389,96.26 287.9789,96.06 288.5989,95.86 L288.1789,94.16 C287.8589,94.3 287.3789,94.42 286.9989,94.42 C285.8589,94.42 285.3989,93.74 285.3989,92.42 L285.3989,86.84 L288.2589,86.84 L288.2589,85 L285.3989,85 L285.3989,81.96 L283.4589,81.96 L283.1989,85 L281.4989,85.12 L281.4989,86.84 L283.0989,86.84 L283.0989,92.4 C283.0989,94.72 283.9589,96.26 286.4389,96.26 Z M293.25835,96 L295.53835,96 L295.53835,88.2 C296.51835,87.22 297.21835,86.7 298.23835,86.7 C299.53835,86.7 300.09835,87.46 300.09835,89.36 L300.09835,96 L302.39835,96 L302.39835,89.08 C302.39835,86.28 301.35835,84.72 299.01835,84.72 C297.51835,84.72 296.41835,85.54 295.45835,86.46 L295.53835,84.28 L295.53835,80.06 L293.25835,80.06 L293.25835,96 Z M317.97725,96.26 C319.29725,96.26 320.47725,95.6 321.47725,94.74 L321.53725,94.74 L321.73725,96 L323.61725,96 L323.61725,89.38 C323.61725,86.46 322.35725,84.72 319.61725,84.72 C317.85725,84.72 316.31725,85.44 315.17725,86.16 L316.03725,87.72 C316.97725,87.12 318.05725,86.6 319.21725,86.6 C320.83725,86.6 321.29725,87.72 321.31725,89 C316.73725,89.5 314.73725,90.72 314.73725,93.08 C314.73725,95.02 316.07725,96.26 317.97725,96.26 Z M318.67725,94.44 C317.69725,94.44 316.95725,94 316.95725,92.92 C316.95725,91.68 318.05725,90.86 321.31725,90.46 L321.31725,93.16 C320.41725,93.98 319.63725,94.44 318.67725,94.44 Z M329.4767,96 L331.7567,96 L331.7567,88.2 C332.7367,87.22 333.4367,86.7 334.4567,86.7 C335.7567,86.7 336.3167,87.46 336.3167,89.36 L336.3167,96 L338.6167,96 L338.6167,89.08 C338.6167,86.28 337.5767,84.72 335.2367,84.72 C333.7367,84.72 332.6167,85.54 331.5967,86.52 L331.5367,86.52 L331.3567,85 L329.4767,85 L329.4767,96 Z M348.35615,96.26 C349.59615,96.26 350.73615,95.6 351.55615,94.76 L351.61615,94.76 L351.81615,96 L353.69615,96 L353.69615,80.06 L351.39615,80.06 L351.39615,84.14 L351.49615,85.96 C350.59615,85.2 349.79615,84.72 348.53615,84.72 C346.07615,84.72 343.81615,86.94 343.81615,90.52 C343.81615,94.16 345.59615,96.26 348.35615,96.26 Z M348.89615,94.36 C347.17615,94.36 346.19615,92.98 346.19615,90.48 C346.19615,88.1 347.43615,86.64 348.97615,86.64 C349.79615,86.64 350.57615,86.9 351.39615,87.64 L351.39615,93.02 C350.59615,93.94 349.81615,94.36 348.89615,94.36 Z M366.83505,96 L375.23505,96 L375.23505,94.1 L372.35505,94.1 L372.35505,81.28 L370.61505,81.28 C369.77505,81.8 368.79505,82.14 367.41505,82.4 L367.41505,83.86 L370.05505,83.86 L370.05505,94.1 L366.83505,94.1 L366.83505,96 Z M384.8345,96.26 C387.6745,96.26 389.5945,94.58 389.5945,92.4 C389.5945,90.4 388.4345,89.26 387.1145,88.5 L387.1145,88.4 C388.0345,87.72 389.0545,86.44 389.0545,84.94 C389.0545,82.64 387.4545,81.04 384.8945,81.04 C382.4745,81.04 380.6945,82.54 380.6945,84.84 C380.6945,86.4 381.5745,87.5 382.6745,88.28 L382.6745,88.38 C381.3145,89.1 380.0345,90.4 380.0345,92.34 C380.0345,94.62 382.0745,96.26 384.8345,96.26 Z M385.7945,87.82 L385.406102,87.6640909 C383.93946,87.056096 382.7545,86.312 382.7545,84.84 C382.7545,83.52 383.6545,82.7 384.8545,82.7 C386.2945,82.7 387.1145,83.72 387.1145,85.08 C387.1145,86.06 386.6745,87 385.7945,87.82 Z M384.8745,94.6 C383.2945,94.6 382.0745,93.58 382.0745,92.12 C382.0745,90.84 382.7745,89.74 383.7945,89.04 L384.422745,89.3002997 C386.123046,90.0185714 387.4145,90.7328571 387.4145,92.34 C387.4145,93.72 386.3745,94.6 384.8745,94.6 Z M398.55395,96.26 C399.35395,96.26 400.09395,96.06 400.71395,95.86 L400.29395,94.16 C399.97395,94.3 399.49395,94.42 399.11395,94.42 C397.97395,94.42 397.51395,93.74 397.51395,92.42 L397.51395,86.84 L400.37395,86.84 L400.37395,85 L397.51395,85 L397.51395,81.96 L395.57395,81.96 L395.31395,85 L393.61395,85.12 L393.61395,86.84 L395.21395,86.84 L395.21395,92.4 C395.21395,94.72 396.07395,96.26 398.55395,96.26 Z M405.3734,96 L407.6534,96 L407.6534,88.2 C408.6334,87.22 409.3334,86.7 410.3534,86.7 C411.6534,86.7 412.2134,87.46 412.2134,89.36 L412.2134,96 L414.5134,96 L414.5134,89.08 C414.5134,86.28 413.4734,84.72 411.1334,84.72 C409.6334,84.72 408.5334,85.54 407.5734,86.46 L407.6534,84.28 L407.6534,80.06 L405.3734,80.06 L405.3734,96 Z M433.2923,96.26 C437.0723,96.26 439.7123,93.32 439.7123,88.58 C439.7123,83.84 437.0723,81 433.2923,81 C429.5123,81 426.8923,83.84 426.8923,88.58 C426.8923,93.32 429.5123,96.26 433.2923,96.26 Z M433.2923,94.24 C430.8523,94.24 429.2723,92.04 429.2723,88.58 C429.2723,85.12 430.8523,83.02 433.2923,83.02 C435.7323,83.02 437.3323,85.12 437.3323,88.58 C437.3323,92.04 435.7323,94.24 433.2923,94.24 Z M449.65175,96.26 C450.91175,96.26 452.21175,95.8 453.21175,94.9 L452.27175,93.38 C451.61175,93.94 450.79175,94.38 449.87175,94.38 C448.03175,94.38 446.77175,92.84 446.77175,90.52 C446.77175,88.18 448.09175,86.62 449.93175,86.62 C450.69175,86.62 451.31175,86.94 451.91175,87.48 L453.05175,85.98 C452.25175,85.28 451.23175,84.72 449.83175,84.72 C446.93175,84.72 444.39175,86.84 444.39175,90.52 C444.39175,94.16 446.67175,96.26 449.65175,96.26 Z M461.5912,96.26 C462.3912,96.26 463.1312,96.06 463.7512,95.86 L463.3312,94.16 C463.0112,94.3 462.5312,94.42 462.1512,94.42 C461.0112,94.42 460.5512,93.74 460.5512,92.42 L460.5512,86.84 L463.4112,86.84 L463.4112,85 L460.5512,85 L460.5512,81.96 L458.6112,81.96 L458.3512,85 L456.6512,85.12 L456.6512,86.84 L458.2512,86.84 L458.2512,92.4 C458.2512,94.72 459.1112,96.26 461.5912,96.26 Z M469.65065,96.26 C470.51065,96.26 471.19065,95.6 471.19065,94.66 C471.19065,93.72 470.51065,93.02 469.65065,93.02 C468.79065,93.02 468.11065,93.72 468.11065,94.66 C468.11065,95.6 468.79065,96.26 469.65065,96.26 Z M483.20955,96 L492.70955,96 L492.70955,94.04 L489.02955,94.04 C488.30955,94.04 487.38955,94.1 486.62955,94.18 L487.20413,93.6217334 C490.023222,90.8328906 492.00955,88.0825 492.00955,85.42 C492.00955,82.76 490.26955,81 487.56955,81 C485.64955,81 484.34955,81.84 483.08955,83.2 L484.38955,84.48 C485.16955,83.58 486.12955,82.84 487.28955,82.84 C488.92955,82.84 489.78955,83.94 489.78955,85.54 C489.78955,87.96 487.54955,90.82 483.20955,94.66 L483.20955,96 Z M502.029,96.26 C504.909,96.26 506.789,93.7 506.789,88.58 C506.789,83.5 504.909,81 502.029,81 C499.129,81 497.269,83.48 497.269,88.58 C497.269,93.7 499.129,96.26 502.029,96.26 Z M502.029,94.44 C500.529,94.44 499.469,92.84 499.469,88.58 C499.469,84.36 500.529,82.82 502.029,82.82 C503.529,82.82 504.589,84.36 504.589,88.58 C504.589,92.84 503.529,94.44 502.029,94.44 Z M511.20845,96 L520.70845,96 L520.70845,94.04 L517.02845,94.04 C516.30845,94.04 515.38845,94.1 514.62845,94.18 L515.20303,93.6217334 C518.022122,90.8328906 520.00845,88.0825 520.00845,85.42 C520.00845,82.76 518.26845,81 515.56845,81 C513.64845,81 512.34845,81.84 511.08845,83.2 L512.38845,84.48 C513.16845,83.58 514.12845,82.84 515.28845,82.84 C516.92845,82.84 517.78845,83.94 517.78845,85.54 C517.78845,87.96 515.54845,90.82 511.20845,94.66 L511.20845,96 Z M530.0279,96.26 C532.9079,96.26 534.7879,93.7 534.7879,88.58 C534.7879,83.5 532.9079,81 530.0279,81 C527.1279,81 525.2679,83.48 525.2679,88.58 C525.2679,93.7 527.1279,96.26 530.0279,96.26 Z M530.0279,94.44 C528.5279,94.44 527.4679,92.84 527.4679,88.58 C527.4679,84.36 528.5279,82.82 530.0279,82.82 C531.5279,82.82 532.5879,84.36 532.5879,88.58 C532.5879,92.84 531.5279,94.44 530.0279,94.44 Z" id="17thand18thOct.2020" fill="#FFFFFF" fill-rule="nonzero"></path>
    </g>
</svg>