<?xml version="1.0" encoding="UTF-8"?>
<svg width="791px" height="108px" viewBox="0 0 791 108" version="1.1" xmlns="http://www.w3.org/2000/svg" xmlns:xlink="http://www.w3.org/1999/xlink">
    <!-- Generator: Sketch 59.1 (86144) - https://sketch.com -->
    <title>ja-PC</title>
    <desc>Created with Sketch.</desc>
    <g id="ja-PC" stroke="none" stroke-width="1" fill="none" fill-rule="evenodd">
        <path d="M36.808,30.194 C37.018,31.412 37.06,32.42 37.06,33.554 C37.06,40.526 36.094,45.818 30.088,49.682 C28.744,50.648 27.274,51.32 26.056,51.74 L29.92,54.89 C40.966,49.22 41.596,41.156 41.596,30.194 L36.808,30.194 Z M55.918,22.13 C55.246,22.298 53.356,22.424 52.39,22.424 L28.912,22.424 C27.274,22.424 25.552,22.256 23.998,22.046 L23.998,26.708 L25.9145781,26.5728945 C26.930125,26.5052187 27.88825,26.456 28.912,26.456 L51.97,26.456 C50.752,28.85 47.056,33.008 43.402,35.15 L46.888,37.964 C51.382,34.772 55.372,29.438 57.178,26.372 C57.514,25.868 58.186,25.07 58.564,24.608 L55.918,22.13 Z M93.872846,21.248 L91.016846,22.466 C92.486846,24.482 93.662846,26.666 94.796846,29.06 L97.736846,27.758 C96.770846,25.826 94.964846,22.886 93.872846,21.248 Z M99.500846,19.232 L96.602846,20.45 C98.072846,22.424 99.374846,24.524 100.550846,26.918 L103.490846,25.616 C102.440846,23.684 100.676846,20.786 99.500846,19.232 Z M75.812846,20.576 L73.418846,24.188 L74.0971168,24.5844722 C76.7135127,26.138375 80.653346,28.7275 82.616846,30.152 L85.136846,26.54 L84.6260786,26.1821684 C82.4095797,24.643787 78.2165383,21.8941538 75.812846,20.576 Z M68.840846,50.48 L71.318846,54.806 C75.140846,54.092 81.020846,52.076 85.262846,49.598 C92.066846,45.65 97.904846,40.274 101.684846,34.562 L99.122846,30.11 C95.762846,36.074 90.050846,41.702 83.036846,45.692 C78.626846,48.128 73.502846,49.682 68.840846,50.48 Z M69.428846,30.068 L67.034846,33.68 C69.680846,35.108 74.174846,37.964 76.358846,39.56 L78.794846,35.822 L78.2916298,35.4759636 C76.0971537,33.9926391 71.8325383,31.3861538 69.428846,30.068 Z M127.585692,30.194 C127.795692,31.412 127.837692,32.42 127.837692,33.554 L127.833664,34.3079295 C127.760773,40.9089845 126.653292,45.9585091 120.865692,49.682 C119.521692,50.648 118.051692,51.32 116.833692,51.74 L120.697692,54.89 C131.743692,49.22 132.373692,41.156 132.373692,30.194 L127.585692,30.194 Z M146.695692,22.13 C146.023692,22.298 144.133692,22.424 143.167692,22.424 L119.689692,22.424 C118.051692,22.424 116.329692,22.256 114.775692,22.046 L114.775692,26.708 L116.69227,26.5728945 C117.707817,26.5052187 118.665942,26.456 119.689692,26.456 L142.747692,26.456 C141.529692,28.85 137.833692,33.008 134.179692,35.15 L137.665692,37.964 C142.159692,34.772 146.149692,29.438 147.955692,26.372 C148.291692,25.868 148.963692,25.07 149.341692,24.608 L146.695692,22.13 Z M186.750538,24.104 L167.262538,24.104 L167.262538,21.71 L186.750538,21.71 L186.750538,24.104 Z M186.750538,29.018 L167.262538,29.018 L167.262538,26.582 L186.750538,26.582 L186.750538,29.018 Z M190.656538,19.064 L163.524538,19.064 L163.524538,31.622 L190.656538,31.622 L190.656538,19.064 Z M189.396538,41.996 C188.430538,43.97 187.128538,45.734 185.574538,47.288 C184.104538,45.734 182.886538,43.928 182.046538,41.996 L189.396538,41.996 Z M165.624538,49.934 L165.624538,47.204 L172.218538,47.204 L172.218538,49.304 L165.624538,49.934 Z M165.624538,41.912 L172.218538,41.912 L172.218538,44.39 L165.624538,44.39 L165.624538,41.912 Z M172.218538,36.788 L172.218538,39.14 L165.624538,39.14 L165.624538,36.788 L172.218538,36.788 Z M191.748538,38.846 L191.076538,38.972 L177.258538,38.972 L177.258538,41.996 L181.038538,41.996 L178.770538,42.626 C179.862538,45.188 181.290538,47.498 183.012538,49.472 C180.870538,51.026 178.434538,52.244 175.956538,53 L175.956538,36.788 L195.360538,36.788 L195.360538,33.596 L158.568538,33.596 L158.568538,36.788 L162.012538,36.788 L162.012538,50.27 L159.734497,50.4781633 C159.193395,50.5262857 158.676538,50.57 158.190538,50.606 L158.484538,54.008 L159.798982,53.8760082 C163.407871,53.5086667 167.813205,53.0233333 172.218538,52.538 L172.218538,56.276 L175.956538,56.276 L175.956538,53.294 C176.670538,54.05 177.510538,55.31 177.888538,56.15 C180.660538,55.142 183.306538,53.756 185.658538,51.95 C188.010538,53.882 190.824538,55.352 194.016538,56.276 C194.478538,55.352 195.528538,53.924 196.326538,53.252 C193.302538,52.496 190.572538,51.278 188.304538,49.64 C190.866538,47.036 192.924538,43.76 194.142538,39.77 L191.748538,38.846 Z M241.673384,33.428 L241.673384,29.396 L224.747384,29.396 C225.251384,25.238 225.293384,21.206 225.335384,17.804 L221.093384,17.804 L221.059392,21.1354941 C221.024314,23.7004063 220.935884,26.5085 220.589384,29.396 L204.965384,29.396 L204.965384,33.428 L219.875384,33.428 L219.708033,34.1517722 C217.930749,41.5067831 213.804051,48.7286667 204.125384,52.958 C205.217384,53.798 206.477384,55.184 207.107384,56.234 C216.641384,51.74 221.177384,44.474 223.319384,36.872 C226.595384,45.776 231.677384,52.58 239.531384,56.234 C240.161384,55.058 241.463384,53.42 242.429384,52.58 C234.491384,49.262 229.199384,42.164 226.343384,33.428 L241.673384,33.428 Z M252.07623,41.786 C251.65623,45.398 250.85823,49.094 249.59823,51.614 C250.39623,51.908 251.95023,52.622 252.58023,53.084 C253.88223,50.396 254.84823,46.322 255.39423,42.374 L252.07623,41.786 Z M263.37423,38.846 C263.66823,39.728 263.87823,40.526 264.04623,41.198 L266.86023,39.938 C266.35623,37.586 264.71823,33.974 263.03823,31.244 L260.39223,32.336 C260.98023,33.386 261.56823,34.562 262.11423,35.738 L256.36023,35.99 C259.09023,32.462 262.11423,27.884 264.46623,24.062 L261.23223,22.592 C260.18223,24.734 258.75423,27.296 257.24223,29.774 C256.69623,29.06 255.98223,28.262 255.22623,27.464 C256.73823,25.154 258.50223,21.92 259.97223,19.106 L256.52823,17.762 C255.77223,20.03 254.38623,23.054 253.08423,25.364 C252.70623,25.028 252.32823,24.692 251.95023,24.398 L250.06023,26.96 C251.90823,28.682 253.96623,30.95 255.26823,32.84 C254.47023,34.016 253.63023,35.15 252.87423,36.116 L249.93423,36.242 L250.27023,39.686 L256.61223,39.308 L256.61223,56.36 L260.09823,56.36 L260.09823,39.056 L263.37423,38.846 Z M272.15223,23.894 L278.49423,23.894 C277.90623,27.422 277.02423,32.084 276.22623,35.654 L279.71223,36.032 L280.09023,34.226 L283.91223,34.226 C282.82023,38.51 281.09823,42.122 278.95623,45.104 C275.42823,40.106 273.37023,33.47 272.15223,26.036 L272.15223,23.894 Z M285.88623,30.614 L285.21423,30.74 L280.80423,30.74 L281.410352,27.6687347 C281.905659,25.1162857 282.36423,22.622 282.69423,20.492 L280.04823,20.114 L279.41823,20.282 L264.88623,20.282 L264.88623,23.894 L268.66623,23.894 L268.66623,30.068 C268.66623,34.982 268.37223,41.45 266.02023,47.372 C265.51623,45.524 264.63423,43.214 263.79423,41.408 L260.98023,42.332 C261.98823,44.642 262.99623,47.666 263.37423,49.64 L265.30623,48.968 C264.46623,50.774 263.37423,52.496 262.03023,54.092 C262.91223,54.554 264.29823,55.604 264.88623,56.192 C269.42223,50.774 271.18623,43.844 271.81623,37.586 C273.03423,41.492 274.58823,44.978 276.60423,47.918 C274.42023,50.228 271.85823,52.034 269.08623,53.378 C269.92623,53.924 271.18623,55.394 271.73223,56.234 C274.33623,54.89 276.77223,53.084 278.91423,50.816 C281.09823,53.168 283.70223,55.016 286.81023,56.36 C287.31423,55.352 288.44823,53.882 289.24623,53.168 C286.09623,52.034 283.49223,50.27 281.30823,48.002 C284.50023,43.802 286.89423,38.3 288.23823,31.496 L285.88623,30.614 Z M306.117076,46.364 C304.437076,46.364 302.295076,44.18 302.295076,39.392 C302.295076,34.268 306.663076,27.758 314.139076,26.54 C313.749076,29.933 313.033147,33.4346429 312.092173,36.5405153 L311.634105,38.0182463 C309.774854,43.8909504 307.849362,46.364 306.117076,46.364 Z M317.289076,54.386 C327.453076,52.958 333.039076,46.91 333.039076,38.216 C333.039076,29.48 326.697076,22.508 316.701076,22.508 C306.285076,22.508 298.095076,30.53 298.095076,39.77 C298.095076,46.7 301.875076,51.362 305.991076,51.362 C310.149076,51.362 313.593076,46.616 316.113076,38.132 C317.247076,34.226 318.003076,30.194 318.591076,26.456 C324.975076,27.254 328.587076,32 328.587076,38.048 C328.587076,44.6501053 324.006142,48.495542 318.787247,49.7834504 L318.507076,49.85 C317.499076,50.102 316.281076,50.312 314.811076,50.438 L317.289076,54.386 Z M354.736922,53.585 C361.981922,53.585 366.391922,49.265 366.391922,43.955 C366.391922,39.203 363.681522,36.7742 359.901303,35.1121516 L355.096922,33.065 L354.176867,32.6920946 C351.824742,31.7152204 349.741922,30.581 349.741922,28.07 C349.741922,25.415 351.946922,23.795 355.321922,23.795 C358.246922,23.795 360.541922,24.92 362.611922,26.765 L365.356922,23.435 C362.836922,20.87 359.191922,19.25 355.321922,19.25 C349.021922,19.25 344.431922,23.165 344.431922,28.385 C344.431922,33.093 347.830678,35.6068667 350.968432,36.9782543 L355.771922,39.05 C358.831922,40.4 361.081922,41.345 361.081922,44.36 C361.081922,47.15 358.831922,49.04 354.826922,49.04 C351.631922,49.04 348.391922,47.51 346.006922,45.125 L342.946922,48.725 C345.961922,51.785 350.191922,53.585 354.736922,53.585 Z M386.807828,53.585 C389.642828,53.585 392.567828,52.55 394.817828,50.525 L392.702828,47.105 C391.217828,48.365 389.372828,49.355 387.302828,49.355 C383.162828,49.355 380.327828,45.89 380.327828,40.67 C380.327828,35.405 383.297828,31.895 387.437828,31.895 C389.147828,31.895 390.542828,32.615 391.892828,33.83 L394.457828,30.455 C392.657828,28.88 390.362828,27.62 387.212828,27.62 C380.687828,27.62 374.972828,32.39 374.972828,40.67 C374.972828,48.86 380.102828,53.585 386.807828,53.585 Z M409.878735,53.585 C412.848735,53.585 415.503735,52.1 417.753735,50.165 L417.888735,50.165 L418.338735,53 L422.568735,53 L422.568735,38.105 C422.568735,31.535 419.733735,27.62 413.568735,27.62 C409.608735,27.62 406.143735,29.24 403.578735,30.86 L405.513735,34.37 C407.628735,33.02 410.058735,31.85 412.668735,31.85 C416.313735,31.85 417.348735,34.37 417.393735,37.25 C407.088735,38.375 402.588735,41.12 402.588735,46.43 C402.588735,50.795 405.603735,53.585 409.878735,53.585 Z M411.453735,49.49 C409.248735,49.49 407.583735,48.5 407.583735,46.07 C407.583735,43.28 410.058735,41.435 417.393735,40.535 L417.393735,46.61 C415.368735,48.455 413.613735,49.49 411.453735,49.49 Z M439.564641,53.585 C440.824641,53.585 441.724641,53.405 442.354641,53.18 L441.679641,49.265 L441.387844,49.3170313 C441.136829,49.355 440.993391,49.355 440.824641,49.355 C440.194641,49.355 439.564641,48.86 439.564641,47.465 L439.564641,17.135 L434.434641,17.135 L434.434641,47.195 C434.434641,51.2 435.829641,53.585 439.564641,53.585 Z M458.225548,53.585 C461.195548,53.585 463.850548,52.1 466.100548,50.165 L466.235548,50.165 L466.685548,53 L470.915548,53 L470.915548,38.105 C470.915548,31.535 468.080548,27.62 461.915548,27.62 C457.955548,27.62 454.490548,29.24 451.925548,30.86 L453.860548,34.37 C455.975548,33.02 458.405548,31.85 461.015548,31.85 C464.660548,31.85 465.695548,34.37 465.740548,37.25 C455.435548,38.375 450.935548,41.12 450.935548,46.43 C450.935548,50.795 453.950548,53.585 458.225548,53.585 Z M459.800548,49.49 C457.595548,49.49 455.930548,48.5 455.930548,46.07 C455.930548,43.28 458.405548,41.435 465.740548,40.535 L465.740548,46.61 C463.715548,48.455 461.960548,49.49 459.800548,49.49 Z M512.172454,27.086 C511.332454,27.212 510.366454,27.338 509.274454,27.338 L500.202454,27.338 C500.286454,26.036 500.370454,24.65 500.412454,23.222 L500.466899,22.074 C500.510454,21.2433333 500.566454,20.338 500.622454,19.694 L495.708454,19.694 C495.876454,20.66 496.002454,22.382 496.002454,23.348 C496.002454,24.734 495.960454,26.078 495.876454,27.338 L489.114454,27.338 C487.476454,27.338 485.586454,27.212 483.990454,27.086 L483.990454,31.454 C485.586454,31.328 487.560454,31.286 489.114454,31.286 L495.498454,31.286 C494.474064,38.7025854 492.01053,43.7205985 488.107853,47.5100745 L487.812454,47.792 C486.342454,49.22 484.494454,50.522 482.982454,51.32 L486.846454,54.47 C494.070454,49.388 498.228454,42.962 499.782454,31.286 L510.534454,31.286 L510.531038,31.9341837 C510.484139,36.5585817 509.949896,45.0320087 508.656455,48.0435277 L508.560454,48.254 C508.098454,49.304 507.426454,49.682 506.166454,49.682 C504.444454,49.682 502.218454,49.472 500.076454,49.178 L500.580454,53.588 L502.784676,53.7202222 C504.309121,53.8073333 505.914454,53.882 507.426454,53.882 C509.988454,53.882 511.416454,52.958 512.298454,51.026 C514.146454,46.91 514.692454,34.898 514.818454,30.656 L514.857829,30.191375 C514.905079,29.6795 514.975954,29.0495 515.070454,28.514 L512.172454,27.086 Z M530.4813,21.71 L527.4153,24.986 C530.5233,27.128 535.7313,31.664 537.9153,33.89 L541.2333,30.488 C538.8813,28.052 533.4633,23.684 530.4813,21.71 Z M526.1553,49.808 L528.9693,54.134 C535.4793,52.958 540.8133,50.48 545.0553,47.876 C551.6073,43.844 556.7733,38.09 559.7973,32.672 L557.2353,28.094 C554.6733,33.47 549.4233,39.77 542.6613,43.928 C538.6293,46.406 533.1693,48.758 526.1553,49.808 Z M594.696146,22.97 C593.874813,23.194 592.953924,23.2520741 592.257957,23.262214 L571.638146,23.264 C570.252146,23.264 568.278146,23.096 567.102146,22.928 L567.102146,27.632 L567.858973,27.5788265 C568.877932,27.5158571 570.219146,27.464 571.638146,27.464 L592.260146,27.464 C591.714146,31.328 589.908146,36.704 587.010146,40.358 C583.566146,44.768 578.820146,48.338 570.630146,50.354 L574.200146,54.302 C581.844146,51.908 587.094146,47.876 590.916146,42.92 C594.318146,38.468 596.250146,31.79 597.174146,27.506 L597.333615,26.8655 C597.497021,26.21975 597.678146,25.574 597.930146,25.07 L594.696146,22.97 Z M621.026992,36.242 C621.194992,37.124 621.320992,38.048 621.320992,38.972 L621.316551,39.6295824 C621.245074,44.7350962 620.266706,48.776 615.230992,52.16 C614.096992,52.916 613.088992,53.378 612.080992,53.756 L615.692992,56.654 C625.016992,51.53 625.478992,44.726 625.646992,36.242 L621.026992,36.242 Z M637.448992,29.69 C636.860992,29.816 635.432992,29.942 634.676992,29.942 L614.474992,29.942 C613.130992,29.942 611.576992,29.774 610.316992,29.606 L610.316992,33.932 C611.744992,33.806 613.130992,33.722 614.474992,33.722 L633.710992,33.764 C632.618992,35.696 629.720992,39.056 626.990992,40.82 L630.392992,43.13 C633.836992,40.652 637.532992,35.402 638.834992,33.26 C639.086992,32.882 639.548992,32.252 639.884992,31.874 L637.448992,29.69 Z M656.849838,54.176 C657.647838,53.672 658.445838,53.42 658.949838,53.294 C669.155838,50.144 677.849838,45.062 683.435838,38.216 L681.041838,34.52 C675.749838,41.156 666.215838,46.616 658.655838,48.632 L658.655838,25.658 C658.655838,24.272 658.823838,22.76 659.033838,21.458 L653.825838,21.458 C654.035838,22.424 654.203838,24.356 654.203838,25.7 L654.203838,49.178 C654.203838,50.06 654.161838,50.69 653.741838,51.53 L656.849838,54.176 Z M696.536684,21.71 L693.470684,24.986 C696.578684,27.128 701.786684,31.664 703.970684,33.89 L707.288684,30.488 C704.936684,28.052 699.518684,23.684 696.536684,21.71 Z M692.210684,49.808 L695.024684,54.134 C701.534684,52.958 706.868684,50.48 711.110684,47.876 C717.662684,43.844 722.828684,38.09 725.852684,32.672 L723.290684,28.094 C720.728684,33.47 715.478684,39.77 708.716684,43.928 C704.684684,46.406 699.224684,48.758 692.210684,49.808 Z M759.23953,22.718 L761.96953,24.734 L761.797641,24.9920278 C761.507141,25.4444028 761.090641,26.1605903 760.831641,26.733059 L760.75153,26.918 C759.28153,30.362 756.80353,35.108 753.86353,38.888 C758.18953,42.584 763.27153,48.002 765.87553,51.194 L762.13753,54.47 C759.40753,50.69 755.20753,46.07 751.04953,42.206 C746.55553,46.994 740.92753,51.488 734.87953,54.26 L731.47753,50.732 C738.28153,48.128 744.58153,43.088 748.73953,38.426 C751.59553,35.234 754.40953,30.614 755.41753,27.338 L740.00353,27.338 L739.495456,27.343922 C737.92789,27.37832 736.03033,27.5522 735.42553,27.59 L735.42553,22.844 C736.216118,22.9625882 738.420464,23.1183806 739.762549,23.1362988 L755.58553,23.138 C757.13953,23.138 758.52553,22.97 759.23953,22.718 Z" id="アジア最大級のScalaカンファレンス" fill="#FFFFFF" fill-rule="nonzero"></path>
        <path d="M230.88,95 L240.38,95 L240.38,93.04 L236.7,93.04 C235.98,93.04 235.06,93.1 234.3,93.18 L234.87458,92.6217334 C237.693672,89.8328906 239.68,87.0825 239.68,84.42 C239.68,81.76 237.94,80 235.24,80 C233.32,80 232.02,80.84 230.76,82.2 L232.06,83.48 C232.84,82.58 233.8,81.84 234.96,81.84 C236.6,81.84 237.46,82.94 237.46,84.54 C237.46,86.96 235.22,89.82 230.88,93.66 L230.88,95 Z M249.69945,95.26 C252.57945,95.26 254.45945,92.7 254.45945,87.58 C254.45945,82.5 252.57945,80 249.69945,80 C246.79945,80 244.93945,82.48 244.93945,87.58 C244.93945,92.7 246.79945,95.26 249.69945,95.26 Z M249.69945,93.44 C248.19945,93.44 247.13945,91.84 247.13945,87.58 C247.13945,83.36 248.19945,81.82 249.69945,81.82 C251.19945,81.82 252.25945,83.36 252.25945,87.58 C252.25945,91.84 251.19945,93.44 249.69945,93.44 Z M258.8789,95 L268.3789,95 L268.3789,93.04 L264.6989,93.04 C263.9789,93.04 263.0589,93.1 262.2989,93.18 L262.87348,92.6217334 C265.692572,89.8328906 267.6789,87.0825 267.6789,84.42 C267.6789,81.76 265.9389,80 263.2389,80 C261.3189,80 260.0189,80.84 258.7589,82.2 L260.0589,83.48 C260.8389,82.58 261.7989,81.84 262.9589,81.84 C264.5989,81.84 265.4589,82.94 265.4589,84.54 C265.4589,86.96 263.2189,89.82 258.8789,93.66 L258.8789,95 Z M277.69835,95.26 C280.57835,95.26 282.45835,92.7 282.45835,87.58 C282.45835,82.5 280.57835,80 277.69835,80 C274.79835,80 272.93835,82.48 272.93835,87.58 C272.93835,92.7 274.79835,95.26 277.69835,95.26 Z M277.69835,93.44 C276.19835,93.44 275.13835,91.84 275.13835,87.58 C275.13835,83.36 276.19835,81.82 277.69835,81.82 C279.19835,81.82 280.25835,83.36 280.25835,87.58 C280.25835,91.84 279.19835,93.44 277.69835,93.44 Z M292.0578,90.36 L292.0578,86.82 L296.0778,86.82 L296.0778,90.36 L292.0578,90.36 Z M305.0178,90.36 L297.9978,90.36 L297.9978,86.82 L303.5778,86.82 L303.5778,85.08 L297.9978,85.08 L297.9978,82.32 L304.0378,82.32 L304.0378,80.52 L292.4578,80.52 C292.7178,79.92 292.9978,79.26 293.2378,78.64 L291.3578,78.14 C290.4378,80.8 288.8378,83.34 286.9978,84.92 C287.4578,85.2 288.2578,85.8 288.6178,86.12 C289.6378,85.12 290.6378,83.8 291.4978,82.32 L296.0778,82.32 L296.0778,85.08 L290.1978,85.08 L290.1978,90.36 L286.9778,90.36 L286.9778,92.16 L296.0778,92.16 L296.0778,96.58 L297.9978,96.58 L297.9978,92.16 L305.0178,92.16 L305.0178,90.36 Z M310.31725,95 L318.71725,95 L318.71725,93.1 L315.83725,93.1 L315.83725,80.28 L314.09725,80.28 C313.25725,80.8 312.27725,81.14 310.89725,81.4 L310.89725,82.86 L313.53725,82.86 L313.53725,93.1 L310.31725,93.1 L310.31725,95 Z M328.2967,95.26 C331.1767,95.26 333.0567,92.7 333.0567,87.58 C333.0567,82.5 331.1767,80 328.2967,80 C325.3967,80 323.5367,82.48 323.5367,87.58 C323.5367,92.7 325.3967,95.26 328.2967,95.26 Z M328.2967,93.44 C326.7967,93.44 325.7367,91.84 325.7367,87.58 C325.7367,83.36 326.7967,81.82 328.2967,81.82 C329.7967,81.82 330.8567,83.36 330.8567,87.58 C330.8567,91.84 329.7967,93.44 328.2967,93.44 Z M342.35615,88.72 C342.47615,87.68 342.53615,86.68 342.53615,85.76 L351.13615,85.76 L351.13615,88.72 L342.35615,88.72 Z M351.13615,81.02 L351.13615,83.98 L342.53615,83.98 L342.53615,81.02 L351.13615,81.02 Z M353.09615,79.22 L340.63615,79.22 L340.63615,85.5 C340.63615,88.64 340.33615,92.56 337.21615,95.24 C337.63615,95.52 338.35615,96.2 338.63615,96.6 C340.53615,94.98 341.53615,92.76 342.05615,90.52 L351.13615,90.52 L351.13615,94.02 C351.13615,94.405 351.001706,94.5715278 350.640386,94.5966088 L350.062954,94.6122359 C349.347014,94.6239506 348.109483,94.6222222 346.89615,94.56 C347.21615,95.08 347.57615,95.98 347.69615,96.52 L348.731159,96.5148341 C350.239956,96.4965398 351.284385,96.42 351.97615,96.14 C352.77615,95.84 353.09615,95.26 353.09615,94.06 L353.09615,79.22 Z M360.9156,95 L369.3156,95 L369.3156,93.1 L366.4356,93.1 L366.4356,80.28 L364.6956,80.28 C363.8556,80.8 362.8756,81.14 361.4956,81.4 L361.4956,82.86 L364.1356,82.86 L364.1356,93.1 L360.9156,93.1 L360.9156,95 Z M377.05505,95 L379.41505,95 L379.454693,94.1332423 C379.718114,88.9048521 380.372486,85.7784615 383.65505,81.68 L383.65505,80.28 L374.17505,80.28 L374.17505,82.22 L381.09505,82.22 C378.25505,86.18 377.31505,89.62 377.05505,95 Z M392.5145,93.18 L392.5145,88.1 L401.9345,88.1 L401.9345,93.18 L392.5145,93.18 Z M401.9345,81.38 L401.9345,86.26 L392.5145,86.26 L392.5145,81.38 L401.9345,81.38 Z M390.6145,79.5 L390.6145,96.36 L392.5145,96.36 L392.5145,95.06 L401.9345,95.06 L401.9345,96.28 L403.9145,96.28 L403.9145,79.5 L390.6145,79.5 Z M414.53395,98.98 L415.97395,98.34 C414.25395,95.48 413.45395,92.1 413.45395,88.74 C413.45395,85.4 414.25395,82.02 415.97395,79.14 L414.53395,78.52 C412.67395,81.54 411.57395,84.8 411.57395,88.74 C411.57395,92.72 412.67395,95.94 414.53395,98.98 Z M430.4534,93.88 L430.4534,86.32 L437.1534,86.32 L437.1534,84.5 L430.4534,84.5 L430.4534,78.26 L428.4734,78.26 L428.4734,84.5 L421.8734,84.5 L421.8734,86.32 L428.4734,86.32 L428.4734,93.88 L420.5934,93.88 L420.5934,95.7 L438.4534,95.7 L438.4534,93.88 L430.4534,93.88 Z M444.45285,98.98 C446.33285,95.94 447.43285,92.72 447.43285,88.74 C447.43285,84.8 446.33285,81.54 444.45285,78.52 L443.01285,79.14 C444.73285,82.02 445.53285,85.4 445.53285,88.74 C445.53285,92.1 444.73285,95.48 443.01285,98.34 L444.45285,98.98 Z M453.3723,99 C455.4323,98.22 456.6523,96.6 456.6523,94.5 C456.6523,92.96 455.9923,92.02 454.8723,92.02 C453.9923,92.02 453.2723,92.6 453.2723,93.5 C453.2723,94.46 453.9923,94.98 454.8123,94.98 C454.8923,94.98 454.9523,94.98 455.0323,94.96 C455.0123,96.14 454.2123,97.14 452.8523,97.7 L453.3723,99 Z M469.1712,95 L477.5712,95 L477.5712,93.1 L474.6912,93.1 L474.6912,80.28 L472.9512,80.28 C472.1112,80.8 471.1312,81.14 469.7512,81.4 L469.7512,82.86 L472.3912,82.86 L472.3912,93.1 L469.1712,93.1 L469.1712,95 Z M487.17065,95.26 C490.01065,95.26 491.93065,93.58 491.93065,91.4 C491.93065,89.4 490.77065,88.26 489.45065,87.5 L489.45065,87.4 C490.37065,86.72 491.39065,85.44 491.39065,83.94 C491.39065,81.64 489.79065,80.04 487.23065,80.04 C484.81065,80.04 483.03065,81.54 483.03065,83.84 C483.03065,85.4 483.91065,86.5 485.01065,87.28 L485.01065,87.38 C483.65065,88.1 482.37065,89.4 482.37065,91.34 C482.37065,93.62 484.41065,95.26 487.17065,95.26 Z M488.13065,86.82 L487.742252,86.6640909 C486.27561,86.056096 485.09065,85.312 485.09065,83.84 C485.09065,82.52 485.99065,81.7 487.19065,81.7 C488.63065,81.7 489.45065,82.72 489.45065,84.08 C489.45065,85.06 489.01065,86 488.13065,86.82 Z M487.21065,93.6 C485.63065,93.6 484.41065,92.58 484.41065,91.12 C484.41065,89.84 485.11065,88.74 486.13065,88.04 L486.758895,88.3002997 C488.459196,89.0185714 489.75065,89.7328571 489.75065,91.34 C489.75065,92.72 488.71065,93.6 487.21065,93.6 Z M500.7701,93.18 L500.7701,88.1 L510.1901,88.1 L510.1901,93.18 L500.7701,93.18 Z M510.1901,81.38 L510.1901,86.26 L500.7701,86.26 L500.7701,81.38 L510.1901,81.38 Z M498.8701,79.5 L498.8701,96.36 L500.7701,96.36 L500.7701,95.06 L510.1901,95.06 L510.1901,96.28 L512.1701,96.28 L512.1701,79.5 L498.8701,79.5 Z M522.78955,98.98 L524.22955,98.34 C522.50955,95.48 521.70955,92.1 521.70955,88.74 C521.70955,85.4 522.50955,82.02 524.22955,79.14 L522.78955,78.52 C520.92955,81.54 519.82955,84.8 519.82955,88.74 C519.82955,92.72 520.92955,95.94 522.78955,98.98 Z M533.069,93.18 L533.069,88.1 L542.489,88.1 L542.489,93.18 L533.069,93.18 Z M542.489,81.38 L542.489,86.26 L533.069,86.26 L533.069,81.38 L542.489,81.38 Z M531.169,79.5 L531.169,96.36 L533.069,96.36 L533.069,95.06 L542.489,95.06 L542.489,96.28 L544.469,96.28 L544.469,79.5 L531.169,79.5 Z M552.70845,98.98 L551.26845,98.34 C552.98845,95.48 553.78845,92.1 553.78845,88.74 C553.78845,85.4 552.98845,82.02 551.26845,79.14 L552.70845,78.52 C554.58845,81.54 555.68845,84.8 555.68845,88.74 C555.68845,92.72 554.58845,95.94 552.70845,98.98 Z" id="2020年10月17日(土),18日(日)" fill="#FFFFFF" fill-rule="nonzero"></path>
    </g>
</svg>