<?xml version="1.0" encoding="UTF-8"?>
<svg width="405px" height="157px" viewBox="0 0 405 157" version="1.1" xmlns="http://www.w3.org/2000/svg" xmlns:xlink="http://www.w3.org/1999/xlink">
    <!-- Generator: Sketch 59.1 (86144) - https://sketch.com -->
    <title>ja-SP</title>
    <desc>Created with Sketch.</desc>
    <g id="ja-SP" stroke="none" stroke-width="1" fill="none" fill-rule="evenodd">
        <path d="M108.609956,15.71 C108.759956,16.58 108.789956,17.3 108.789956,18.11 L108.785406,18.7816698 C108.71979,23.4315289 107.904956,26.9954545 103.809956,29.63 C102.849956,30.32 101.799956,30.8 100.929956,31.1 L103.689956,33.35 C111.579956,29.3 112.029956,23.54 112.029956,15.71 L108.609956,15.71 Z M122.259956,9.95 C121.819956,10.06 120.648914,10.1447917 119.92532,10.1581597 L102.969956,10.16 C101.799956,10.16 100.569956,10.04 99.4599557,9.89 L99.4599557,13.22 L100.515291,13.1449563 C101.359752,13.0859184 102.134241,13.04 102.969956,13.04 L119.439956,13.04 C118.569956,14.75 115.929956,17.72 113.319956,19.25 L115.809956,21.26 C119.019956,18.98 121.869956,15.17 123.159956,12.98 C123.399956,12.62 123.879956,12.05 124.149956,11.72 L122.259956,9.95 Z M146.267111,9.32 L144.227111,10.19 C145.277111,11.63 146.117111,13.19 146.927111,14.9 L149.027111,13.97 C148.337111,12.59 147.047111,10.49 146.267111,9.32 Z M150.287111,7.88 L148.217111,8.75 C149.267111,10.16 150.197111,11.66 151.037111,13.37 L153.137111,12.44 L152.78717,11.811137 C152.035683,10.4881633 151.007111,8.83142857 150.287111,7.88 Z M133.367111,8.84 L131.657111,11.42 C133.487111,12.47 136.697111,14.57 138.227111,15.68 L140.027111,13.1 L139.566392,12.7779916 C137.960717,11.6680272 135.049968,9.76285714 133.367111,8.84 Z M128.387111,30.2 L130.157111,33.29 C132.887111,32.78 137.087111,31.34 140.117111,29.57 C144.977111,26.75 149.147111,22.91 151.847111,18.83 L150.017111,15.65 C147.617111,19.91 143.537111,23.93 138.527111,26.78 C135.377111,28.52 131.717111,29.63 128.387111,30.2 Z M128.807111,15.62 L127.097111,18.2 C128.987111,19.22 132.197111,21.26 133.757111,22.4 L135.497111,19.73 L135.042644,19.4188306 C133.449832,18.3497959 130.489968,16.5428571 128.807111,15.62 Z M167.244267,15.71 C167.394267,16.58 167.424267,17.3 167.424267,18.11 C167.424267,23.09 166.734267,26.87 162.444267,29.63 C161.484267,30.32 160.434267,30.8 159.564267,31.1 L162.324267,33.35 C170.214267,29.3 170.664267,23.54 170.664267,15.71 L167.244267,15.71 Z M180.894267,9.95 C180.454267,10.06 179.283225,10.1447917 178.559631,10.1581597 L161.604267,10.16 C160.434267,10.16 159.204267,10.04 158.094267,9.89 L158.094267,13.22 L159.149602,13.1449563 C159.994063,13.0859184 160.768552,13.04 161.604267,13.04 L178.074267,13.04 C177.204267,14.75 174.564267,17.72 171.954267,19.25 L174.444267,21.26 C177.654267,18.98 180.504267,15.17 181.794267,12.98 C182.034267,12.62 182.514267,12.05 182.784267,11.72 L180.894267,9.95 Z M206.401422,11.36 L192.481422,11.36 L192.481422,9.65 L206.401422,9.65 L206.401422,11.36 Z M206.401422,14.87 L192.481422,14.87 L192.481422,13.13 L206.401422,13.13 L206.401422,14.87 Z M209.191422,7.76 L189.811422,7.76 L189.811422,16.73 L209.191422,16.73 L209.191422,7.76 Z M208.291422,24.14 C207.601422,25.55 206.671422,26.81 205.561422,27.92 C204.511422,26.81 203.641422,25.52 203.041422,24.14 L208.291422,24.14 Z M191.311422,29.81 L191.311422,27.86 L196.021422,27.86 L196.021422,29.36 L191.311422,29.81 Z M191.311422,24.08 L196.021422,24.08 L196.021422,25.85 L191.311422,25.85 L191.311422,24.08 Z M196.021422,20.42 L196.021422,22.1 L191.311422,22.1 L191.311422,20.42 L196.021422,20.42 Z M209.971422,21.89 L209.491422,21.98 L199.621422,21.98 L199.621422,24.14 L202.321422,24.14 L200.701422,24.59 C201.481422,26.42 202.501422,28.07 203.731422,29.48 C202.201422,30.59 200.461422,31.46 198.691422,32 L198.691422,20.42 L212.551422,20.42 L212.551422,18.14 L186.271422,18.14 L186.271422,20.42 L188.731422,20.42 L188.731422,30.05 L186.8492,30.2211111 C186.554756,30.2466667 186.271422,30.27 186.001422,30.29 L186.211422,32.72 L189.181422,32.4144444 C191.301422,32.19 193.661422,31.93 196.021422,31.67 L196.021422,34.34 L198.691422,34.34 L198.691422,32.21 C199.201422,32.75 199.801422,33.65 200.071422,34.25 C202.051422,33.53 203.941422,32.54 205.621422,31.25 C207.301422,32.63 209.311422,33.68 211.591422,34.34 C211.921422,33.68 212.671422,32.66 213.241422,32.18 C211.081422,31.64 209.131422,30.77 207.511422,29.6 C209.341422,27.74 210.811422,25.4 211.681422,22.55 L209.971422,21.89 Z M242.528578,18.02 L242.528578,15.14 L230.438578,15.14 C230.798578,12.17 230.828578,9.29 230.858578,6.86 L227.828578,6.86 L227.807062,9.02629738 C227.783884,10.9155102 227.725721,12.9971429 227.468578,15.14 L216.308578,15.14 L216.308578,18.02 L226.958578,18.02 C225.758578,23.45 222.848578,28.85 215.708578,31.97 C216.488578,32.57 217.388578,33.56 217.838578,34.31 C224.648578,31.1 227.888578,25.91 229.418578,20.48 C231.758578,26.84 235.388578,31.7 240.998578,34.31 C241.448578,33.47 242.378578,32.3 243.068578,31.7 C237.398578,29.33 233.618578,24.26 231.578578,18.02 L242.528578,18.02 Z M246.855733,23.99 C246.555733,26.57 245.985733,29.21 245.085733,31.01 C245.655733,31.22 246.765733,31.73 247.215733,32.06 C248.145733,30.14 248.835733,27.23 249.225733,24.41 L246.855733,23.99 Z M254.925733,21.89 C255.135733,22.52 255.285733,23.09 255.405733,23.57 L257.415733,22.67 C257.055733,20.99 255.885733,18.41 254.685733,16.46 L252.795733,17.24 C253.215733,17.99 253.635733,18.83 254.025733,19.67 L249.915733,19.85 C251.865733,17.33 254.025733,14.06 255.705733,11.33 L253.395733,10.28 C252.645733,11.81 251.625733,13.64 250.545733,15.41 C250.155733,14.9 249.645733,14.33 249.105733,13.76 C250.185733,12.11 251.445733,9.8 252.495733,7.79 L250.035733,6.83 C249.495733,8.45 248.505733,10.61 247.575733,12.26 C247.305733,12.02 247.035733,11.78 246.765733,11.57 L245.415733,13.4 C246.735733,14.63 248.205733,16.25 249.135733,17.6 C248.565733,18.44 247.965733,19.25 247.425733,19.94 L245.325733,20.03 L245.565733,22.49 L250.095733,22.22 L250.095733,34.4 L252.585733,34.4 L252.585733,22.04 L254.925733,21.89 Z M261.195733,11.21 L265.725733,11.21 C265.305733,13.73 264.675733,17.06 264.105733,19.61 L266.595733,19.88 L266.865733,18.59 L269.595733,18.59 C268.815733,21.65 267.585733,24.23 266.055733,26.36 C263.535733,22.79 262.065733,18.05 261.195733,12.74 L261.195733,11.21 Z M271.005733,16.01 L270.525733,16.1 L267.375733,16.1 L267.755421,14.18 C268.129483,12.261875 268.478233,10.3775 268.725733,8.78 L266.835733,8.51 L266.385733,8.63 L256.005733,8.63 L256.005733,11.21 L258.705733,11.21 L258.705733,15.62 C258.705733,19.13 258.495733,23.75 256.815733,27.98 C256.455733,26.66 255.825733,25.01 255.225733,23.72 L253.215733,24.38 C253.935733,26.03 254.655733,28.19 254.925733,29.6 L256.305733,29.12 C255.705733,30.41 254.925733,31.64 253.965733,32.78 C254.595733,33.11 255.585733,33.86 256.005733,34.28 C259.245733,30.41 260.505733,25.46 260.955733,20.99 C261.825733,23.78 262.935733,26.27 264.375733,28.37 C262.815733,30.02 260.985733,31.31 259.005733,32.27 C259.605733,32.66 260.505733,33.71 260.895733,34.31 C262.755733,33.35 264.495733,32.06 266.025733,30.44 C267.585733,32.12 269.445733,33.44 271.665733,34.4 C272.025733,33.68 272.835733,32.63 273.405733,32.12 C271.155733,31.31 269.295733,30.05 267.735733,28.43 C270.015733,25.43 271.725733,21.5 272.685733,16.64 L271.005733,16.01 Z M282.352889,27.26 C281.152889,27.26 279.622889,25.7 279.622889,22.28 C279.622889,18.62 282.742889,13.97 288.082889,13.1 C287.810162,15.4727273 287.314294,17.9198347 286.662904,20.1032307 L286.250136,21.4351899 C284.935591,25.5318738 283.576735,27.26 282.352889,27.26 Z M290.332889,32.99 C297.592889,31.97 301.582889,27.65 301.582889,21.44 C301.582889,15.2 297.052889,10.22 289.912889,10.22 C282.472889,10.22 276.622889,15.95 276.622889,22.55 C276.622889,27.5 279.322889,30.83 282.262889,30.83 C285.232889,30.83 287.692889,27.44 289.492889,21.38 C290.302889,18.59 290.842889,15.71 291.262889,13.04 C295.822889,13.61 298.402889,17 298.402889,21.32 C298.402889,26.0178723 295.155609,28.7616297 291.445481,29.6918999 L291.202889,29.75 C290.482889,29.93 289.612889,30.08 288.562889,30.17 L290.332889,32.99 Z M64.7466845,71.49 C69.5766845,71.49 72.5166845,68.61 72.5166845,65.07 C72.5166845,61.83 70.6266845,60.21 68.0166845,59.1 L64.9866845,57.81 L64.4112864,57.5771324 C62.8277177,56.9222832 61.4166845,56.1675 61.4166845,54.48 C61.4166845,52.71 62.8866845,51.63 65.1366845,51.63 C67.0866845,51.63 68.6166845,52.38 69.9966845,53.61 L71.8266845,51.39 C70.1466845,49.68 67.7166845,48.6 65.1366845,48.6 C60.9366845,48.6 57.8766845,51.21 57.8766845,54.69 C57.8766845,57.8027273 60.1052245,59.4767769 62.1824596,60.3960122 L65.4366845,61.8 C67.4766845,62.7 68.9766845,63.33 68.9766845,65.34 C68.9766845,67.2 67.4766845,68.46 64.8066845,68.46 C62.6766845,68.46 60.5166845,67.44 58.9266845,65.85 L56.8866845,68.25 C58.8966845,70.29 61.7166845,71.49 64.7466845,71.49 Z M84.0124634,71.49 C85.9024634,71.49 87.8524634,70.8 89.3524634,69.45 L87.9424634,67.17 C86.9524634,68.01 85.7224634,68.67 84.3424634,68.67 C81.5824634,68.67 79.6924634,66.36 79.6924634,62.88 C79.6924634,59.37 81.6724634,57.03 84.4324634,57.03 C85.5724634,57.03 86.5024634,57.51 87.4024634,58.32 L89.1124634,56.07 C87.9124634,55.02 86.3824634,54.18 84.2824634,54.18 C79.9324634,54.18 76.1224634,57.36 76.1224634,62.88 C76.1224634,68.34 79.5424634,71.49 84.0124634,71.49 Z M97.2782422,71.49 C99.2582422,71.49 101.028242,70.5 102.528242,69.21 L102.618242,69.21 L102.918242,71.1 L105.738242,71.1 L105.738242,61.17 C105.738242,56.79 103.848242,54.18 99.7382422,54.18 C97.0982422,54.18 94.7882422,55.26 93.0782422,56.34 L94.3682422,58.68 C95.7782422,57.78 97.3982422,57 99.1382422,57 C101.568242,57 102.258242,58.68 102.288242,60.6 C95.4182422,61.35 92.4182422,63.18 92.4182422,66.72 C92.4182422,69.63 94.4282422,71.49 97.2782422,71.49 Z M98.3282422,68.76 C96.8582422,68.76 95.7482422,68.1 95.7482422,66.48 C95.7482422,64.62 97.3982422,63.39 102.288242,62.79 L102.288242,66.84 C100.938242,68.07 99.7682422,68.76 98.3282422,68.76 Z M114.954021,71.49 C115.794021,71.49 116.394021,71.37 116.814021,71.22 L116.364021,68.61 L116.146062,68.6481341 C115.993001,68.67 115.901164,68.67 115.794021,68.67 C115.374021,68.67 114.954021,68.34 114.954021,67.41 L114.954021,47.19 L111.534021,47.19 L111.534021,67.23 C111.534021,69.9 112.464021,71.49 114.954021,71.49 Z M125.2798,71.49 C127.2598,71.49 129.0298,70.5 130.5298,69.21 L130.6198,69.21 L130.9198,71.1 L133.7398,71.1 L133.7398,61.17 C133.7398,56.79 131.8498,54.18 127.7398,54.18 C125.0998,54.18 122.7898,55.26 121.0798,56.34 L122.3698,58.68 C123.7798,57.78 125.3998,57 127.1398,57 C129.5698,57 130.2598,58.68 130.2898,60.6 C123.4198,61.35 120.4198,63.18 120.4198,66.72 C120.4198,69.63 122.4298,71.49 125.2798,71.49 Z M126.3298,68.76 C124.8598,68.76 123.7498,68.1 123.7498,66.48 C123.7498,64.62 125.3998,63.39 130.2898,62.79 L130.2898,66.84 C128.9398,68.07 127.7698,68.76 126.3298,68.76 Z M160.715579,52.59 C160.115579,52.68 159.425579,52.77 158.645579,52.77 L152.165579,52.77 L152.235659,51.62712 C152.268779,51.0432 152.297579,50.442 152.315579,49.83 L152.360403,48.8981836 C152.390579,48.3365625 152.428079,47.74125 152.465579,47.31 L148.955579,47.31 C149.075579,48 149.165579,49.23 149.165579,49.92 C149.165579,50.91 149.135579,51.87 149.075579,52.77 L144.245579,52.77 C143.075579,52.77 141.725579,52.68 140.585579,52.59 L140.585579,55.71 C141.562722,55.6328571 142.738232,55.5997959 143.753159,55.5919242 L148.805579,55.59 C148.055579,61.02 146.225579,64.65 143.315579,67.38 C142.265579,68.4 140.945579,69.33 139.865579,69.9 L142.625579,72.15 C147.785579,68.52 150.755579,63.93 151.865579,55.59 L159.545579,55.59 L159.541481,56.196839 C159.497516,59.6114533 159.095579,65.7335294 158.135579,67.71 C157.805579,68.46 157.325579,68.73 156.425579,68.73 C155.195579,68.73 153.605579,68.58 152.075579,68.37 L152.435579,71.52 L154.479864,71.6404373 C155.425171,71.6908163 156.399864,71.73 157.325579,71.73 C159.155579,71.73 160.175579,71.07 160.805579,69.69 C162.125579,66.75 162.515579,58.17 162.605579,55.14 L162.63864,54.7553353 C162.672313,54.3997959 162.721293,53.9742857 162.785579,53.61 L160.715579,52.59 Z M173.778113,48.75 L171.588113,51.09 C173.808113,52.62 177.528113,55.86 179.088113,57.45 L181.458113,55.02 C179.778113,53.28 175.908113,50.16 173.778113,48.75 Z M170.688113,68.82 L172.698113,71.91 C177.348113,71.07 181.158113,69.3 184.188113,67.44 C188.868113,64.56 192.558113,60.45 194.718113,56.58 L192.888113,53.31 C191.058113,57.15 187.308113,61.65 182.478113,64.62 C179.598113,66.39 175.698113,68.07 170.688113,68.82 Z M219.630646,49.65 C218.970646,49.83 218.220646,49.86 217.710646,49.86 L203.160646,49.86 C202.170646,49.86 200.760646,49.74 199.920646,49.62 L199.920646,52.98 L200.561896,52.9359375 C201.276271,52.89375 202.193146,52.86 203.160646,52.86 L217.890646,52.86 C217.500646,55.62 216.210646,59.46 214.140646,62.07 C211.680646,65.22 208.290646,67.77 202.440646,69.21 L204.990646,72.03 C210.450646,70.32 214.200646,67.44 216.930646,63.9 C219.360646,60.72 220.740646,55.95 221.400646,52.89 L221.531317,52.3666181 C221.643708,51.927551 221.769218,51.4928571 221.940646,51.15 L219.630646,49.65 Z M238.42318,59.13 C238.54318,59.76 238.63318,60.42 238.63318,61.08 L238.628103,61.6688019 C238.563358,65.259428 237.840872,68.1092308 234.28318,70.5 C233.47318,71.04 232.75318,71.37 232.03318,71.64 L234.61318,73.71 C241.27318,70.05 241.60318,65.19 241.72318,59.13 L238.42318,59.13 Z M250.15318,54.45 C249.73318,54.54 248.71318,54.63 248.17318,54.63 L233.74318,54.63 C232.78318,54.63 231.67318,54.51 230.77318,54.39 L230.77318,57.48 C231.79318,57.39 232.78318,57.33 233.74318,57.33 L247.48318,57.36 C246.70318,58.74 244.63318,61.14 242.68318,62.4 L245.11318,64.05 C247.57318,62.28 250.21318,58.53 251.14318,57 C251.32318,56.73 251.65318,56.28 251.89318,56.01 L250.15318,54.45 Z M263.995714,71.94 C264.565714,71.58 265.135714,71.4 265.495714,71.31 C272.785714,69.06 278.995714,65.43 282.985714,60.54 L281.275714,57.9 C277.495714,62.64 270.685714,66.54 265.285714,67.98 L265.285714,51.57 C265.285714,50.58 265.405714,49.5 265.555714,48.57 L261.835714,48.57 C261.985714,49.26 262.105714,50.64 262.105714,51.6 L262.105714,68.37 C262.105714,69 262.075714,69.45 261.775714,70.05 L263.995714,71.94 Z M292.328248,48.75 L290.138248,51.09 C292.358248,52.62 296.078248,55.86 297.638248,57.45 L300.008248,55.02 C298.328248,53.28 294.458248,50.16 292.328248,48.75 Z M289.238248,68.82 L291.248248,71.91 C295.898248,71.07 299.708248,69.3 302.738248,67.44 C307.418248,64.56 311.108248,60.45 313.268248,56.58 L311.438248,53.31 C309.608248,57.15 305.858248,61.65 301.028248,64.62 C298.148248,66.39 294.248248,68.07 289.238248,68.82 Z M337.100782,49.47 L339.050782,50.91 C338.864115,51.1766667 338.487819,51.7988889 338.259012,52.2920576 L338.180782,52.47 C337.130782,54.93 335.360782,58.32 333.260782,61.02 C336.350782,63.66 339.980782,67.53 341.840782,69.81 L339.170782,72.15 C337.220782,69.45 334.220782,66.15 331.250782,63.39 C328.040782,66.81 324.020782,70.02 319.700782,72 L317.270782,69.48 C322.130782,67.62 326.630782,64.02 329.600782,60.69 C331.640782,58.41 333.650782,55.11 334.370782,52.77 L323.360782,52.77 C322.190782,52.77 320.570782,52.92 320.090782,52.95 L320.090782,49.56 L320.386959,49.5972444 C321.140382,49.6798667 322.554782,49.77 323.360782,49.77 L334.490782,49.77 C335.600782,49.77 336.590782,49.65 337.100782,49.47 Z" id="アジア最大級のScalaカンファレンス" fill="#FFFFFF" fill-rule="nonzero"></path>
        <path d="M30.1488525,123 L40.1238525,123 L40.1238525,120.942 L36.2598525,120.942 C35.5038525,120.942 34.5378525,121.005 33.7398525,121.089 C37.0158525,117.96 39.3888525,114.873 39.3888525,111.891 C39.3888525,109.098 37.5618525,107.25 34.7268525,107.25 C32.7108525,107.25 31.3458525,108.132 30.0228525,109.56 L31.3878525,110.904 C32.2068525,109.959 33.2148525,109.182 34.4328525,109.182 C36.1548525,109.182 37.0578525,110.337 37.0578525,112.017 C37.0578525,114.558 34.7058525,117.561 30.1488525,121.593 L30.1488525,123 Z M49.909275,123.273 C52.933275,123.273 54.907275,120.585 54.907275,115.209 C54.907275,109.875 52.933275,107.25 49.909275,107.25 C46.864275,107.25 44.911275,109.854 44.911275,115.209 C44.911275,120.585 46.864275,123.273 49.909275,123.273 Z M49.909275,121.362 C48.334275,121.362 47.221275,119.682 47.221275,115.209 C47.221275,110.778 48.334275,109.161 49.909275,109.161 C51.484275,109.161 52.597275,110.778 52.597275,115.209 C52.597275,119.682 51.484275,121.362 49.909275,121.362 Z M59.5476975,123 L69.5226975,123 L69.5226975,120.942 L65.6586975,120.942 C64.9026975,120.942 63.9366975,121.005 63.1386975,121.089 L63.7240562,120.520568 C66.6936176,117.586204 68.7876975,114.692273 68.7876975,111.891 C68.7876975,109.098 66.9606975,107.25 64.1256975,107.25 C62.1096975,107.25 60.7446975,108.132 59.4216975,109.56 L60.7866975,110.904 C61.6056975,109.959 62.6136975,109.182 63.8316975,109.182 C65.5536975,109.182 66.4566975,110.337 66.4566975,112.017 C66.4566975,114.558 64.1046975,117.561 59.5476975,121.593 L59.5476975,123 Z M79.30812,123.273 C82.33212,123.273 84.30612,120.585 84.30612,115.209 C84.30612,109.875 82.33212,107.25 79.30812,107.25 C76.26312,107.25 74.31012,109.854 74.31012,115.209 C74.31012,120.585 76.26312,123.273 79.30812,123.273 Z M79.30812,121.362 C77.73312,121.362 76.62012,119.682 76.62012,115.209 C76.62012,110.778 77.73312,109.161 79.30812,109.161 C80.88312,109.161 81.99612,110.778 81.99612,115.209 C81.99612,119.682 80.88312,121.362 79.30812,121.362 Z M94.3855425,118.128 L94.3855425,114.411 L98.6065425,114.411 L98.6065425,118.128 L94.3855425,118.128 Z M107.993543,118.128 L100.622543,118.128 L100.622543,114.411 L106.481543,114.411 L106.481543,112.584 L100.622543,112.584 L100.622543,109.686 L106.964543,109.686 L106.964543,107.796 L94.8055425,107.796 C95.0785425,107.166 95.3725425,106.473 95.6245425,105.822 L93.6505425,105.297 C92.6845425,108.09 91.0045425,110.757 89.0725425,112.416 C89.5555425,112.71 90.3955425,113.34 90.7735425,113.676 C91.8445425,112.626 92.8945425,111.24 93.7975425,109.686 L98.6065425,109.686 L98.6065425,112.584 L92.4325425,112.584 L92.4325425,118.128 L89.0515425,118.128 L89.0515425,120.018 L98.6065425,120.018 L98.6065425,124.659 L100.622543,124.659 L100.622543,120.018 L107.993543,120.018 L107.993543,118.128 Z M113.557965,123 L122.377965,123 L122.377965,121.005 L119.353965,121.005 L119.353965,107.544 L117.526965,107.544 C116.644965,108.09 115.615965,108.447 114.166965,108.72 L114.166965,110.253 L116.938965,110.253 L116.938965,121.005 L113.557965,121.005 L113.557965,123 Z M132.436388,123.273 C135.460388,123.273 137.434388,120.585 137.434388,115.209 C137.434388,109.875 135.460388,107.25 132.436388,107.25 C129.391388,107.25 127.438388,109.854 127.438388,115.209 C127.438388,120.585 129.391388,123.273 132.436388,123.273 Z M132.436388,121.362 C130.861388,121.362 129.748388,119.682 129.748388,115.209 C129.748388,110.778 130.861388,109.161 132.436388,109.161 C134.011388,109.161 135.124388,110.778 135.124388,115.209 C135.124388,119.682 134.011388,121.362 132.436388,121.362 Z M147.19881,116.406 C147.32481,115.314 147.38781,114.264 147.38781,113.298 L156.41781,113.298 L156.41781,116.406 L147.19881,116.406 Z M156.41781,108.321 L156.41781,111.429 L147.38781,111.429 L147.38781,108.321 L156.41781,108.321 Z M158.47581,106.431 L145.39281,106.431 L145.39281,113.025 C145.39281,116.322 145.07781,120.438 141.80181,123.252 C142.24281,123.546 142.99881,124.26 143.29281,124.68 C145.28781,122.979 146.33781,120.648 146.88381,118.296 L156.41781,118.296 L156.41781,121.971 C156.41781,122.37525 156.276643,122.550104 155.897258,122.576439 L155.324493,122.592283 C154.578303,122.605188 153.258968,122.604316 151.96581,122.538 C152.30181,123.084 152.67981,124.029 152.80581,124.596 L153.835782,124.591236 C155.450643,124.57325 156.56481,124.4945 157.29981,124.197 C158.13981,123.882 158.47581,123.273 158.47581,122.013 L158.47581,106.431 Z M166.686233,123 L175.506233,123 L175.506233,121.005 L172.482233,121.005 L172.482233,107.544 L170.655233,107.544 C169.773233,108.09 168.744233,108.447 167.295233,108.72 L167.295233,110.253 L170.067233,110.253 L170.067233,121.005 L166.686233,121.005 L166.686233,123 Z M183.632655,123 L186.110655,123 L186.150101,122.133377 C186.425268,116.617399 187.106875,113.328732 190.562655,109.014 L190.562655,107.544 L180.608655,107.544 L180.608655,109.581 L187.874655,109.581 C184.892655,113.739 183.905655,117.351 183.632655,123 Z M199.865078,121.089 L199.865078,115.755 L209.756078,115.755 L209.756078,121.089 L199.865078,121.089 Z M209.756078,108.699 L209.756078,113.823 L199.865078,113.823 L199.865078,108.699 L209.756078,108.699 Z M197.870078,106.725 L197.870078,124.428 L199.865078,124.428 L199.865078,123.063 L209.756078,123.063 L209.756078,124.344 L211.835078,124.344 L211.835078,106.725 L197.870078,106.725 Z M222.9855,127.179 L224.4975,126.507 C222.6915,123.504 221.8515,119.955 221.8515,116.427 C221.8515,112.92 222.6915,109.371 224.4975,106.347 L222.9855,105.696 C221.0325,108.867 219.8775,112.29 219.8775,116.427 C219.8775,120.606 221.0325,123.987 222.9855,127.179 Z M239.700923,121.824 L239.700923,113.886 L246.735923,113.886 L246.735923,111.975 L239.700923,111.975 L239.700923,105.423 L237.621923,105.423 L237.621923,111.975 L230.691923,111.975 L230.691923,113.886 L237.621923,113.886 L237.621923,121.824 L229.347923,121.824 L229.347923,123.735 L248.100923,123.735 L248.100923,121.824 L239.700923,121.824 Z M254.400345,127.179 C256.374345,123.987 257.529345,120.606 257.529345,116.427 C257.529345,112.29 256.374345,108.867 254.400345,105.696 L252.888345,106.347 C254.694345,109.371 255.534345,112.92 255.534345,116.427 C255.534345,119.955 254.694345,123.504 252.888345,126.507 L254.400345,127.179 Z M263.765768,127.2 C265.928768,126.381 267.209768,124.68 267.209768,122.475 C267.209768,120.858 266.516768,119.871 265.340768,119.871 C264.416768,119.871 263.660768,120.48 263.660768,121.425 C263.660768,122.433 264.416768,122.979 265.277768,122.979 C265.361768,122.979 265.424768,122.979 265.508768,122.958 C265.487768,124.197 264.647768,125.247 263.219768,125.835 L263.765768,127.2 Z M280.354613,123 L289.174612,123 L289.174612,121.005 L286.150612,121.005 L286.150612,107.544 L284.323613,107.544 C283.441613,108.09 282.412613,108.447 280.963613,108.72 L280.963613,110.253 L283.735613,110.253 L283.735613,121.005 L280.354613,121.005 L280.354613,123 Z M299.254035,123.273 C302.236035,123.273 304.252035,121.509 304.252035,119.22 C304.252035,117.12 303.034035,115.923 301.648035,115.125 L301.648035,115.02 C302.614035,114.306 303.685035,112.962 303.685035,111.387 C303.685035,108.972 302.005035,107.292 299.317035,107.292 C296.776035,107.292 294.907035,108.867 294.907035,111.282 C294.907035,112.92 295.831035,114.075 296.986035,114.894 L296.986035,114.999 C295.558035,115.755 294.214035,117.12 294.214035,119.157 C294.214035,121.551 296.356035,123.273 299.254035,123.273 Z M300.262035,114.411 L299.869678,114.253696 C298.322579,113.614118 297.070035,112.832769 297.070035,111.282 C297.070035,109.896 298.015035,109.035 299.275035,109.035 C300.787035,109.035 301.648035,110.106 301.648035,111.534 C301.648035,112.563 301.186035,113.55 300.262035,114.411 Z M299.296035,121.53 C297.637035,121.53 296.356035,120.459 296.356035,118.926 C296.356035,117.582 297.091035,116.427 298.162035,115.692 L298.799508,115.955952 C300.595763,116.713309 301.963035,117.462517 301.963035,119.157 C301.963035,120.606 300.871035,121.53 299.296035,121.53 Z M313.533458,121.089 L313.533458,115.755 L323.424458,115.755 L323.424458,121.089 L313.533458,121.089 Z M323.424458,108.699 L323.424458,113.823 L313.533458,113.823 L313.533458,108.699 L323.424458,108.699 Z M311.538458,106.725 L311.538458,124.428 L313.533458,124.428 L313.533458,123.063 L323.424458,123.063 L323.424458,124.344 L325.503458,124.344 L325.503458,106.725 L311.538458,106.725 Z M336.65388,127.179 L338.16588,126.507 C336.35988,123.504 335.51988,119.955 335.51988,116.427 C335.51988,112.92 336.35988,109.371 338.16588,106.347 L336.65388,105.696 C334.70088,108.867 333.54588,112.29 333.54588,116.427 C333.54588,120.606 334.70088,123.987 336.65388,127.179 Z M347.447303,121.089 L347.447303,115.755 L357.338303,115.755 L357.338303,121.089 L347.447303,121.089 Z M357.338303,108.699 L357.338303,113.823 L347.447303,113.823 L347.447303,108.699 L357.338303,108.699 Z M345.452303,106.725 L345.452303,124.428 L347.447303,124.428 L347.447303,123.063 L357.338303,123.063 L357.338303,124.344 L359.417303,124.344 L359.417303,106.725 L345.452303,106.725 Z M368.068725,127.179 L366.556725,126.507 C368.362725,123.504 369.202725,119.955 369.202725,116.427 C369.202725,112.92 368.362725,109.371 366.556725,106.347 L368.068725,105.696 C370.042725,108.867 371.197725,112.29 371.197725,116.427 C371.197725,120.606 370.042725,123.987 368.068725,127.179 Z" id="2020年10月17日(土),18日(日)" fill="#FFFFFF" fill-rule="nonzero"></path>
    </g>
</svg>