<svg width="248" height="100" viewBox="0 0 248 100" fill="none" xmlns="http://www.w3.org/2000/svg">
<path d="M121.904 69.0626H128.558L125.692 79.9903H119.038L121.904 69.0626ZM46.1875 31.2287H53.0354L69.354 68.8198H60.0291L56.8237 60.7576H42.2535L39.1452 68.8198H30.0146L46.1875 31.2287ZM49.3929 42.1078L44.8276 53.7639H54.0068L49.3929 42.1078ZM74.3565 31.2773L82.2729 26.372V68.7712L74.3565 73.5794V31.2773ZM90.7236 42.2049H98.0087V46.236H98.1059C98.4458 45.7989 98.8344 45.3132 99.3686 44.8276C99.9029 44.3419 100.486 43.9048 101.166 43.5163C101.846 43.1277 102.623 42.7877 103.4 42.5449C104.225 42.3021 105.051 42.1564 105.974 42.1564C107.868 42.1564 109.616 42.4963 111.17 43.1277C112.725 43.7591 114.036 44.6819 115.153 45.896C116.27 47.0617 117.096 48.4701 117.727 50.1214C118.31 51.7241 118.65 53.5211 118.65 55.4638C118.65 57.2608 118.358 58.9606 117.824 60.6119C117.29 62.2632 116.513 63.7202 115.493 64.983C114.473 66.2457 113.307 67.0228 111.899 67.7999C110.442 68.577 108.791 68.9169 106.994 68.9169C105.342 68.9169 103.788 68.6741 102.38 68.1399C100.971 67.6056 99.7086 66.9742 98.7858 65.7601H98.6887V79.9417H90.7722V42.2049H90.7236ZM98.0087 55.7066C98.0087 57.6493 98.543 59.2035 99.66 60.4177C100.777 61.6318 102.331 62.2147 104.322 62.2147C106.314 62.2147 107.916 61.6318 108.985 60.4177C110.102 59.2035 110.636 57.6493 110.636 55.7066C110.636 53.7639 110.102 52.2098 108.985 50.9956C107.868 49.7814 106.314 49.1986 104.322 49.1986C102.331 49.1986 100.729 49.7814 99.66 50.9956C98.543 52.2098 98.0087 53.7639 98.0087 55.7066ZM137.008 31.2287H145.265V68.8198H137.008V31.2287ZM153.618 42.2535H161.243V46.3817H161.34C161.583 45.896 161.923 45.4104 162.409 44.8761C162.846 44.3905 163.429 43.9534 164.06 43.5648C164.692 43.1763 165.42 42.8363 166.246 42.5935C167.071 42.3506 167.946 42.2049 168.868 42.2049C170.86 42.2049 172.511 42.4963 173.725 43.1277C174.939 43.7591 175.911 44.5847 176.591 45.7018C177.271 46.8188 177.756 48.0816 177.999 49.5872C178.242 51.0927 178.388 52.6955 178.388 54.3953V68.7227H170.471V55.9495C170.471 55.221 170.423 54.4439 170.374 53.6668C170.325 52.8897 170.18 52.1612 169.888 51.4813C169.645 50.8013 169.208 50.2671 168.674 49.83C168.14 49.3929 167.363 49.1986 166.343 49.1986C165.323 49.1986 164.497 49.3929 163.866 49.7329C163.235 50.1214 162.749 50.6071 162.409 51.2384C162.069 51.8698 161.875 52.5498 161.729 53.3268C161.632 54.1039 161.583 54.7839 161.583 55.6581V68.7712H153.667V42.2535H153.618ZM202.428 51.0442C202.04 50.5099 201.506 50.0243 200.826 49.6843C200.146 49.3443 199.369 49.1501 198.592 49.1501C196.6 49.1501 195.095 49.7329 193.978 50.8985C192.909 52.0641 192.326 53.6182 192.326 55.5124C192.326 57.4065 192.861 58.9606 193.978 60.1263C195.046 61.2919 196.6 61.8747 198.592 61.8747C199.466 61.8747 200.194 61.6804 200.826 61.2919C201.457 60.9033 201.991 60.4662 202.428 59.932L207.576 65.323C206.362 66.5857 204.954 67.4599 203.303 67.9456C201.651 68.4313 200.097 68.7227 198.592 68.7227C196.649 68.7227 194.803 68.4313 193.103 67.7999C191.404 67.1685 189.898 66.2943 188.635 65.1287C187.372 63.9631 186.353 62.5546 185.624 60.9519C184.896 59.3006 184.556 57.5036 184.556 55.5124C184.556 53.5211 184.896 51.6756 185.624 50.0728C186.353 48.4215 187.324 47.0617 188.635 45.896C189.898 44.7304 191.404 43.8562 193.103 43.2248C194.803 42.5935 196.649 42.3021 198.592 42.3021C200.097 42.3021 201.651 42.5449 203.303 43.0791C204.954 43.5648 206.362 44.439 207.576 45.7018L202.428 51.0442ZM213.307 64.7402C213.307 64.1573 213.405 63.5745 213.647 63.0403C213.842 62.5061 214.182 62.0689 214.57 61.6804C214.959 61.2919 215.396 61.0005 215.93 60.7576C216.464 60.5634 216.999 60.4177 217.63 60.4177C218.213 60.4177 218.796 60.5148 219.33 60.7576C219.864 60.9519 220.301 61.2919 220.69 61.6804C221.078 62.0689 221.37 62.5061 221.612 63.0403C221.807 63.5745 221.952 64.1088 221.952 64.7402C221.952 65.323 221.855 65.9058 221.612 66.44C221.418 66.9742 221.078 67.4114 220.69 67.7999C220.301 68.1884 219.864 68.4798 219.33 68.7227C218.796 68.9169 218.261 69.0626 217.63 69.0626C217.047 69.0626 216.464 68.9655 215.93 68.7227C215.396 68.5284 214.959 68.1884 214.57 67.7999C214.182 67.4114 213.89 66.9742 213.647 66.44C213.405 65.8572 213.307 65.323 213.307 64.7402Z" fill="black"/>
</svg>
