<?xml version="1.0" encoding="UTF-8"?>
<svg width="200px" height="70px" viewBox="0 0 200 70" version="1.1" xmlns="http://www.w3.org/2000/svg" xmlns:xlink="http://www.w3.org/1999/xlink">
    <!-- Generator: Sketch 61.2 (89653) - https://sketch.com -->
    <title>Slice</title>
    <desc>Created with Sketch.</desc>
    <defs>
        <linearGradient x1="25.0147163%" y1="67.4974219%" x2="76.1126887%" y2="31.7604741%" id="linearGradient-1">
            <stop stop-color="#0D55FF" offset="0%"></stop>
            <stop stop-color="#1650FF" offset="18%"></stop>
            <stop stop-color="#2E41FF" offset="47%"></stop>
            <stop stop-color="#562AFF" offset="84%"></stop>
            <stop stop-color="#691FFF" offset="100%"></stop>
        </linearGradient>
    </defs>
    <g id="Page-1" stroke="none" stroke-width="1" fill="none" fill-rule="evenodd">
        <g id="FW_brand_primary" transform="translate(10.000000, 17.388889)" fill-rule="nonzero">
            <path d="M18.318082,4.57568427 L3.98014348,18.8575328 C3.55362575,19.3036245 2.96219902,19.5561015 2.34374832,19.5561015 C1.72529762,19.5561015 1.13387089,19.3036245 0.707353162,18.8575328 C0.255112608,18.4191618 0,17.8172946 0,17.1887299 C0,16.5601651 0.255112608,15.9582979 0.707353162,15.5199269 L14.9673681,1.31569711 C15.4074608,0.865225719 16.0116917,0.611111111 16.6427251,0.611111111 C17.2737584,0.611111111 17.8779893,0.865225719 18.318082,1.31569711 C18.7659256,1.7405463 19.0193942,2.32965937 19.0193942,2.94569069 C19.0193942,3.56172202 18.7659256,4.15083508 18.318082,4.57568427 Z M46.2926468,15.3646894 C45.8661291,14.9185978 45.2747024,14.6661207 44.6562517,14.6661207 C44.037801,14.6661207 43.4463742,14.9185978 43.0198565,15.3646894 L28.681918,29.6465379 C27.8303181,30.5676569 27.8303181,31.9854062 28.681918,32.9065251 C29.1220107,33.3569965 29.7262416,33.6111111 30.3572749,33.6111111 C30.9883083,33.6111111 31.5925392,33.3569965 32.0326319,32.9065251 L46.2926468,18.7022953 C46.7448874,18.2639243 47,17.6620571 47,17.0334924 C47,16.4049276 46.7448874,15.8030604 46.2926468,15.3646894 L46.2926468,15.3646894 Z M21.279178,12.3375585 C20.8526603,11.8914668 20.2612335,11.6389898 19.6427828,11.6389898 C19.0243321,11.6389898 18.4329054,11.8914668 18.0063877,12.3375585 L7.72047527,22.5832324 C7.27263165,23.0080816 7.01916306,23.5971947 7.01916306,24.213226 C7.01916306,24.8292573 7.27263165,25.4183704 7.72047527,25.8432196 C8.16056792,26.293691 8.76479888,26.5478056 9.39583221,26.5478056 C10.0268655,26.5478056 10.6310965,26.293691 11.0711892,25.8432196 L21.279178,15.5975456 C21.7270216,15.1726965 21.9804902,14.5835834 21.9804902,13.9675521 C21.9804902,13.3515207 21.7270216,12.7624077 21.279178,12.3375585 L21.279178,12.3375585 Z M39.2795247,8.37900263 C38.853007,7.93291098 38.2615803,7.68043395 37.6431296,7.68043395 C37.0246789,7.68043395 36.4332521,7.93291098 36.0067344,8.37900263 L25.720822,18.6246766 C25.2729784,19.0495258 25.0195098,19.6386388 25.0195098,20.2546702 C25.0195098,20.8707015 25.2729784,21.4598146 25.720822,21.8846637 C26.1609147,22.3351351 26.7651456,22.5892497 27.3961789,22.5892497 C28.0272123,22.5892497 28.6314432,22.3351351 29.0715359,21.8846637 L39.2795247,11.7166085 C39.7317653,11.2782375 39.9868779,10.6763703 39.9868779,10.0478056 C39.9868779,9.41924086 39.7317653,8.81737365 39.2795247,8.37900263 L39.2795247,8.37900263 Z M22.1363374,25.4551259 C21.1858364,24.5962761 19.7361244,24.5962761 18.7856235,25.4551259 L14.7335974,29.5689192 C14.2857538,29.9937684 14.0322852,30.5828815 14.0322852,31.1989128 C14.0322852,31.8149441 14.2857538,32.4040572 14.7335974,32.8289064 C15.17369,33.2793778 15.777921,33.5334924 16.4089543,33.5334924 C17.0399876,33.5334924 17.6442186,33.2793778 18.0843113,32.8289064 L22.1363374,28.7927318 C22.5885779,28.3543608 22.8436905,27.7524936 22.8436905,27.1239288 C22.8436905,26.4953641 22.5885779,25.8934969 22.1363374,25.4551259 L22.1363374,25.4551259 Z M32.2664026,1.39331585 C31.8398849,0.947224201 31.2484582,0.694747172 30.6300075,0.694747172 C30.0115568,0.694747172 29.42013,0.947224201 28.9936123,1.39331585 L24.8636626,5.42949044 C24.2651152,6.0256963 24.0313558,6.8946853 24.2504394,7.70911768 C24.4695229,8.52355006 25.1081654,9.15969417 25.9257964,9.37792066 C26.7434273,9.59614715 27.6158291,9.36330224 28.2143765,8.76709634 L32.2664026,4.65330302 C32.7142462,4.22845383 32.9677148,3.63934076 32.9677148,3.02330943 C32.9677148,2.40727811 32.7142462,1.81816504 32.2664026,1.39331585 Z" id="Shape" fill="url(#linearGradient-1)"></path>
            <path d="M62.8686131,3.61623266 C61.1021898,3.61623266 59.6569343,4.06931203 58.8540146,5.05098399 C57.9032882,6.15861342 57.4176217,7.5557647 57.4890511,8.97767184 L57.4890511,12.3757671 L55,12.3757671 L55,15.9248888 L57.4890511,15.9248888 L57.4890511,28.6111111 L61.4233577,28.6111111 L61.4233577,15.9248888 L65.6788321,15.9248888 L65.6788321,12.3757671 L61.4233577,12.3757671 L61.4233577,10.034857 C61.3664082,9.21988068 61.5616183,8.40683152 61.9854015,7.69394697 C62.4293607,7.28058118 63.0526504,7.0851834 63.6715328,7.16535437 L65.5985401,7.31638083 L66,7.46740728 L66,3.9937988 L65.7591241,3.9937988 C64.8262828,3.71087528 63.8481282,3.58310615 62.8686131,3.61623266 Z" id="Path" fill="#232323"></path>
            <path d="M79.4785905,12.8118809 C78.1037819,12.0155826 76.5441728,11.6015239 74.9589292,11.6119616 C73.3722309,11.5897073 71.8095772,12.0045743 70.4392678,12.8118809 C69.0957198,13.6070619 67.9764831,14.736212 67.1882834,16.0916602 C65.6039055,18.8928088 65.6039055,22.3299034 67.1882834,25.131052 C68.7888289,27.9281314 71.7577098,29.6396611 74.9589292,29.6107506 C76.5441728,29.6211882 78.1037819,29.2071296 79.4785905,28.4108313 C80.8221386,27.6156502 81.9413753,26.4865002 82.729575,25.131052 C83.5793018,23.7958902 84.0205423,22.2378697 83.9982519,20.6513534 C84.0314935,19.0383431 83.5900008,17.4515945 82.729575,16.0916602 C81.9413753,14.736212 80.8221386,13.6070619 79.4785905,12.8118809 L79.4785905,12.8118809 Z M78.6063752,24.3311058 C77.6659915,25.3465572 76.3355132,25.90097 74.9589292,25.8510035 C73.6097051,25.8778398 72.3126623,25.3253489 71.3907755,24.3311058 C70.4012262,23.3706214 69.8549635,22.0363768 69.8842217,20.6513534 C69.8549635,19.26633 70.4012262,17.9320853 71.3907755,16.971601 C72.2714503,15.9110283 73.5884685,15.3205024 74.9589292,15.3717086 C76.3317928,15.3421913 77.6543234,15.8932923 78.6063752,16.8916064 C79.5652954,17.8728524 80.1059631,19.1934315 80.112929,20.5713588 C80.1098859,21.9736691 79.570155,23.3206184 78.6063752,24.3311058 L78.6063752,24.3311058 Z" id="Shape" fill="#232323"></path>
            <path d="M91.8461538,12.0836201 C91.0559536,12.3424321 90.342142,12.7957881 89.7692308,13.4027156 L89.7692308,11.9284324 L86,11.9284324 L86,28.6111111 L89.7692308,28.6111111 L89.7692308,19.9981932 C89.7556607,19.3438645 89.8333439,18.6908599 90,18.0583469 C90.3374458,16.8139217 91.3558792,15.8772528 92.6153846,15.6529374 C93.6181148,15.3797318 94.6537615,15.249147 95.6923077,15.2649681 L96,15.2649681 L96,11.6180569 L95.6923077,11.6180569 C94.3942451,11.5750392 93.0972732,11.732033 91.8461538,12.0836201 Z" id="Path" fill="#232323"></path>
            <polygon id="Path" fill="#232323" points="113.431472 12.3724404 108.071066 12.3724404 101.979695 18.4147365 101.979695 3.61111111 98 3.61111111 98 28.6111111 101.979695 28.6111111 101.979695 21.5869419 108.720812 28.6111111 114 28.6111111 105.715736 19.8497818"></polygon>
            <polygon id="Path" fill="#232323" points="137.734072 12.6111111 133.700831 24.1552972 129.66759 12.6111111 126.254848 12.6111111 122.221607 24.1552972 118.188366 12.6111111 114 12.6111111 120.282548 29.6111111 124.160665 29.6111111 127.961219 18.3832041 131.839335 29.6111111 135.639889 29.6111111 142 12.6111111"></polygon>
            <path d="M156.603677,14.3311087 C155.856523,13.4654052 154.932989,12.7823523 153.899797,12.3312982 C152.827981,11.8473392 151.66989,11.6020594 150.500633,11.6113664 C147.407367,11.6053943 144.559959,13.3559776 143.084275,16.1709344 C142.337921,17.5348627 141.964049,19.0833671 142.002723,20.6505099 C141.981492,23.047233 142.896935,25.3510447 144.540979,27.038306 C146.185022,28.7255673 148.418008,29.6529478 150.732394,29.609661 C152.100198,29.6137173 153.449784,29.2849104 154.672334,28.6497519 C155.894137,28.0427451 156.954757,27.1367135 157.762483,26.0100021 L157.91699,25.7700248 L155.135856,23.6102295 L154.981349,23.8502067 C154.508713,24.5223949 153.867562,25.0479666 153.12726,25.3700627 C152.389536,25.7776952 151.568493,25.9970887 150.732394,26.0100021 C149.505066,26.0559031 148.310311,25.5955833 147.410484,24.7301233 C146.625967,24.0060329 146.062213,23.0609323 145.788156,22.010381 L158.921289,22.010381 L158.921289,21.7704038 C158.980816,21.3735435 159.006666,20.9720478 158.998543,20.5705175 C158.987764,19.3954204 158.778604,18.2313278 158.380513,17.1308434 C157.954196,16.095361 157.352442,15.147185 156.603677,14.3311087 L156.603677,14.3311087 Z M145.942663,18.8106842 C146.223702,17.8307261 146.790325,16.9646305 147.564991,16.3309192 C148.378165,15.5981331 149.422687,15.1996666 150.500633,15.2110253 C151.626838,15.1899265 152.723092,15.5872176 153.590782,16.3309192 C154.315978,16.9804146 154.828804,17.8467942 155.058603,18.8106842 L145.942663,18.8106842 Z" id="Shape" fill="#232323"></path>
            <path d="M165.86128,25.9912545 C165.324582,26.0545535 164.786402,25.8849295 164.39721,25.5298082 C164.09428,24.9860429 163.953687,24.3745365 163.990524,23.7609309 L163.990524,3.61111111 L160.005003,3.61111111 L160.005003,24.7607311 C159.94595,26.0537333 160.411475,27.3192308 161.306398,28.2984858 C162.218641,29.1902923 163.493319,29.6667908 164.803896,29.6059168 C165.467965,29.6045217 166.127337,29.5006111 166.755988,29.298286 L167,29.298286 L167,25.9143468 L165.86128,25.9143468 L165.86128,25.9912545 Z" id="Path" fill="#232323"></path>
            <path d="M175.671139,25.916652 L174.848985,25.916652 C174.109047,25.916652 173.615755,25.7628206 173.451324,25.455158 C173.106294,24.9252192 172.961527,24.3022181 173.040247,23.6860979 L173.040247,3.61111111 L169.011695,3.61111111 L169.011695,24.7629171 C168.920786,26.0468152 169.362496,27.3140727 170.244925,28.3010374 C171.178667,29.1764964 172.458975,29.6500365 173.780186,29.6086035 C174.451424,29.6072083 175.117915,29.5032869 175.753354,29.3009409 L176,29.3009409 L176,25.916652 L175.671139,25.916652 Z" id="Path" fill="#232323"></path>
        </g>
    </g>
</svg>