<?xml version="1.0" encoding="UTF-8" standalone="no"?>
<svg
   xmlns:dc="http://purl.org/dc/elements/1.1/"
   xmlns:cc="http://creativecommons.org/ns#"
   xmlns:rdf="http://www.w3.org/1999/02/22-rdf-syntax-ns#"
   xmlns:svg="http://www.w3.org/2000/svg"
   xmlns="http://www.w3.org/2000/svg"
   xmlns:sodipodi="http://sodipodi.sourceforge.net/DTD/sodipodi-0.dtd"
   xmlns:inkscape="http://www.inkscape.org/namespaces/inkscape"
   sodipodi:docname="japantaxi.svg"
   inkscape:version="1.0beta2 (2b71d25, 2019-12-03)"
   id="svg8"
   version="1.1"
   viewBox="0 0 200 70"
   height="70mm"
   width="200mm">
  <defs
     id="defs2">
    <style
       id="style109">.cls-1{fill:#1f305f;}.cls-2{fill:#203760;stroke:#203760;stroke-miterlimit:10;stroke-width:0.23px;}</style>
  </defs>
  <sodipodi:namedview
     inkscape:window-maximized="0"
     inkscape:window-y="23"
     inkscape:window-x="0"
     inkscape:window-height="801"
     inkscape:window-width="1440"
     showgrid="false"
     inkscape:document-rotation="0"
     inkscape:current-layer="layer1"
     inkscape:document-units="mm"
     inkscape:cy="330.70866"
     inkscape:cx="944.88189"
     inkscape:zoom="0.51223333"
     inkscape:pageshadow="2"
     inkscape:pageopacity="0.0"
     borderopacity="1.0"
     bordercolor="#666666"
     pagecolor="#ffffff"
     id="base" />
  <metadata
     id="metadata5">
    <rdf:RDF>
      <cc:Work
         rdf:about="">
        <dc:format>image/svg+xml</dc:format>
        <dc:type
           rdf:resource="http://purl.org/dc/dcmitype/StillImage" />
        <dc:title></dc:title>
      </cc:Work>
    </rdf:RDF>
  </metadata>
  <g
     id="layer1"
     inkscape:groupmode="layer"
     inkscape:label="レイヤー 1">
    <g
       transform="matrix(0.4,0,0,0.4,20,12.431)"
       id="g199">
      <path
         inkscape:connector-curvature="0"
         class="cls-1"
         d="m 91.65,26.21 -6.5,46.15 H 76.44 L 77.29,67 77.07,66.75 Q 71,73.26 64.64,73.26 A 13.52,13.52 0 0 1 53.88,67.92 19.55,19.55 0 0 1 49.45,55 q 0,-13.14 8.25,-21.67 8.25,-8.53 23.06,-8.53 a 39.22,39.22 0 0 1 10.89,1.41 z M 78.33,59 82.11,32.36 q -1.41,-0.1 -2.71,-0.1 -10.29,0 -15.65,6.55 a 22.48,22.48 0 0 0 -5.37,14.62 15,15 0 0 0 2.62,9.12 7.83,7.83 0 0 0 6.56,3.54 q 3.16,0 6.93,-3.13 3.77,-3.13 3.84,-3.96 z"
         transform="translate(-3.21,-2.27)"
         id="path115" />
      <path
         inkscape:connector-curvature="0"
         class="cls-1"
         d="m 115.06,14.52 -1.66,11.69 a 20.92,20.92 0 0 1 7.83,-1.41 17.59,17.59 0 0 1 13.63,6.12 q 5.5,6.12 5.5,15.35 a 27.9,27.9 0 0 1 -7.45,19.26 q -7.45,8.28 -20.4,8.28 h -5.77 L 103.67,96 H 95 l 8.18,-58.34 A 22,22 0 0 0 98,42.86 q -2.28,3.21 -2.58,3.21 c -0.27,0 -0.4,-0.22 -0.4,-0.65 q 0,-2.31 2.63,-6.65 a 27.82,27.82 0 0 1 6.3,-7.3 l 2.36,-17 z m -2.56,18.16 -4.72,33.71 H 112 q 8.89,0 14.16,-6 a 20.69,20.69 0 0 0 5.27,-14.12 q 0,-7 -3.71,-11 a 12.42,12.42 0 0 0 -9.44,-3.94 13.14,13.14 0 0 0 -5.78,1.35 z"
         transform="translate(-3.21,-2.27)"
         id="path117" />
      <path
         inkscape:connector-curvature="0"
         class="cls-1"
         d="m 188.11,26.21 -6.49,46.15 h -8.72 l 0.86,-5.32 -0.22,-0.25 q -6.07,6.47 -12.43,6.47 A 13.52,13.52 0 0 1 150.35,67.92 19.55,19.55 0 0 1 145.91,55 q 0,-13.14 8.25,-21.67 8.25,-8.53 23.06,-8.53 a 39.22,39.22 0 0 1 10.89,1.41 z M 174.8,59 178.58,32.36 q -1.41,-0.1 -2.71,-0.1 -10.29,0 -15.65,6.55 a 22.48,22.48 0 0 0 -5.37,14.62 15,15 0 0 0 2.59,9.1 7.83,7.83 0 0 0 6.56,3.56 q 3.16,0 6.93,-3.13 3.77,-3.13 3.87,-3.96 z"
         transform="translate(-3.21,-2.27)"
         id="path119" />
      <path
         inkscape:connector-curvature="0"
         class="cls-1"
         d="m 210.16,26.21 -1.16,8.16 0.23,0.16 q 7.37,-9 15.3,-9 a 9.81,9.81 0 0 1 8.33,3.94 16.46,16.46 0 0 1 3,10.16 23.47,23.47 0 0 1 -0.3,3.66 l -4.42,29.1 h -8.62 L 226.68,43 a 18.21,18.21 0 0 0 0.25,-2.86 8.74,8.74 0 0 0 -1.51,-5.52 4.63,4.63 0 0 0 -3.77,-1.91 8,8 0 0 0 -2.94,0.65 16.28,16.28 0 0 0 -3.5,2 40.64,40.64 0 0 0 -4.6,4.11 q -2.74,2.76 -2.85,3.51 l -4.22,29.4 h -8.61 l 6.47,-46.15 z"
         transform="translate(-3.21,-2.27)"
         id="path121" />
      <path
         inkscape:connector-curvature="0"
         class="cls-1"
         d="M 287.54,2.27 286.29,11 H 265.2 l -8.63,61.36 H 246.9 L 255.52,11 h -21.08 l 1.25,-8.73 z"
         transform="translate(-3.21,-2.27)"
         id="path123" />
      <path
         inkscape:connector-curvature="0"
         class="cls-1"
         d="m 315.28,26.21 -6.49,46.15 h -8.72 l 0.86,-5.32 -0.22,-0.25 q -6.07,6.47 -12.43,6.47 A 13.52,13.52 0 0 1 277.52,67.92 19.55,19.55 0 0 1 273.08,55 q 0,-13.14 8.25,-21.67 8.25,-8.53 23.06,-8.53 a 39.22,39.22 0 0 1 10.89,1.41 z M 302,59 305.78,32.36 q -1.41,-0.1 -2.71,-0.1 -10.29,0 -15.65,6.55 a 22.48,22.48 0 0 0 -5.42,14.64 15,15 0 0 0 2.59,9.1 7.83,7.83 0 0 0 6.56,3.54 q 3.16,0 6.93,-3.13 3.77,-3.13 3.92,-3.96 z"
         transform="translate(-3.21,-2.27)"
         id="path125" />
      <path
         inkscape:connector-curvature="0"
         class="cls-1"
         d="m 363.25,26.21 -18.58,22.91 11.7,23.24 H 347 L 338.56,55.15 325.3,72.36 H 314.58 L 334.7,47.84 323.81,26.21 h 9.33 l 7.33,15.56 12,-15.56 z"
         transform="translate(-3.21,-2.27)"
         id="path127" />
      <path
         inkscape:connector-curvature="0"
         class="cls-1"
         d="m 384.47,16.77 a 4.83,4.83 0 0 0 3.53,-1.48 4.83,4.83 0 0 0 1.48,-3.54 4.89,4.89 0 0 0 -1.48,-3.58 5,5 0 0 0 -7.07,0 4.88,4.88 0 0 0 -1.48,3.59 4.82,4.82 0 0 0 1.48,3.54 4.82,4.82 0 0 0 3.54,1.47 z"
         transform="translate(-3.21,-2.27)"
         id="path129" />
      <path
         inkscape:connector-curvature="0"
         class="cls-1"
         d="m 382,63.6 5.24,-37.4 H 368 V 35 h 9.24 L 372,72.36 h 26.3 c 0,0 1.16,-6.49 4.91,-8.76 z"
         transform="translate(-3.21,-2.27)"
         id="path131" />
      <path
         inkscape:connector-curvature="0"
         class="cls-1"
         d="M 36.19,74.74 C 34.28,89.26 25.92,96 15.58,95.88 a 26.89,26.89 0 0 1 -12.37,-3 l 2.05,-7.93 a 17.48,17.48 0 0 0 9.27,2.59 c 5.86,0.08 10.85,-3.56 12.12,-12.63 L 36.1,2.27 h 9.55 z"
         transform="translate(-3.21,-2.27)"
         id="path133" />
      <path
         inkscape:connector-curvature="0"
         class="cls-2"
         d="m 143.65,102.55 v 6.71 h -2.75 v -16.8 h 4.75 a 7.8,7.8 0 0 1 4.82,1.22 4.37,4.37 0 0 1 1.53,3.68 4.6,4.6 0 0 1 -3.26,4.47 l 4.75,7.44 h -3.13 l -4,-6.71 z m 0,-2.28 h 1.91 a 4.36,4.36 0 0 0 2.78,-0.71 2.58,2.58 0 0 0 0.86,-2.12 2.28,2.28 0 0 0 -0.93,-2 5.11,5.11 0 0 0 -2.8,-0.62 h -1.82 z"
         transform="translate(-3.21,-2.27)"
         id="path135" />
      <path
         inkscape:connector-curvature="0"
         class="cls-2"
         d="m 161.21,109.5 a 6.15,6.15 0 0 1 -4.64,-1.73 6.57,6.57 0 0 1 -1.67,-4.77 7.2,7.2 0 0 1 1.55,-4.9 5.36,5.36 0 0 1 4.26,-1.78 5.24,5.24 0 0 1 4,1.53 5.84,5.84 0 0 1 1.46,4.21 v 1.46 h -8.47 a 4.17,4.17 0 0 0 1,2.84 3.48,3.48 0 0 0 2.66,1 9.82,9.82 0 0 0 2.1,-0.21 11.12,11.12 0 0 0 2.09,-0.71 v 2.2 a 8.32,8.32 0 0 1 -2,0.67 12.22,12.22 0 0 1 -2.34,0.19 z m -0.49,-11.13 a 2.71,2.71 0 0 0 -2.06,0.82 3.89,3.89 0 0 0 -0.93,2.38 h 5.77 a 3.52,3.52 0 0 0 -0.76,-2.38 2.6,2.6 0 0 0 -2.02,-0.82 z"
         transform="translate(-3.21,-2.27)"
         id="path137" />
      <path
         inkscape:connector-curvature="0"
         class="cls-2"
         d="m 177.18,109.27 -0.54,-1.77 h -0.09 a 5.2,5.2 0 0 1 -1.85,1.58 5.86,5.86 0 0 1 -2.39,0.42 4,4 0 0 1 -2.93,-1 3.78,3.78 0 0 1 -1.05,-2.86 3.36,3.36 0 0 1 1.46,-3 8.42,8.42 0 0 1 4.45,-1.09 l 2.2,-0.07 v -0.68 a 2.57,2.57 0 0 0 -0.57,-1.82 2.32,2.32 0 0 0 -1.76,-0.6 6.1,6.1 0 0 0 -1.87,0.29 14.15,14.15 0 0 0 -1.72,0.68 l -0.87,-1.93 a 9.39,9.39 0 0 1 2.26,-0.82 10.4,10.4 0 0 1 2.32,-0.28 5.5,5.5 0 0 1 3.66,1.06 4.14,4.14 0 0 1 1.24,3.32 v 8.56 z m -4,-1.84 a 3.35,3.35 0 0 0 2.36,-0.82 3,3 0 0 0 0.89,-2.31 v -1.1 l -1.63,0.07 a 5.58,5.58 0 0 0 -2.78,0.64 1.94,1.94 0 0 0 -0.87,1.74 1.7,1.7 0 0 0 0.51,1.32 2.17,2.17 0 0 0 1.5,0.46 z"
         transform="translate(-3.21,-2.27)"
         id="path139" />
      <path
         inkscape:connector-curvature="0"
         class="cls-2"
         d="m 187.17,109.5 a 4.43,4.43 0 0 1 -3.71,-1.72 9.45,9.45 0 0 1 0,-9.71 4.47,4.47 0 0 1 3.74,-1.74 4.38,4.38 0 0 1 3.8,1.84 h 0.14 A 16.26,16.26 0 0 1 191,96 v -4.62 h 2.71 v 17.89 h -2.12 l -0.47,-1.67 H 191 a 4.32,4.32 0 0 1 -3.83,1.9 z m 0.72,-2.18 a 2.94,2.94 0 0 0 2.43,-0.94 4.93,4.93 0 0 0 0.78,-3 V 103 a 5.69,5.69 0 0 0 -0.78,-3.41 2.9,2.9 0 0 0 -2.45,-1 2.49,2.49 0 0 0 -2.2,1.16 5.92,5.92 0 0 0 -0.77,3.29 5.77,5.77 0 0 0 0.75,3.22 2.52,2.52 0 0 0 2.24,1.05 z"
         transform="translate(-3.21,-2.27)"
         id="path141" />
      <path
         inkscape:connector-curvature="0"
         class="cls-2"
         d="m 195.62,96.55 h 2.94 l 2.59,7.21 a 13.68,13.68 0 0 1 0.78,2.9 H 202 a 12,12 0 0 1 0.38,-1.53 q 0.28,-0.9 2.92,-8.57 h 2.92 L 202.8,111 q -1.48,4 -4.94,4 a 7.74,7.74 0 0 1 -1.75,-0.2 v -2.14 a 6.35,6.35 0 0 0 1.39,0.14 2.85,2.85 0 0 0 2.75,-2.26 l 0.47,-1.2 z"
         transform="translate(-3.21,-2.27)"
         id="path143" />
      <path
         inkscape:connector-curvature="0"
         class="cls-2"
         d="m 219.3,109.27 h -2.72 V 92.46 h 9.48 v 2.32 H 219.3 V 100 h 6.33 v 2.33 h -6.33 z"
         transform="translate(-3.21,-2.27)"
         id="path145" />
      <path
         inkscape:connector-curvature="0"
         class="cls-2"
         d="m 240.09,102.89 a 6.94,6.94 0 0 1 -1.6,4.86 5.73,5.73 0 0 1 -4.49,1.75 6.1,6.1 0 0 1 -3.15,-0.8 5.32,5.32 0 0 1 -2.1,-2.31 7.87,7.87 0 0 1 -0.74,-3.5 6.89,6.89 0 0 1 1.59,-4.83 5.75,5.75 0 0 1 4.47,-1.74 5.6,5.6 0 0 1 4.37,1.78 6.86,6.86 0 0 1 1.65,4.79 z m -9.25,0 q 0,4.4 3.25,4.4 3.25,0 3.22,-4.4 0,-4.36 -3.24,-4.36 a 2.76,2.76 0 0 0 -2.47,1.13 5.73,5.73 0 0 0 -0.76,3.23 z"
         transform="translate(-3.21,-2.27)"
         id="path147" />
      <path
         inkscape:connector-curvature="0"
         class="cls-2"
         d="M 249.65,96.32 A 6.48,6.48 0 0 1 251,96.43 L 250.73,99 a 5.09,5.09 0 0 0 -1.2,-0.14 3.46,3.46 0 0 0 -2.63,1.06 3.82,3.82 0 0 0 -1,2.75 v 6.64 h -2.7 V 96.55 h 2.12 l 0.36,2.24 h 0.14 a 5,5 0 0 1 1.65,-1.8 3.92,3.92 0 0 1 2.18,-0.67 z"
         transform="translate(-3.21,-2.27)"
         id="path149" />
      <path
         inkscape:connector-curvature="0"
         class="cls-2"
         d="m 265.56,109.27 h -2.75 V 94.82 h -4.94 v -2.36 h 12.63 v 2.36 h -4.94 z"
         transform="translate(-3.21,-2.27)"
         id="path151" />
      <path
         inkscape:connector-curvature="0"
         class="cls-2"
         d="m 284,109.27 h -2.71 v -7.82 a 3.42,3.42 0 0 0 -0.59,-2.2 2.29,2.29 0 0 0 -1.88,-0.72 3,3 0 0 0 -2.5,1 5.61,5.61 0 0 0 -0.8,3.41 v 6.31 h -2.7 V 91.38 h 2.7 v 4.54 a 21.09,21.09 0 0 1 -0.14,2.33 h 0.17 a 3.75,3.75 0 0 1 1.54,-1.43 5,5 0 0 1 2.29,-0.51 q 4.62,0 4.62,4.66 z"
         transform="translate(-3.21,-2.27)"
         id="path153" />
      <path
         inkscape:connector-curvature="0"
         class="cls-2"
         d="m 293.28,109.5 a 6.15,6.15 0 0 1 -4.64,-1.73 6.56,6.56 0 0 1 -1.64,-4.77 7.2,7.2 0 0 1 1.55,-4.9 5.36,5.36 0 0 1 4.26,-1.78 5.24,5.24 0 0 1 4,1.53 5.84,5.84 0 0 1 1.46,4.21 v 1.46 h -8.47 a 4.17,4.17 0 0 0 1,2.84 3.48,3.48 0 0 0 2.66,1 9.82,9.82 0 0 0 2.1,-0.21 11.12,11.12 0 0 0 2.09,-0.71 v 2.2 a 8.32,8.32 0 0 1 -2,0.67 12.22,12.22 0 0 1 -2.37,0.19 z m -0.49,-11.13 a 2.71,2.71 0 0 0 -2.06,0.82 3.89,3.89 0 0 0 -0.92,2.38 h 5.77 a 3.52,3.52 0 0 0 -0.76,-2.38 2.6,2.6 0 0 0 -2.03,-0.82 z"
         transform="translate(-3.21,-2.27)"
         id="path155" />
      <path
         inkscape:connector-curvature="0"
         class="cls-2"
         d="m 310.45,102.55 v 6.71 h -2.75 v -16.8 h 4.75 a 7.8,7.8 0 0 1 4.82,1.22 4.37,4.37 0 0 1 1.56,3.68 4.6,4.6 0 0 1 -3.26,4.47 l 4.75,7.44 h -3.13 l -4,-6.71 z m 0,-2.28 h 1.91 a 4.36,4.36 0 0 0 2.78,-0.71 2.59,2.59 0 0 0 0.86,-2.12 2.28,2.28 0 0 0 -0.93,-2 5.11,5.11 0 0 0 -2.8,-0.62 h -1.82 z"
         transform="translate(-3.21,-2.27)"
         id="path157" />
      <path
         inkscape:connector-curvature="0"
         class="cls-2"
         d="m 322.3,93.19 a 1.5,1.5 0 0 1 0.4,-1.11 1.54,1.54 0 0 1 1.13,-0.39 1.51,1.51 0 0 1 1.11,0.39 1.5,1.5 0 0 1 0.4,1.11 1.47,1.47 0 0 1 -0.4,1.09 1.5,1.5 0 0 1 -1.11,0.4 1.53,1.53 0 0 1 -1.13,-0.4 1.47,1.47 0 0 1 -0.4,-1.09 z m 2.86,16.08 h -2.7 V 96.55 h 2.7 z"
         transform="translate(-3.21,-2.27)"
         id="path159" />
      <path
         inkscape:connector-curvature="0"
         class="cls-2"
         d="m 333.31,109.5 a 4.43,4.43 0 0 1 -3.71,-1.72 9.45,9.45 0 0 1 0,-9.71 4.47,4.47 0 0 1 3.74,-1.74 4.38,4.38 0 0 1 3.82,1.85 h 0.14 a 16.11,16.11 0 0 1 -0.2,-2.16 v -4.64 h 2.71 v 17.89 h -2.12 l -0.47,-1.67 h -0.13 a 4.32,4.32 0 0 1 -3.78,1.9 z m 0.72,-2.18 a 2.94,2.94 0 0 0 2.43,-0.94 4.93,4.93 0 0 0 0.78,-3 V 103 a 5.69,5.69 0 0 0 -0.78,-3.41 2.9,2.9 0 0 0 -2.45,-1 2.48,2.48 0 0 0 -2.19,1.16 5.92,5.92 0 0 0 -0.82,3.25 5.77,5.77 0 0 0 0.75,3.22 2.52,2.52 0 0 0 2.25,1.09 z"
         transform="translate(-3.21,-2.27)"
         id="path161" />
      <path
         inkscape:connector-curvature="0"
         class="cls-2"
         d="m 349.24,109.5 a 6.15,6.15 0 0 1 -4.64,-1.73 6.56,6.56 0 0 1 -1.67,-4.76 7.2,7.2 0 0 1 1.55,-4.9 5.36,5.36 0 0 1 4.26,-1.78 5.24,5.24 0 0 1 4,1.53 5.84,5.84 0 0 1 1.46,4.21 v 1.46 h -8.47 a 4.17,4.17 0 0 0 1,2.84 3.48,3.48 0 0 0 2.66,1 9.82,9.82 0 0 0 2.1,-0.21 11.12,11.12 0 0 0 2.09,-0.71 v 2.2 a 8.32,8.32 0 0 1 -2,0.67 12.22,12.22 0 0 1 -2.34,0.18 z m -0.49,-11.13 a 2.71,2.71 0 0 0 -2.06,0.82 3.89,3.89 0 0 0 -0.92,2.38 h 5.77 a 3.52,3.52 0 0 0 -0.76,-2.38 2.6,2.6 0 0 0 -2.03,-0.82 z"
         transform="translate(-3.21,-2.27)"
         id="path163" />
      <path
         inkscape:connector-curvature="0"
         class="cls-2"
         d="m 361.87,104.16 v -0.74 a 4.34,4.34 0 0 1 0.46,-2.1 6,6 0 0 1 1.61,-1.74 8.9,8.9 0 0 0 1.76,-1.68 2.52,2.52 0 0 0 0.4,-1.43 1.79,1.79 0 0 0 -0.64,-1.48 2.89,2.89 0 0 0 -1.85,-0.52 6.36,6.36 0 0 0 -2,0.31 14.51,14.51 0 0 0 -1.82,0.75 l -1,-2 a 10.12,10.12 0 0 1 5,-1.3 5.41,5.41 0 0 1 3.58,1.1 3.75,3.75 0 0 1 1.32,3 4.34,4.34 0 0 1 -0.25,1.53 4.41,4.41 0 0 1 -0.76,1.28 12.29,12.29 0 0 1 -1.76,1.59 6.77,6.77 0 0 0 -1.43,1.39 2.67,2.67 0 0 0 -0.36,1.48 v 0.52 z m -0.47,3.67 a 1.51,1.51 0 0 1 1.69,-1.74 1.67,1.67 0 0 1 1.26,0.45 1.77,1.77 0 0 1 0.44,1.28 1.83,1.83 0 0 1 -0.44,1.29 1.91,1.91 0 0 1 -2.51,0 1.83,1.83 0 0 1 -0.44,-1.28 z"
         transform="translate(-3.21,-2.27)"
         id="path165" />
    </g>
  </g>
</svg>
