<?xml version="1.0" encoding="UTF-8" standalone="no"?>
<!DOCTYPE svg PUBLIC "-//W3C//DTD SVG 1.1//EN" "http://www.w3.org/Graphics/SVG/1.1/DTD/svg11.dtd">
<svg version="1.1" xmlns="http://www.w3.org/2000/svg" xmlns:xlink="http://www.w3.org/1999/xlink" preserveAspectRatio="xMidYMid meet" viewBox="0 0 640 224" width="640" height="224"><defs><path d="M487.84 12.02C485.35 12.02 482.92 12.71 480.81 14.02C480.81 14.02 480.81 14.02 480.81 14.02L167.86 199.65C167.86 199.65 167.86 199.65 167.86 199.65C164.63 201.22 163.29 205.12 164.86 208.35C166.44 211.58 170.33 212.92 173.56 211.34C173.56 211.34 173.56 211.34 173.56 211.34L173.81 211.21C365.47 107.05 471.95 49.19 493.24 37.61C493.79 37.36 494.33 37.07 494.84 36.74C494.84 36.74 494.84 36.74 494.84 36.74C498.8 34.34 501.22 30.05 501.25 25.43C501.24 18.02 495.24 12.02 487.84 12.02Z" id="eBAwMbB8K"></path><linearGradient id="gradientdQl9WBFe2" gradientUnits="userSpaceOnUse" x1="214.65" y1="180.96" x2="488.13" y2="25.2"><stop style="stop-color: #00adee;stop-opacity: 1" offset="0%"></stop><stop style="stop-color: #9f76a6;stop-opacity: 1" offset="100%"></stop></linearGradient><path d="M487.84 12.02C487.84 12.02 487.84 12.02 487.84 12.02C487.36 11.99 486.88 11.99 486.4 12.02C486.4 12.02 486.4 12.02 486.4 12.02C343.3 32.42 263.81 43.75 247.91 46.02C237.43 46.74 229.53 55.83 230.26 66.3C230.98 76.78 240.07 84.68 250.54 83.95C252.04 83.85 253.53 83.57 254.96 83.11C278.42 78.67 466.09 43.16 489.55 38.72C490.04 38.65 490.52 38.56 491 38.45C491 38.45 491 38.45 491 38.45C497.01 36.99 501.24 31.61 501.25 25.43C501.25 18.02 495.24 12.02 487.84 12.02Z" id="ago86by4h"></path><linearGradient id="gradientb24pnGgR24" gradientUnits="userSpaceOnUse" x1="250.4" y1="64.78" x2="473.54" y2="26.22"><stop style="stop-color: #ec037c;stop-opacity: 1" offset="0%"></stop><stop style="stop-color: #9f76a6;stop-opacity: 1" offset="100%"></stop></linearGradient><path d="M336.19 169.32C331.56 161.91 308.42 124.85 266.77 58.15C266.77 58.15 266.77 58.15 266.77 58.15C263.33 48.22 252.5 42.95 242.57 46.39C232.64 49.82 227.38 60.65 230.81 70.58C230.81 70.58 230.81 70.58 230.81 70.58C231.49 72.82 232.58 74.92 234.03 76.76C240.04 88.28 288.12 180.38 294.13 191.89C294.72 193.37 295.46 194.78 296.33 196.11C296.33 196.11 296.33 196.11 296.33 196.11C303.6 207.2 318.49 210.3 329.58 203.03C336.52 198.49 340.62 190.68 340.43 182.38C340.32 177.71 338.85 173.17 336.19 169.32Z" id="c1MUaLcWxv"></path><linearGradient id="gradientd9xxROf3E" gradientUnits="userSpaceOnUse" x1="244.12" y1="57.56" x2="316.34" y2="182.82"><stop style="stop-color: #ec037c;stop-opacity: 1" offset="0%"></stop><stop style="stop-color: #5c2d90;stop-opacity: 1" offset="100%"></stop></linearGradient><path d="M329.86 163.07C329.86 163.07 329.86 163.07 329.86 163.07C328.65 162.26 327.38 161.57 326.05 160.99C314.5 154.61 256.72 122.69 152.72 65.24C152.72 65.24 152.72 65.24 152.72 65.24C148.73 62.86 143.56 64.17 141.18 68.17C138.8 72.16 140.11 77.33 144.11 79.71C159.62 91.71 283.7 187.74 299.21 199.74C308.43 209.26 323.62 209.5 333.14 200.28C337.97 195.6 340.61 189.11 340.43 182.38C340.24 174.61 336.3 167.41 329.86 163.07Z" id="a1cH80XHmv"></path><linearGradient id="gradienta2j9QgSK04" gradientUnits="userSpaceOnUse" x1="149.53" y1="72.85" x2="318.6" y2="184.42"><stop style="stop-color: #44c7f4;stop-opacity: 1" offset="0%"></stop><stop style="stop-color: #5c2d90;stop-opacity: 1" offset="100%"></stop></linearGradient><path d="M331.81 81.74C331.81 81.74 331.81 81.74 331.81 81.74C331.81 139.95 331.81 172.28 331.81 178.75C331.81 178.75 331.81 178.75 331.81 178.75C273.61 178.75 241.27 178.75 234.81 178.75C234.81 178.75 234.81 178.75 234.81 178.75C234.81 120.55 234.81 88.21 234.81 81.74C234.81 81.74 234.81 81.74 234.81 81.74C293.01 81.74 325.35 81.74 331.81 81.74Z" id="jQvZrfDdK"></path><path d="M279.54 160.56C279.54 160.56 279.54 160.56 279.54 160.56C279.54 164.19 279.54 166.22 279.54 166.62C279.54 166.62 279.54 166.62 279.54 166.62C257.72 166.62 245.6 166.62 243.17 166.62C243.17 166.62 243.17 166.62 243.17 166.62C243.17 162.98 243.17 160.96 243.17 160.56C243.17 160.56 243.17 160.56 243.17 160.56C265 160.56 277.12 160.56 279.54 160.56Z" id="foy7bdEJ3"></path><path d="M245.59 104.62C246.14 105.47 247.06 106.02 248.08 106.08C249.13 106.03 249.94 105.14 249.89 104.09C249.88 104.02 249.88 103.95 249.86 103.88C249.86 103.21 249.86 99.88 249.86 93.87L254.22 93.87C254.22 99.89 254.22 103.23 254.22 103.89C254.34 105.53 253.78 107.14 252.66 108.34C251.49 109.44 249.93 110.01 248.32 109.94C246.14 110.05 244.05 109.05 242.77 107.28C243.34 106.75 245.3 104.88 245.59 104.62Z" id="c3mJddHlyD"></path><path d="M267.95 93.87L267.95 97.58L259.56 97.58L259.56 100L267.17 100L267.17 103.46L259.56 103.46L259.56 105.97L268.06 105.97L268.06 109.77L255.23 109.77L255.23 93.95L267.95 93.87Z" id="cnQ1d03Br"></path><path d="M268.95 97.7L268.95 93.89L282.8 93.89L282.8 97.7L278.06 97.7L278.06 109.68L273.69 109.68L273.69 97.7L268.95 97.7Z" id="bjeOg3mtJ"></path><path d="M245.61 113.27L246.67 113.29L247.62 113.31L248.46 113.33L249.2 113.35L249.83 113.36L250.35 113.37L250.76 113.38L251.07 113.38L251.27 113.38L251.7 113.36L252.12 113.38L252.54 113.42L252.96 113.49L253.37 113.59L253.77 113.72L254.16 113.88L254.54 114.07L254.9 114.28L255.25 114.52L255.59 114.79L255.76 114.98L255.92 115.19L256.06 115.4L256.19 115.62L256.3 115.85L256.39 116.09L256.47 116.34L256.53 116.59L256.57 116.84L256.59 117.1L256.6 117.36L256.58 117.78L256.52 118.2L256.41 118.6L256.25 118.98L256.06 119.34L255.83 119.67L255.56 119.98L255.25 120.26L254.92 120.5L254.55 120.71L254.16 120.87L254.65 120.99L255.11 121.17L255.53 121.41L255.92 121.69L256.27 122.02L256.58 122.39L256.83 122.79L257.04 123.23L257.18 123.69L257.27 124.18L257.3 124.68L257.24 125.39L257.08 126.05L256.82 126.65L256.45 127.19L255.99 127.66L255.43 128.07L254.78 128.41L254.04 128.68L253.21 128.87L252.3 128.99L251.31 129.03L243.17 129.03L243.17 113.21L244.44 113.24L245.61 113.27ZM247.43 125.67L250.83 125.67L251.73 125.57L252.39 125.29L252.79 124.84L252.93 124.22L252.79 123.61L252.37 123.15L251.7 122.86L250.78 122.76L247.43 122.76L247.43 125.67ZM247.43 119.64L250.26 119.64L251.15 119.55L251.81 119.3L252.22 118.87L252.36 118.27L251.95 117.68L251.49 117.26L250.97 117L250.4 116.92L247.43 116.92L247.43 119.64Z" id="a3KuBTq29f"></path><path d="M259.93 113.34L260.79 113.35L261.57 113.36L262.29 113.36L262.93 113.37L263.51 113.37L264.01 113.37L264.45 113.38L264.81 113.38L265.1 113.38L265.32 113.38L265.47 113.38L265.91 113.36L266.34 113.37L266.76 113.4L267.19 113.46L267.61 113.54L268.02 113.65L268.42 113.78L268.82 113.94L269.2 114.12L269.58 114.32L269.94 114.55L270.29 114.8L270.63 115.07L270.84 115.31L271.04 115.55L271.22 115.81L271.38 116.07L271.53 116.35L271.66 116.63L271.77 116.92L271.86 117.21L271.93 117.52L271.99 117.82L272.02 118.13L272.04 118.45L272.03 118.76L272.03 119.26L271.98 119.74L271.88 120.22L271.74 120.67L271.55 121.11L271.33 121.53L271.06 121.93L270.77 122.3L270.43 122.64L270.06 122.95L269.67 123.22L269.24 123.45L268.78 123.65L272.59 129.16L267.47 129.16L264.28 124.37L262.38 124.37L262.38 129.15L258 129.15L258 113.33L259 113.33L259.93 113.34ZM265.51 117.14L265.38 117.16L265.25 117.19L262.36 117.19L262.36 120.99L265.27 120.99L266.18 120.76L266.87 120.46L267.33 120.07L267.57 119.6L267.6 119.47L267.61 119.35L267.62 119.22L267.62 119.09L267.5 118.34L267.11 117.73L266.52 117.3L265.78 117.13L265.65 117.13L265.51 117.14Z" id="b1QoabeBAt"></path><path d="M283.39 129.2L282.26 126.35L276.12 126.35L274.98 129.15L270.42 129.15L277.13 113.27L281.35 113.27L288.08 129.2L283.39 129.2ZM280.93 122.93L279.16 118.46L277.38 122.93L280.93 122.93Z" id="b56zB8HSnK"></path><path d="M292.97 113.38L292.97 129.15L288.6 129.15L288.6 113.33L292.97 113.38Z" id="a1d9IXUA9r"></path><path d="M298.08 113.38L304.59 121.75L304.59 113.38L308.92 113.38L308.92 129.15L305.12 129.15L298.35 120.47L298.35 129.15L294 129.15L294 113.33L298.08 113.38Z" id="c332OtxqHX"></path><path d="M311.64 123.94C313.08 125.14 314.9 125.81 316.77 125.84C317.97 125.84 318.68 125.44 318.68 124.75C318.68 124.75 318.68 124.75 318.68 124.75C318.68 124.07 318.16 123.75 315.99 123.21C312.63 122.45 310.02 121.5 310.02 118.27C310.02 118.27 310.02 118.27 310.02 118.27C310.02 115.34 312.34 113.21 316.15 113.21C318.49 113.12 320.8 113.86 322.65 115.3C322.43 115.61 320.68 118.09 320.46 118.4C319.18 117.44 317.63 116.89 316.03 116.84C314.97 116.84 314.45 117.28 314.45 117.85C314.45 117.85 314.45 117.85 314.45 117.85C314.45 118.57 315.01 118.9 317.21 119.39C320.82 120.19 323.09 121.29 323.09 124.32C323.09 124.32 323.09 124.32 323.09 124.32C323.09 127.55 320.54 129.47 316.7 129.47C313.96 129.55 311.29 128.61 309.21 126.84C309.69 126.26 311.4 124.23 311.64 123.94Z" id="hGOCJ0XX5"></path></defs><g><g><g><use xlink:href="#eBAwMbB8K" opacity="1" fill="url(#gradientdQl9WBFe2)"></use><g><use xlink:href="#eBAwMbB8K" opacity="1" fill-opacity="0" stroke="#000000" stroke-width="1" stroke-opacity="0"></use></g></g><g><use xlink:href="#ago86by4h" opacity="1" fill="url(#gradientb24pnGgR24)"></use><g><use xlink:href="#ago86by4h" opacity="1" fill-opacity="0" stroke="#000000" stroke-width="1" stroke-opacity="0"></use></g></g><g><use xlink:href="#c1MUaLcWxv" opacity="1" fill="url(#gradientd9xxROf3E)"></use><g><use xlink:href="#c1MUaLcWxv" opacity="1" fill-opacity="0" stroke="#000000" stroke-width="1" stroke-opacity="0"></use></g></g><g><use xlink:href="#a1cH80XHmv" opacity="1" fill="url(#gradienta2j9QgSK04)"></use><g><use xlink:href="#a1cH80XHmv" opacity="1" fill-opacity="0" stroke="#000000" stroke-width="1" stroke-opacity="0"></use></g></g><g><use xlink:href="#jQvZrfDdK" opacity="1" fill="#000000" fill-opacity="1"></use><g><use xlink:href="#jQvZrfDdK" opacity="1" fill-opacity="0" stroke="#000000" stroke-width="1" stroke-opacity="0"></use></g></g><g><use xlink:href="#foy7bdEJ3" opacity="1" fill="#ffffff" fill-opacity="1"></use><g><use xlink:href="#foy7bdEJ3" opacity="1" fill-opacity="0" stroke="#000000" stroke-width="1" stroke-opacity="0"></use></g></g><g><use xlink:href="#c3mJddHlyD" opacity="1" fill="#ffffff" fill-opacity="1"></use><g><use xlink:href="#c3mJddHlyD" opacity="1" fill-opacity="0" stroke="#000000" stroke-width="1" stroke-opacity="0"></use></g></g><g><use xlink:href="#cnQ1d03Br" opacity="1" fill="#ffffff" fill-opacity="1"></use><g><use xlink:href="#cnQ1d03Br" opacity="1" fill-opacity="0" stroke="#000000" stroke-width="1" stroke-opacity="0"></use></g></g><g><use xlink:href="#bjeOg3mtJ" opacity="1" fill="#ffffff" fill-opacity="1"></use><g><use xlink:href="#bjeOg3mtJ" opacity="1" fill-opacity="0" stroke="#000000" stroke-width="1" stroke-opacity="0"></use></g></g><g><use xlink:href="#a3KuBTq29f" opacity="1" fill="#ffffff" fill-opacity="1"></use><g><use xlink:href="#a3KuBTq29f" opacity="1" fill-opacity="0" stroke="#000000" stroke-width="1" stroke-opacity="0"></use></g></g><g><use xlink:href="#b1QoabeBAt" opacity="1" fill="#ffffff" fill-opacity="1"></use><g><use xlink:href="#b1QoabeBAt" opacity="1" fill-opacity="0" stroke="#000000" stroke-width="1" stroke-opacity="0"></use></g></g><g><use xlink:href="#b56zB8HSnK" opacity="1" fill="#ffffff" fill-opacity="1"></use><g><use xlink:href="#b56zB8HSnK" opacity="1" fill-opacity="0" stroke="#000000" stroke-width="1" stroke-opacity="0"></use></g></g><g><use xlink:href="#a1d9IXUA9r" opacity="1" fill="#ffffff" fill-opacity="1"></use><g><use xlink:href="#a1d9IXUA9r" opacity="1" fill-opacity="0" stroke="#000000" stroke-width="1" stroke-opacity="0"></use></g></g><g><use xlink:href="#c332OtxqHX" opacity="1" fill="#ffffff" fill-opacity="1"></use><g><use xlink:href="#c332OtxqHX" opacity="1" fill-opacity="0" stroke="#000000" stroke-width="1" stroke-opacity="0"></use></g></g><g><use xlink:href="#hGOCJ0XX5" opacity="1" fill="#ffffff" fill-opacity="1"></use><g><use xlink:href="#hGOCJ0XX5" opacity="1" fill-opacity="0" stroke="#000000" stroke-width="1" stroke-opacity="0"></use></g></g></g></g></svg>