<?xml version="1.0" encoding="UTF-8"?>
<svg width="200" height="70" version="1.1" viewBox="0 0 200 70" xml:space="preserve" xmlns="http://www.w3.org/2000/svg" xmlns:cc="http://creativecommons.org/ns#" xmlns:dc="http://purl.org/dc/elements/1.1/" xmlns:rdf="http://www.w3.org/1999/02/22-rdf-syntax-ns#">
  <metadata>
    <rdf:RDF>
      <cc:Work rdf:about="">
        <dc:format>image/svg+xml</dc:format>
        <dc:type rdf:resource="http://purl.org/dc/dcmitype/StillImage"/>
        <dc:title/>
      </cc:Work>
    </rdf:RDF>
  </metadata>
  <defs>
    <clipPath id="clipPath26">
      <path d="m0 600h2e3v-600h-2e3z"/>
    </clipPath>
  </defs>
  
  <g transform="matrix(1.3333 0 0 -1.3333 -252.43 680.71)">
    <g transform="matrix(.080402 0 0 .080402 183.92 460.16)">
      <g clip-path="url(#clipPath26)">
        <g transform="translate(996.27 298.75)">
          <path d="m0 0c5.421 27.711 26.052 34.864 41.92 34.864 17.168 0 37.684-10.939 40.664-34.864zm42.972 66.347c-50.87 0-81.274-40.808-81.274-82.945 0-51.491 36.938-82.094 87.84-82.094 32.973 0 59.662 10.466 59.662 10.466v33.051s-29.974-12.429-57.846-12.429c-28.305 0-48.025 12.614-51.656 37.773h114.61s1.13 7.426 1.13 18.134c0 45.525-34.355 78.044-72.469 78.044m597.5-73.338v-90.693h37.695v89.61c0 22.797 12.161 39.935 32.773 39.935l13.613 0.135v34.223h-13.613c-41.734 0-70.468-31.475-70.468-73.21m-484.74 0v-90.693h37.695v89.61c0 22.797 12.161 39.935 32.774 39.935l13.612 0.135v34.223h-13.612c-41.735 0-70.469-31.475-70.469-73.21m361.66-58.639c-27.659 0-44.876 18.92-44.876 49.374 0 28.149 19.313 49.377 44.876 49.377 27.241 0 44.057-19.381 44.057-49.377 0-23.933-14.932-49.374-44.057-49.374m0.349 131.81c-48.171 0-83.171-34.671-83.171-82.439 0-48.536 32.788-82.436 79.682-82.436 22.616 0 41.67 12.997 47.526 27.755v-26.747h37.614v81.428c0 50.081-31.574 82.439-81.651 82.439m264.83 18.009c11.683 0 21.155 9.471 21.155 21.155 0 11.683-9.472 21.154-21.155 21.154s-21.154-9.471-21.154-21.154c0-11.684 9.471-21.155 21.154-21.155m-928.16-17.973c-22.443 0-36.895-8.101-51.66-25.446-13.943 16.664-30.49 25.446-52.622 25.446-41.735 0-70.468-31.476-70.468-73.211v-90.692h37.694v94.402c0 20.035 12.162 35.143 32.774 35.143 20.8 0 34.07-15.108 34.07-35.143v-94.402h37.052v94.402c0 20.035 12.548 35.143 33.16 35.143 20.8 0 34.446-15.108 34.446-35.143v-94.402h37.712v90.692c0 41.735-30.236 73.211-72.158 73.211m447.85-84.398c0 27.359 14.484 50.321 48.384 50.321 28.411 0 50.366-12.06 50.366-12.06v35.804s-22.228 10.421-51.118 10.421c-52.057 0-85.128-35.884-85.128-84.486 0-48.279 36.109-80.763 87.896-80.763 29.101 0 52.009 10.352 52.009 10.352v34.924s-24.848-12.413-51.443-12.413c-32.133 0-50.966 19.943-50.966 47.9m461.17-79.505h38.271v163.87h-38.271z" fill="#222"/>
        </g>
        <g transform="translate(402.03 103.04)">
          <path d="m0 0 155.03 77.582c10.956 5.482 17.871 16.649 17.871 28.859v181.03c0 12.21-6.915 23.377-17.871 28.86l-155.03 77.581c-9.164 4.586-19.965 4.586-29.129 0l-155.03-77.581c-10.956-5.483-17.871-16.65-17.871-28.86v-181.03c0-12.21 6.915-23.377 17.871-28.859l155.03-77.582c9.164-4.585 19.965-4.585 29.129 0" fill="#ff0211"/>
        </g>
        <g transform="translate(600.79 388.34)">
          <path d="m0 0c0-46.412-37.625-84.037-84.037-84.037s-84.036 37.625-84.036 84.037 37.624 84.037 84.036 84.037 84.037-37.625 84.037-84.037" fill="#4dc9ff" fill-rule="evenodd"/>
        </g>
        <g transform="translate(251.59 234.8)">
          <path d="m0 0-16.422 8.248v48.614c0 14.236 8.02 28.421 24.558 26.627 15.465-1.676 27.403-15.403 31.108-24.407 5.793 5.069 11.094 6.146 18.709 5.1 8.454-1.162 40.314-13.307 40.314-56.439v-57.262l-18.005 9.061v53.664c0 15.734-9.623 28.881-22.596 30.39-5.354 0.623-9.971-3.68-10.127-12.915-0.157-9.236 0-54.576 0-54.576l-16.518 8.292v50.802c0 22.44-14.475 29.516-20.813 30.214-3.57 0.393-10.208-1.748-10.208-13.229z" fill="#fff"/>
        </g>
      </g>
    </g>
  </g>
</svg>
