<?xml version="1.0" encoding="UTF-8" standalone="no"?>
<svg
   xmlns:dc="http://purl.org/dc/elements/1.1/"
   xmlns:cc="http://creativecommons.org/ns#"
   xmlns:rdf="http://www.w3.org/1999/02/22-rdf-syntax-ns#"
   xmlns:svg="http://www.w3.org/2000/svg"
   xmlns="http://www.w3.org/2000/svg"
   xmlns:sodipodi="http://sodipodi.sourceforge.net/DTD/sodipodi-0.dtd"
   xmlns:inkscape="http://www.inkscape.org/namespaces/inkscape"
   sodipodi:docname="opt.svg"
   inkscape:version="1.0beta2 (2b71d25, 2019-12-03)"
   id="svg8"
   version="1.1"
   viewBox="0 0 200 70"
   height="70mm"
   width="200mm">
  <defs
     id="defs2">
    <style
       id="style10">.cls-1{fill:#17479e;}</style>
  </defs>
  <sodipodi:namedview
     inkscape:window-maximized="0"
     inkscape:window-y="23"
     inkscape:window-x="0"
     inkscape:window-height="800"
     inkscape:window-width="1440"
     showgrid="false"
     inkscape:document-rotation="0"
     inkscape:current-layer="layer1"
     inkscape:document-units="mm"
     inkscape:cy="132.28346"
     inkscape:cx="377.95276"
     inkscape:zoom="1.2805833"
     inkscape:pageshadow="2"
     inkscape:pageopacity="0.0"
     borderopacity="1.0"
     bordercolor="#666666"
     pagecolor="#ffffff"
     id="base" />
  <metadata
     id="metadata5">
    <rdf:RDF>
      <cc:Work
         rdf:about="">
        <dc:format>image/svg+xml</dc:format>
        <dc:type
           rdf:resource="http://purl.org/dc/dcmitype/StillImage" />
        <dc:title></dc:title>
      </cc:Work>
    </rdf:RDF>
  </metadata>
  <g
     id="layer1"
     inkscape:groupmode="layer"
     inkscape:label="レイヤー 1">
    <g
       transform="matrix(0.43055222,0,0,0.43055222,51.191119,5.000002)"
       id="通常">
      <path
         inkscape:connector-curvature="0"
         id="path16"
         d="m 17.81,114.53 a 5.94,5.94 0 0 0 -4.37,-1.78 5.88,5.88 0 0 0 -4.35,1.78 6,6 0 0 0 -1.78,4.37 v 14 a 6.09,6.09 0 0 0 6.13,6.14 6,6 0 0 0 4.37,-1.79 5.9,5.9 0 0 0 1.78,-4.35 v -14 a 5.93,5.93 0 0 0 -1.78,-4.37 z m -2.25,18.34 a 2.22,2.22 0 0 1 -2.21,2.21 2.24,2.24 0 0 1 -1.59,-0.65 2.13,2.13 0 0 1 -0.65,-1.56 v -14 a 2.14,2.14 0 0 1 0.65,-1.57 2.23,2.23 0 0 1 1.59,-0.64 2.2,2.2 0 0 1 2.21,2.21 z"
         class="cls-1" />
      <path
         inkscape:connector-curvature="0"
         id="path18"
         d="m 33.53,114.74 a 6,6 0 0 0 -4.41,-1.67 H 23 v 25.68 h 3.88 v -9.68 h 2.24 a 5.83,5.83 0 0 0 4.31,-1.79 6,6 0 0 0 1.75,-4.35 v -3.72 a 6.13,6.13 0 0 0 -1.65,-4.47 z m -2.1,8.26 a 2.13,2.13 0 0 1 -0.64,1.57 2.1,2.1 0 0 1 -1.57,0.66 H 26.88 V 117 h 2.34 a 2.17,2.17 0 0 1 1.61,0.62 2.28,2.28 0 0 1 0.6,1.62 z"
         class="cls-1" />
      <path
         inkscape:connector-curvature="0"
         id="path20"
         d="M 35.67,113.07 V 117 h 4.12 v 21.8 h 3.87 V 117 h 4.11 v -3.88 z"
         class="cls-1" />
      <path
         inkscape:connector-curvature="0"
         id="path22"
         d="M 55.3,113.07 V 117 h 4.11 v 21.8 h 3.88 V 117 h 4.1 v -3.88 z"
         class="cls-1" />
      <path
         inkscape:connector-curvature="0"
         id="path24"
         d="m 80.66,116.92 v -3.86 h -11 v 25.69 h 11 v -3.88 h -7.14 v -7 h 5.22 V 124 h -5.22 v -7.06 z"
         class="cls-1" />
      <path
         inkscape:connector-curvature="0"
         id="path26"
         d="m 95,121.87 v -2.93 a 5.94,5.94 0 0 0 -1.78,-4.37 6.21,6.21 0 0 0 -8.7,0 6,6 0 0 0 -1.79,4.37 v 14 A 6.14,6.14 0 1 0 95,133 v -3.6 h -4 v 3.56 a 2.16,2.16 0 0 1 -0.66,1.57 2.22,2.22 0 0 1 -1.57,0.64 2.19,2.19 0 0 1 -2.21,-2.21 v -14 a 2.19,2.19 0 0 1 0.64,-1.59 2.12,2.12 0 0 1 1.57,-0.65 2.24,2.24 0 0 1 2.23,2.14 v 3 z"
         class="cls-1" />
      <path
         inkscape:connector-curvature="0"
         id="path28"
         d="M 106.32,113.07 V 124 h -4.68 v -10.93 h -3.87 v 25.68 h 3.87 v -10.88 h 4.68 v 10.88 h 3.86 v -25.68 z"
         class="cls-1" />
      <path
         inkscape:connector-curvature="0"
         id="path30"
         d="m 123.28,113.06 v 17.26 l -5.13,-17.26 h -4.36 v 25.69 h 3.88 V 122.3 l 5.33,16.45 h 4.16 v -25.69 z"
         class="cls-1" />
      <path
         inkscape:connector-curvature="0"
         id="path32"
         d="m 140.77,114.53 a 6.13,6.13 0 0 0 -10.49,4.37 v 14 a 6.14,6.14 0 1 0 12.27,0 v -14 a 5.93,5.93 0 0 0 -1.78,-4.37 z m -2.26,18.34 a 2.12,2.12 0 0 1 -0.64,1.56 2.18,2.18 0 0 1 -1.57,0.65 2.22,2.22 0 0 1 -1.58,-0.65 2.14,2.14 0 0 1 -0.66,-1.56 v -14 a 2.15,2.15 0 0 1 0.66,-1.57 2.21,2.21 0 0 1 1.58,-0.64 2.17,2.17 0 0 1 1.57,0.64 2.13,2.13 0 0 1 0.64,1.57 z"
         class="cls-1" />
      <path
         inkscape:connector-curvature="0"
         id="path34"
         d="m 149.4,134.87 v -21.8 h -3.87 v 25.68 h 10.55 v -3.88 z"
         class="cls-1" />
      <path
         inkscape:connector-curvature="0"
         id="path36"
         d="M 167.45,114.53 A 6.13,6.13 0 0 0 157,118.9 v 14 a 6.14,6.14 0 1 0 12.27,0 v -14 a 5.93,5.93 0 0 0 -1.82,-4.37 z m -2.26,18.34 a 2.12,2.12 0 0 1 -0.64,1.56 2.18,2.18 0 0 1 -1.57,0.65 2.25,2.25 0 0 1 -1.58,-0.65 2.12,2.12 0 0 1 -0.64,-1.56 v -14 a 2.13,2.13 0 0 1 0.64,-1.57 2.24,2.24 0 0 1 1.58,-0.64 2.17,2.17 0 0 1 1.57,0.64 2.13,2.13 0 0 1 0.64,1.57 z"
         class="cls-1" />
      <path
         inkscape:connector-curvature="0"
         id="path38"
         d="m 184.4,121.87 v -2.93 a 5.94,5.94 0 0 0 -1.78,-4.37 5.87,5.87 0 0 0 -4.35,-1.78 6.08,6.08 0 0 0 -6.15,6.15 v 14 a 6,6 0 0 0 6.15,6.12 6,6 0 0 0 6.13,-6.06 v -9 h -6.17 v 3.86 h 2.15 v 5.07 a 2.12,2.12 0 0 1 -0.66,1.57 2.19,2.19 0 0 1 -1.58,0.64 2.22,2.22 0 0 1 -1.57,-0.64 2.18,2.18 0 0 1 -0.64,-1.57 v -14 a 2.23,2.23 0 0 1 0.64,-1.59 2.19,2.19 0 0 1 1.57,-0.65 2.24,2.24 0 0 1 2.24,2.24 v 3 z"
         class="cls-1" />
      <path
         inkscape:connector-curvature="0"
         id="path40"
         d="m 187.61,113.07 v 25.68 h 3.87 v -25.68 z"
         class="cls-1" />
      <path
         inkscape:connector-curvature="0"
         id="path42"
         d="m 205.72,116.92 v -3.86 h -11 v 25.69 h 11 v -3.88 h -7.16 v -7 h 5.24 V 124 h -5.24 v -7.06 z"
         class="cls-1" />
      <path
         inkscape:connector-curvature="0"
         id="path44"
         d="m 216.37,125.85 c -0.29,-0.28 -0.88,-0.81 -1.79,-1.56 a 15.68,15.68 0 0 1 -1.72,-1.65 5.65,5.65 0 0 1 -1.52,-3.59 3.76,3.76 0 0 1 0.45,-1.9 1.79,1.79 0 0 1 1.63,-0.93 c 1.4,0 2.21,1 2.43,3.1 l 3.71,-0.68 a 7.3,7.3 0 0 0 -0.87,-3 5.6,5.6 0 0 0 -5.37,-2.93 5.86,5.86 0 0 0 -3.61,1.08 6.22,6.22 0 0 0 -2.35,5.3 7.67,7.67 0 0 0 1,3.85 14.06,14.06 0 0 0 2.59,3.1 c 1.68,1.62 2.83,2.7 3.43,3.26 a 4.38,4.38 0 0 1 1.47,3.18 3.13,3.13 0 0 1 -0.4,1.69 2.4,2.4 0 0 1 -2,1.26 2.2,2.2 0 0 1 -2.08,-1.39 7.17,7.17 0 0 1 -0.71,-2.57 l -3.69,0.26 a 9.94,9.94 0 0 0 0.84,3.63 6.49,6.49 0 0 0 10.41,1.76 6.87,6.87 0 0 0 1.55,-4.81 q -0.09,-3.1 -3.4,-6.46 z"
         class="cls-1" />
      <path
         inkscape:connector-curvature="0"
         id="path46"
         d="M 57.13,38.35 A 117.11,117.11 0 0 1 56.29,50.06 4.17,4.17 0 0 1 52.06,54 c -1.05,0.09 -2.85,0 -4,0 l 1.46,-20 h 4.56 c 2.11,0 3.06,1.75 3.05,4.35 z"
         class="cls-1" />
      <path
         inkscape:connector-curvature="0"
         id="path48"
         d="M 134.89,42.39 V 40.8 c -0.18,-7.64 -8.54,-7.64 -8.42,0 v 1.59 l 0.07,4.49 H 135 Z m 0,0 V 40.8 c -0.18,-7.64 -8.54,-7.64 -8.42,0 v 1.59 l 0.07,4.49 H 135 Z M 16.89,37.92 13.44,69 c -0.72,6.59 7.31,6.59 8,0 0.91,-8.75 3.05,-30.28 3.13,-31 0.6,-6.37 -7.04,-6.37 -7.72,-0.08 z m 118,4.47 V 40.8 c -0.18,-7.64 -8.54,-7.64 -8.42,0 v 1.59 l 0.07,4.49 H 135 Z m 0,0 V 40.8 c -0.18,-7.64 -8.54,-7.64 -8.42,0 v 1.59 l 0.07,4.49 H 135 Z M 16.89,37.92 13.44,69 c -0.72,6.59 7.31,6.59 8,0 0.91,-8.75 3.05,-30.28 3.13,-31 0.6,-6.37 -7.04,-6.37 -7.72,-0.08 z m 209.32,42.87 a 16.45,16.45 0 0 1 -2.34,-7.32 L 220,42.08 a 29.44,29.44 0 0 0 -5,-13.75 c -2.75,-3.71 -6.2,-5.74 -9.76,-5.74 a 9.91,9.91 0 0 0 -6.41,2.47 L 197.29,9.57 c -0.2,-2.18 -0.24,-4.45 0.7,-6.22 a 2.24,2.24 0 0 0 -0.15,-2.23 2.44,2.44 0 0 0 -2,-1.12 h -13.46 a 2,2 0 0 0 -1.8,1.12 3.09,3.09 0 0 0 -0.14,0.43 l -7.3,23.2 a 19.08,19.08 0 0 0 -6.29,-1.08 17.49,17.49 0 0 0 -12.43,4.91 17.31,17.31 0 0 0 -4.64,8.35 v 0 l -1.14,5.35 V 41.79 A 18.78,18.78 0 0 0 142.7,28.2 17.31,17.31 0 0 0 133.41,23.89 13.91,13.91 0 0 0 131.84,23.72 L 133,15.51 v -0.14 0 a 2.33,2.33 0 0 0 -0.07,-0.64 L 129.32,1.63 A 2.24,2.24 0 0 0 127.16,0 H 83.45 a 2.29,2.29 0 0 0 -2.16,1.62 l -3.85,13.1 a 2.29,2.29 0 0 0 -0.1,0.68 v 0 a 2.78,2.78 0 0 0 0.1,0.6 l 1.21,7.29 H 66.33 A 2.42,2.42 0 0 0 64.07,25 l -0.24,0.78 A 14.31,14.31 0 0 0 55.3,23.32 c -4.71,0 -14.58,-0.05 -14.69,-0.05 H 39 a 2.5,2.5 0 0 0 -2.06,1.2 2.4,2.4 0 0 0 -0.14,2.33 c 1,1.85 1,4.17 0.78,6.43 l -0.36,4.1 C 37.4,28.05 30.22,23.27 22.63,23.27 A 18.83,18.83 0 0 0 3.77,40.09 c -0.62,4 -2.25,17.32 -3.13,24.65 -0.22,1.71 -0.38,3.07 -0.5,3.86 a 14.72,14.72 0 0 0 2.05,10.07 v 0 l 0.12,0.15 a 10.41,10.41 0 0 0 1.05,1.35 L 16.45,97 a 11.76,11.76 0 0 0 1.55,1.7 14.54,14.54 0 0 0 10,3.62 17.53,17.53 0 0 0 5.71,-0.94 16.3,16.3 0 0 0 5,-2.68 17.84,17.84 0 0 0 1.36,-1.22 l 2,3.32 a 1.87,1.87 0 0 0 1.74,1.2 H 56 a 2.22,2.22 0 0 0 1.89,-1.2 2.57,2.57 0 0 0 0.11,-2.38 c -0.94,-1.84 -1,-4.16 -0.85,-6.37 l 0.46,-7.67 h 0.25 c 1.47,-0.06 3,-0.12 4.16,-0.27 a 14.77,14.77 0 0 0 4.21,-1.22 2.9,2.9 0 0 0 0.18,0.57 l 5.85,17 a 1.9,1.9 0 0 0 0.13,0.38 2,2 0 0 0 1.76,1.2 h 12.54 a 2.17,2.17 0 0 0 1.87,-1.2 2.63,2.63 0 0 0 0,-2.26 l -0.89,-2.61 a 19.37,19.37 0 0 1 -0.26,-4 l 0.87,-32.05 h 2.22 a 7.34,7.34 0 0 1 5.73,2.33 0.76,0.76 0 0 0 0.11,0.08 v 0 l -0.1,0.06 c -0.07,0.06 0,0.1 0.1,0.15 l -0.2,11.89 a 13.28,13.28 0 0 1 -1.54,6.41 2.94,2.94 0 0 0 -0.33,2 v 0 l 2.13,17.23 a 2.24,2.24 0 0 0 0.21,0.73 2,2 0 0 0 1.8,1.2 H 112 a 2.07,2.07 0 0 0 1.83,-1.2 2.72,2.72 0 0 0 0.24,-1.4 l 0.17,-6.12 a 16.37,16.37 0 0 0 14.89,9.28 15.7,15.7 0 0 0 11,-4.31 15.41,15.41 0 0 0 4.3,-8 l 0.91,-3.47 a 17.53,17.53 0 0 0 17.66,15.78 17.12,17.12 0 0 0 6.14,-1.12 14.75,14.75 0 0 0 5,-3.18 14.11,14.11 0 0 0 2.94,-4.12 l 1.28,-2.48 v 0.26 c 0.13,2.26 0.13,4.61 -0.81,6.5 a 2.58,2.58 0 0 0 0.1,2.38 2.25,2.25 0 0 0 1.9,1.2 h 12.94 a 1.85,1.85 0 0 0 1.5,-0.78 v 0 l 1.15,-1.68 a 2.76,2.76 0 0 0 0.36,1.26 2.31,2.31 0 0 0 1.93,1.2 h 12.94 a 1.75,1.75 0 0 0 1.33,-0.6 v -0.06 a 0.21,0.21 0 0 0 0.05,-0.07 L 226.31,84 a 2.63,2.63 0 0 0 0.31,-0.55 3,3 0 0 0 -0.41,-2.66 z M 32.31,68.6 C 30.66,87.22 0.22,87.35 2.5,68.6 3,64.35 5.3,45 6,40.13 c 2.31,-19 30.36,-19 28.81,-1.54 -0.09,1.33 -1.48,20.76 -2.5,30.01 z M 87.37,35.41 h -4.72 l -1.32,38.08 c -0.07,2.94 0.09,6 1.53,8.69 H 68.52 a 16.63,16.63 0 0 0 2.15,-7.47 l 1.65,-39.3 h -1.89 a 12.16,12.16 0 0 0 -3.5,0.44 c 0.1,0.78 0.13,1.38 0.14,1.69 0,0.85 0,1.74 0,2.63 a 60.44,60.44 0 0 1 -0.83,10.49 c -1.13,6.49 -5.47,10.79 -11.72,11.6 -1.94,0.25 -5,0.27 -7.08,0.41 l -0.8,11 c -0.18,2.88 -0.15,5.91 1.17,8.51 h -14 a 18.12,18.12 0 0 0 2.51,-8.51 l 3.39,-40.43 c 0.18,-2.61 0.18,-5.33 -1,-7.64 h 1.67 c 0,0 9.95,0 14.72,0 5.11,0 8,2.06 9.68,4.5 l 1.42,-4.5 h 26.15 l 2.94,12.94 a 10.51,10.51 0 0 0 -7.92,-3.13 z m 23.11,-23.29 -0.17,61.37 c 0,2.94 0.28,6 1.8,8.69 H 96.59 a 16.65,16.65 0 0 0 1.92,-7.75 L 99.32,12.12 H 88 a 11.71,11.71 0 0 0 -8.44,3.17 L 83.38,2.17 h 43.81 l 3.58,13.12 a 11.45,11.45 0 0 0 -8.38,-3.17 z m 16.35,54.24 c 0.11,7.56 8.86,7.66 8.67,0 a 17.91,17.91 0 0 0 -1.66,-8.1 l 13.16,1.2 c 0.05,1.72 0.09,4.34 0.19,6.73 0.85,22.53 -32.19,22.19 -32.25,-0.46 0,-5.12 -0.14,-16.16 0,-22.07 -0.06,-23.11 30.54,-23.11 31.34,-1.89 0,0.15 0,0.91 0.08,2 0.14,3 0.53,6 2.23,8.74 h -22 z m 25.49,-0.63 c -0.23,-5.12 -0.82,-16.18 -0.89,-22.07 -1,-23.11 30.45,-23.11 32.16,-1.89 a 26.57,26.57 0 0 1 -0.16,6 L 171.38,49 c 1.09,-2.49 1,-6.48 0.9,-8.19 -0.52,-7.64 -9.93,-7 -9.49,0.65 l 1.44,25.33 c 0.45,8 10.22,8 9.92,0 -0.08,-2.1 -0.78,-6.38 -2.14,-8.52 l 13.12,1.16 c 0,0 0.29,3.09 0.59,6.77 1.81,22.53 -32.41,22.18 -33.4,-0.47 z m 57.3,16.45 c 1.25,-2.66 1.17,-5.75 0.89,-8.69 l -3.21,-30 c -1,-9 -9.62,-7.28 -8.76,1.53 l 2.77,28.47 a 18.78,18.78 0 0 0 2.69,8.69 h -14.79 c 1.31,-2.64 1.31,-5.72 1.09,-8.65 -1.38,-16.22 -4.22,-49.69 -5.45,-64.12 A 14.56,14.56 0 0 0 182.56,2.17 H 196 c -1.19,2.24 -1.16,4.86 -0.95,7.39 l 2.06,21.14 c 7.49,-11.92 18.77,-4 20.62,11.38 l 3.74,31.41 a 19.09,19.09 0 0 0 2.87,8.69 z M 134.85,40.8 c -0.18,-7.64 -8.54,-7.64 -8.42,0 v 1.59 l 0.07,4.49 h 8.5 l -0.11,-4.49 z M 16.85,37.92 13.44,69 c -0.72,6.59 7.31,6.59 8,0 0.91,-8.75 3.05,-30.28 3.13,-31 0.6,-6.37 -7.04,-6.37 -7.72,-0.08 z m 118,4.47 V 40.8 c -0.18,-7.64 -8.54,-7.64 -8.42,0 v 1.59 l 0.07,4.49 h 8.5 z m 0,0 V 40.8 c -0.18,-7.64 -8.54,-7.64 -8.42,0 v 1.59 l 0.07,4.49 h 8.5 z m 0,0 V 40.8 c -0.18,-7.64 -8.54,-7.64 -8.42,0 v 1.59 l 0.07,4.49 h 8.5 z m 0,0 V 40.8 c -0.18,-7.64 -8.54,-7.64 -8.42,0 v 1.59 l 0.07,4.49 h 8.5 z"
         class="cls-1" />
    </g>
  </g>
</svg>
