<?xml version="1.0" encoding="UTF-8" standalone="no"?>
<svg
   xmlns:dc="http://purl.org/dc/elements/1.1/"
   xmlns:cc="http://creativecommons.org/ns#"
   xmlns:rdf="http://www.w3.org/1999/02/22-rdf-syntax-ns#"
   xmlns:svg="http://www.w3.org/2000/svg"
   xmlns="http://www.w3.org/2000/svg"
   xmlns:sodipodi="http://sodipodi.sourceforge.net/DTD/sodipodi-0.dtd"
   xmlns:inkscape="http://www.inkscape.org/namespaces/inkscape"
   width="200mm"
   height="70mm"
   viewBox="0 0 200 70"
   version="1.1"
   id="svg8"
   inkscape:version="1.0.1 (c497b03c, 2020-09-10)"
   sodipodi:docname="scalapedia-bgwhite-logo.svg"
   inkscape:export-filename="/Users/noriaki/Dropbox/scalapedia-bgwhite-logo.png"
   inkscape:export-xdpi="96"
   inkscape:export-ydpi="96">
  <defs
     id="defs2" />
  <sodipodi:namedview
     id="base"
     pagecolor="#ffffff"
     bordercolor="#666666"
     borderopacity="1.0"
     inkscape:pageopacity="0.0"
     inkscape:pageshadow="2"
     inkscape:zoom="0.9371494"
     inkscape:cx="390.71277"
     inkscape:cy="246.87746"
     inkscape:document-units="mm"
     inkscape:current-layer="layer1"
     inkscape:document-rotation="0"
     showgrid="false"
     inkscape:window-width="1920"
     inkscape:window-height="1058"
     inkscape:window-x="0"
     inkscape:window-y="0"
     inkscape:window-maximized="0"
     inkscape:snap-text-baseline="false" />
  <metadata
     id="metadata5">
    <rdf:RDF>
      <cc:Work
         rdf:about="">
        <dc:format>image/svg+xml</dc:format>
        <dc:type
           rdf:resource="http://purl.org/dc/dcmitype/StillImage" />
        <dc:title />
      </cc:Work>
    </rdf:RDF>
  </metadata>
  <g
     inkscape:label="レイヤー 1"
     inkscape:groupmode="layer"
     id="layer1">
    <rect
       style="fill:#ffffff;stroke-width:0.225808"
       id="rect842"
       width="200"
       height="70"
       x="0"
       y="0" />
    <g
       aria-label="Scalapedia"
       id="text30"
       style="font-style:normal;font-variant:normal;font-weight:bold;font-stretch:normal;font-size:33.51389999999999958px;line-height:1.25;font-family:'Helvetica Neue';-inkscape-font-specification:'Helvetica Neue, Bold';font-variant-ligatures:normal;font-variant-caps:normal;font-variant-numeric:normal;font-variant-east-asian:normal;fill:#00112b;fill-opacity:1;stroke:none;stroke-width:0.264583">
      <path
         d="m 18.032449,36.273529 h -5.094113 q -0.03351,2.211918 0.804334,3.820585 0.837847,1.608667 2.245431,2.647598 1.441098,1.038931 3.284363,1.508126 1.876778,0.502708 3.854098,0.502708 2.446515,0 4.289779,-0.569736 1.876779,-0.569736 3.116793,-1.575153 1.273528,-1.038931 1.910293,-2.446515 0.636764,-1.407584 0.636764,-3.049765 0,-2.010834 -0.871362,-3.284362 -0.837847,-1.307043 -2.010834,-2.077862 -1.172986,-0.77082 -2.379487,-1.105959 -1.172986,-0.368653 -1.843264,-0.502708 -2.245432,-0.569737 -3.653015,-0.93839 -1.37407,-0.368653 -2.178404,-0.737306 -0.77082,-0.368652 -1.038931,-0.804333 -0.268111,-0.435681 -0.268111,-1.139473 0,-0.770819 0.335139,-1.273528 0.335139,-0.502708 0.837847,-0.837847 0.536223,-0.33514 1.172987,-0.469195 0.636764,-0.134056 1.273528,-0.134056 0.971903,0 1.776237,0.16757 0.837847,0.167569 1.474611,0.569736 0.636765,0.402167 1.005418,1.105959 0.402166,0.703792 0.469194,1.776237 h 5.094113 q 0,-2.077862 -0.804334,-3.51896 -0.770819,-1.474612 -2.111375,-2.413001 -1.340556,-0.938389 -3.083279,-1.340556 -1.709209,-0.435681 -3.585988,-0.435681 -1.608667,0 -3.217334,0.435681 -1.608667,0.435681 -2.882196,1.340556 -1.273528,0.904875 -2.077861,2.278945 -0.77082,1.340556 -0.77082,3.183821 0,1.642181 0.60325,2.815168 0.636764,1.139472 1.642181,1.910292 1.005417,0.77082 2.278946,1.273528 1.273528,0.469195 2.614084,0.804334 1.307042,0.368653 2.58057,0.670278 1.273528,0.301625 2.278945,0.703792 1.005417,0.402167 1.608668,1.005417 0.636764,0.60325 0.636764,1.575153 0,0.904875 -0.469195,1.508126 -0.469194,0.569736 -1.172986,0.904875 -0.703792,0.335139 -1.508126,0.469195 -0.804334,0.100541 -1.508125,0.100541 -1.038931,0 -2.010835,-0.234597 -0.971903,-0.268111 -1.709208,-0.77082 -0.703792,-0.536222 -1.139473,-1.37407 -0.435681,-0.837847 -0.435681,-2.044348 z"
         style="font-style:normal;font-variant:normal;font-weight:bold;font-stretch:normal;font-size:33.51389999999999958px;font-family:'Helvetica Neue';-inkscape-font-specification:'Helvetica Neue, Bold';font-variant-ligatures:normal;font-variant-caps:normal;font-variant-numeric:normal;font-variant-east-asian:normal;fill:#00112b;fill-opacity:1;stroke-width:0.264583"
         id="path844" />
      <path
         d="m 47.472317,32.989167 h 4.658432 q -0.100542,-1.675695 -0.804334,-2.882195 -0.703792,-1.240015 -1.843264,-2.044348 -1.105959,-0.837848 -2.547057,-1.240015 -1.407583,-0.402166 -2.949223,-0.402166 -2.111376,0 -3.753557,0.703791 -1.642181,0.703792 -2.781654,1.977321 -1.139472,1.240014 -1.742722,2.982737 -0.569737,1.709209 -0.569737,3.720043 0,1.943806 0.636764,3.585987 0.636765,1.608667 1.776237,2.781654 1.139473,1.172986 2.74814,1.843264 1.642181,0.636765 3.585987,0.636765 3.451932,0 5.66385,-1.809751 2.211917,-1.809751 2.681112,-5.261682 h -4.591405 q -0.234597,1.608667 -1.172986,2.58057 -0.904876,0.938389 -2.614085,0.938389 -1.105958,0 -1.876778,-0.502708 -0.77082,-0.502709 -1.240014,-1.273529 -0.435681,-0.804333 -0.636764,-1.776236 -0.201084,-0.971904 -0.201084,-1.910293 0,-0.971903 0.201084,-1.943806 0.201083,-1.005417 0.670278,-1.809751 0.502708,-0.837847 1.273528,-1.340556 0.77082,-0.536222 1.910292,-0.536222 3.049765,0 3.51896,2.982737 z"
         style="font-style:normal;font-variant:normal;font-weight:bold;font-stretch:normal;font-size:33.51389999999999958px;font-family:'Helvetica Neue';-inkscape-font-specification:'Helvetica Neue, Bold';font-variant-ligatures:normal;font-variant-caps:normal;font-variant-numeric:normal;font-variant-east-asian:normal;fill:#00112b;fill-opacity:1;stroke-width:0.264583"
         id="path846" />
      <path
         d="m 54.718653,32.218347 q 0.100541,-1.675695 0.837847,-2.781653 0.737306,-1.105959 1.876779,-1.776237 1.139472,-0.670278 2.547056,-0.938389 1.441098,-0.301625 2.882195,-0.301625 1.307043,0 2.647599,0.201083 1.340556,0.167569 2.446514,0.703792 1.105959,0.536222 1.809751,1.508125 0.703792,0.93839 0.703792,2.513543 v 9.015239 q 0,1.172987 0.134056,2.245432 0.134055,1.072444 0.469194,1.608667 h -4.826002 q -0.134055,-0.402167 -0.234597,-0.804334 -0.06703,-0.43568 -0.100542,-0.871361 -1.139472,1.172986 -2.681112,1.642181 -1.541639,0.469195 -3.150306,0.469195 -1.240015,0 -2.312459,-0.301626 -1.072445,-0.301625 -1.876779,-0.938389 -0.804334,-0.636764 -1.273528,-1.608667 -0.435681,-0.971903 -0.435681,-2.312459 0,-1.474612 0.502709,-2.413001 0.536222,-0.971903 1.340556,-1.541639 0.837847,-0.569737 1.876778,-0.837848 1.072445,-0.301625 2.14489,-0.469195 1.072445,-0.167569 2.111376,-0.268111 1.03893,-0.100541 1.843264,-0.301625 0.804334,-0.201083 1.273528,-0.569736 0.469195,-0.402167 0.435681,-1.139473 0,-0.77082 -0.268111,-1.2065 -0.234597,-0.469195 -0.670278,-0.703792 -0.402167,-0.268111 -0.971903,-0.335139 -0.536223,-0.100542 -1.172987,-0.100542 -1.407584,0 -2.211917,0.60325 -0.804334,0.603251 -0.93839,2.010834 z m 10.992559,3.51896 q -0.301625,0.268111 -0.77082,0.435681 -0.43568,0.134055 -0.971903,0.234597 -0.502708,0.100542 -1.072445,0.167569 -0.569736,0.06703 -1.139472,0.16757 -0.536223,0.100542 -1.072445,0.268111 -0.502709,0.16757 -0.904875,0.469195 -0.368653,0.268111 -0.603251,0.703792 -0.234597,0.43568 -0.234597,1.105958 0,0.636765 0.234597,1.072445 0.234598,0.435681 0.636765,0.703792 0.402166,0.234597 0.938389,0.335139 0.536222,0.100542 1.105958,0.100542 1.407584,0 2.178404,-0.469195 0.77082,-0.469194 1.139473,-1.105958 0.368653,-0.670278 0.43568,-1.340556 0.100542,-0.670278 0.100542,-1.072445 z"
         style="font-style:normal;font-variant:normal;font-weight:bold;font-stretch:normal;font-size:33.51389999999999958px;font-family:'Helvetica Neue';-inkscape-font-specification:'Helvetica Neue, Bold';font-variant-ligatures:normal;font-variant-caps:normal;font-variant-numeric:normal;font-variant-east-asian:normal;fill:#00112b;fill-opacity:1;stroke-width:0.264583"
         id="path848" />
      <path
         d="m 74.2981,20.287399 v 23.928925 h 4.758974 V 20.287399 Z"
         style="font-style:normal;font-variant:normal;font-weight:bold;font-stretch:normal;font-size:33.51389999999999958px;font-family:'Helvetica Neue';-inkscape-font-specification:'Helvetica Neue, Bold';font-variant-ligatures:normal;font-variant-caps:normal;font-variant-numeric:normal;font-variant-east-asian:normal;fill:#00112b;fill-opacity:1;stroke-width:0.264583"
         id="path850" />
      <path
         d="m 82.603266,32.218347 q 0.100541,-1.675695 0.837847,-2.781653 0.737306,-1.105959 1.876779,-1.776237 1.139472,-0.670278 2.547056,-0.938389 1.441098,-0.301625 2.882196,-0.301625 1.307042,0 2.647598,0.201083 1.340556,0.167569 2.446514,0.703792 1.105959,0.536222 1.809751,1.508125 0.703792,0.93839 0.703792,2.513543 v 9.015239 q 0,1.172987 0.134056,2.245432 0.134055,1.072444 0.469194,1.608667 h -4.826002 q -0.134055,-0.402167 -0.234597,-0.804334 -0.06703,-0.43568 -0.100542,-0.871361 -1.139472,1.172986 -2.681112,1.642181 -1.541639,0.469195 -3.150306,0.469195 -1.240015,0 -2.312459,-0.301626 -1.072445,-0.301625 -1.876779,-0.938389 -0.804333,-0.636764 -1.273528,-1.608667 -0.435681,-0.971903 -0.435681,-2.312459 0,-1.474612 0.502709,-2.413001 0.536222,-0.971903 1.340556,-1.541639 0.837847,-0.569737 1.876778,-0.837848 1.072445,-0.301625 2.14489,-0.469195 1.072445,-0.167569 2.111376,-0.268111 1.038931,-0.100541 1.843264,-0.301625 0.804334,-0.201083 1.273528,-0.569736 0.469195,-0.402167 0.435681,-1.139473 0,-0.77082 -0.268111,-1.2065 -0.234597,-0.469195 -0.670278,-0.703792 -0.402167,-0.268111 -0.971903,-0.335139 -0.536223,-0.100542 -1.172987,-0.100542 -1.407584,0 -2.211917,0.60325 -0.804334,0.603251 -0.938389,2.010834 z m 10.992559,3.51896 q -0.301625,0.268111 -0.77082,0.435681 -0.43568,0.134055 -0.971903,0.234597 -0.502708,0.100542 -1.072445,0.167569 -0.569736,0.06703 -1.139472,0.16757 -0.536223,0.100542 -1.072445,0.268111 -0.502709,0.16757 -0.904875,0.469195 -0.368653,0.268111 -0.603251,0.703792 -0.234597,0.43568 -0.234597,1.105958 0,0.636765 0.234597,1.072445 0.234598,0.435681 0.636765,0.703792 0.402166,0.234597 0.938389,0.335139 0.536222,0.100542 1.105958,0.100542 1.407584,0 2.178404,-0.469195 0.77082,-0.469194 1.139473,-1.105958 0.368653,-0.670278 0.43568,-1.340556 0.100542,-0.670278 0.100542,-1.072445 z"
         style="font-style:normal;font-variant:normal;font-weight:bold;font-stretch:normal;font-size:33.51389999999999958px;font-family:'Helvetica Neue';-inkscape-font-specification:'Helvetica Neue, Bold';font-variant-ligatures:normal;font-variant-caps:normal;font-variant-numeric:normal;font-variant-east-asian:normal;fill:#00112b;fill-opacity:1;stroke-width:0.264583"
         id="path852" />
      <path
         d="m 110.79579,41.099531 q -1.13948,0 -1.94381,-0.469195 -0.80433,-0.469194 -1.30704,-1.2065 -0.4692,-0.77082 -0.70379,-1.776237 -0.20109,-1.005417 -0.20109,-2.044348 0,-1.072444 0.20109,-2.077861 0.20108,-1.005418 0.67027,-1.776237 0.50271,-0.77082 1.27353,-1.240015 0.80434,-0.502708 1.97732,-0.502708 1.13947,0 1.91029,0.502708 0.80434,0.469195 1.30705,1.273529 0.5027,0.770819 0.70379,1.776236 0.2346,1.005417 0.2346,2.044348 0,1.038931 -0.20109,2.044348 -0.20108,1.005417 -0.70379,1.776237 -0.46919,0.737306 -1.27353,1.2065 -0.77082,0.469195 -1.9438,0.469195 z M 102.04866,26.889637 V 50.28234 h 4.75897 v -8.210906 h 0.067 q 0.87136,1.273528 2.21192,1.943806 1.37407,0.636765 2.98273,0.636765 1.9103,0 3.31788,-0.737306 1.4411,-0.737306 2.37949,-1.97732 0.9719,-1.240015 1.44109,-2.848682 0.4692,-1.608667 0.4692,-3.35139 0,-1.843265 -0.4692,-3.51896 -0.46919,-1.709209 -1.44109,-2.982737 -0.97191,-1.273528 -2.44652,-2.044348 -1.47461,-0.770819 -3.51896,-0.770819 -1.60866,0 -2.94922,0.636764 -1.34056,0.636764 -2.21192,2.044348 h -0.067 v -2.211918 z"
         style="font-style:normal;font-variant:normal;font-weight:bold;font-stretch:normal;font-size:33.51389999999999958px;font-family:'Helvetica Neue';-inkscape-font-specification:'Helvetica Neue, Bold';font-variant-ligatures:normal;font-variant-caps:normal;font-variant-numeric:normal;font-variant-east-asian:normal;fill:#00112b;fill-opacity:1;stroke-width:0.264583"
         id="path854" />
      <path
         d="m 134.19949,33.692959 h -7.74171 q 0.0335,-0.502708 0.20108,-1.139473 0.20108,-0.636764 0.63676,-1.2065 0.4692,-0.569736 1.2065,-0.938389 0.77082,-0.402167 1.9103,-0.402167 1.74272,0 2.58057,0.938389 0.87136,0.938389 1.2065,2.74814 z m -7.74171,3.016251 h 12.50068 q 0.13406,-2.010834 -0.33514,-3.854099 -0.46919,-1.843264 -1.54164,-3.284362 -1.03893,-1.441098 -2.68111,-2.278945 -1.64218,-0.871361 -3.8541,-0.871361 -1.97732,0 -3.6195,0.703791 -1.60867,0.703792 -2.78165,1.943807 -1.17299,1.2065 -1.80975,2.882195 -0.63677,1.675695 -0.63677,3.619501 0,2.010835 0.60325,3.68653 0.63677,1.675695 1.77624,2.882195 1.13947,1.2065 2.78165,1.876778 1.64218,0.636765 3.68653,0.636765 2.94922,0 5.02709,-1.340556 2.07786,-1.340556 3.08328,-4.457349 h -4.18924 q -0.2346,0.804333 -1.27353,1.541639 -1.03893,0.703792 -2.48003,0.703792 -2.01083,0 -3.08328,-1.038931 -1.07244,-1.038931 -1.17298,-3.35139 z"
         style="font-style:normal;font-variant:normal;font-weight:bold;font-stretch:normal;font-size:33.51389999999999958px;font-family:'Helvetica Neue';-inkscape-font-specification:'Helvetica Neue, Bold';font-variant-ligatures:normal;font-variant-caps:normal;font-variant-numeric:normal;font-variant-east-asian:normal;fill:#00112b;fill-opacity:1;stroke-width:0.264583"
         id="path856" />
      <path
         d="m 154.08056,35.50271 q 0,1.072444 -0.20108,2.077862 -0.20109,1.005417 -0.67028,1.80975 -0.4692,0.77082 -1.27353,1.240014 -0.77082,0.469195 -1.94381,0.469195 -1.10596,0 -1.91029,-0.469195 -0.77082,-0.502708 -1.30704,-1.273528 -0.50271,-0.804333 -0.73731,-1.80975 -0.23459,-1.005417 -0.23459,-2.010834 0,-1.072445 0.20108,-2.044348 0.2346,-1.005417 0.70379,-1.776237 0.50271,-0.77082 1.30704,-1.240014 0.80434,-0.469195 1.97732,-0.469195 1.17299,0 1.94381,0.469195 0.77082,0.469194 1.24001,1.240014 0.50271,0.737306 0.7038,1.742723 0.20108,0.971903 0.20108,2.044348 z m 0.067,6.501696 v 2.211918 h 4.52437 V 20.287399 h -4.75897 v 8.713614 h -0.067 q -0.80433,-1.273528 -2.21192,-1.910292 -1.37407,-0.670278 -2.91571,-0.670278 -1.91029,0 -3.35139,0.770819 -1.44109,0.737306 -2.413,1.97732 -0.93839,1.240015 -1.44109,2.882196 -0.4692,1.608667 -0.4692,3.35139 0,1.809751 0.4692,3.485446 0.5027,1.675695 1.44109,2.982737 0.97191,1.273528 2.44652,2.044348 1.47461,0.737306 3.41842,0.737306 1.70921,0 3.04976,-0.603251 1.37407,-0.636764 2.21192,-2.044348 z"
         style="font-style:normal;font-variant:normal;font-weight:bold;font-stretch:normal;font-size:33.51389999999999958px;font-family:'Helvetica Neue';-inkscape-font-specification:'Helvetica Neue, Bold';font-variant-ligatures:normal;font-variant-caps:normal;font-variant-numeric:normal;font-variant-east-asian:normal;fill:#00112b;fill-opacity:1;stroke-width:0.264583"
         id="path858" />
      <path
         d="M 167.16198,24.208525 V 20.287399 H 162.403 v 3.921126 z m -4.75898,2.681112 v 17.326687 h 4.75898 V 26.889637 Z"
         style="font-style:normal;font-variant:normal;font-weight:bold;font-stretch:normal;font-size:33.51389999999999958px;font-family:'Helvetica Neue';-inkscape-font-specification:'Helvetica Neue, Bold';font-variant-ligatures:normal;font-variant-caps:normal;font-variant-numeric:normal;font-variant-east-asian:normal;fill:#00112b;fill-opacity:1;stroke-width:0.264583"
         id="path860" />
      <path
         d="m 170.70817,32.218347 q 0.10054,-1.675695 0.83785,-2.781653 0.7373,-1.105959 1.87678,-1.776237 1.13947,-0.670278 2.54705,-0.938389 1.4411,-0.301625 2.8822,-0.301625 1.30704,0 2.6476,0.201083 1.34055,0.167569 2.44651,0.703792 1.10596,0.536222 1.80975,1.508125 0.70379,0.93839 0.70379,2.513543 v 9.015239 q 0,1.172987 0.13406,2.245432 0.13405,1.072444 0.46919,1.608667 h -4.826 q -0.13405,-0.402167 -0.2346,-0.804334 -0.067,-0.43568 -0.10054,-0.871361 -1.13947,1.172986 -2.68111,1.642181 -1.54164,0.469195 -3.15031,0.469195 -1.24001,0 -2.31246,-0.301626 -1.07244,-0.301625 -1.87677,-0.938389 -0.80434,-0.636764 -1.27353,-1.608667 -0.43568,-0.971903 -0.43568,-2.312459 0,-1.474612 0.50271,-2.413001 0.53622,-0.971903 1.34055,-1.541639 0.83785,-0.569737 1.87678,-0.837848 1.07245,-0.301625 2.14489,-0.469195 1.07244,-0.167569 2.11138,-0.268111 1.03893,-0.100541 1.84326,-0.301625 0.80433,-0.201083 1.27353,-0.569736 0.46919,-0.402167 0.43568,-1.139473 0,-0.77082 -0.26811,-1.2065 -0.2346,-0.469195 -0.67028,-0.703792 -0.40217,-0.268111 -0.9719,-0.335139 -0.53623,-0.100542 -1.17299,-0.100542 -1.40758,0 -2.21192,0.60325 -0.80433,0.603251 -0.93839,2.010834 z m 10.99256,3.51896 q -0.30163,0.268111 -0.77082,0.435681 -0.43568,0.134055 -0.9719,0.234597 -0.50271,0.100542 -1.07245,0.167569 -0.56973,0.06703 -1.13947,0.16757 -0.53622,0.100542 -1.07245,0.268111 -0.5027,0.16757 -0.90487,0.469195 -0.36865,0.268111 -0.60325,0.703792 -0.2346,0.43568 -0.2346,1.105958 0,0.636765 0.2346,1.072445 0.2346,0.435681 0.63676,0.703792 0.40217,0.234597 0.93839,0.335139 0.53622,0.100542 1.10596,0.100542 1.40758,0 2.1784,-0.469195 0.77082,-0.469194 1.13948,-1.105958 0.36865,-0.670278 0.43568,-1.340556 0.10054,-0.670278 0.10054,-1.072445 z"
         style="font-style:normal;font-variant:normal;font-weight:bold;font-stretch:normal;font-size:33.51389999999999958px;font-family:'Helvetica Neue';-inkscape-font-specification:'Helvetica Neue, Bold';font-variant-ligatures:normal;font-variant-caps:normal;font-variant-numeric:normal;font-variant-east-asian:normal;fill:#00112b;fill-opacity:1;stroke-width:0.264583"
         id="path862" />
    </g>
    <rect
       style="fill:#00112b;fill-opacity:1;stroke-width:0.268449"
       id="rect965"
       width="88.80172"
       height="2.6079445"
       x="12.306287"
       y="46.641666" />
    <rect
       style="fill:#00112b;fill-opacity:1;stroke-width:0.255925"
       id="rect967"
       width="80.709869"
       height="2.6079445"
       x="107.72816"
       y="46.641666" />
  </g>
</svg>
